{
.appVersion = "1354";
DisplayStrings = (
"/Gheupturn-cy",
"/Tshe-cy"
);
classes = (
{
automatic = 1;

glyphs = (
{
glyphname = A;
lastChange = "2021-02-15 14:57:26 +0000";
layers = (
{
associatedMasterId = "0BD328E4-CA8F-4CB2-8877-C1BF962BF784";
layerId = "ABF8D106-2C09-4CEF-A2DE-DBE40B9E0000";
name = "Mar 20 18, 14:33";
paths = (
{
closed = 1;
nodes = (
"674 671 OFFCURVE",
"744 671 OFFCURVE",
"744 671 CURVE",
"744 700 LINE",
"260 700 LINE",
"260 671 LINE",
"260 671 OFFCURVE",
"331 671 OFFCURVE",
"331 496 CURVE",
"331 29 OFFCURVE",
"38 29 OFFCURVE",
"38 29 CURVE",
"38 0 LINE",
"490 0 LINE",
"490 29 LINE",
"490 29 OFFCURVE",
"405 29 OFFCURVE",
"405 129 CURVE",
"405 189 OFFCURVE",
"463 208 OFFCURVE",
"502 208 CURVE",
"542 208 OFFCURVE",
"599 189 OFFCURVE",
"599 129 CURVE",
"599 29 OFFCURVE",
"514 29 OFFCURVE",
"514 29 CURVE",
"514 0 LINE",
"967 0 LINE",
"967 29 LINE",
"967 29 OFFCURVE",
"674 29 OFFCURVE",
"674 496 CURVE"
);
},
{
closed = 1;
nodes = (
"476 290 OFFCURVE",
"453 301 OFFCURVE",
"453 327 CURVE",
"453 377 OFFCURVE",
"497 447 OFFCURVE",
"497 540 CURVE",
"497 540 OFFCURVE",
"507 540 OFFCURVE",
"507 540 CURVE",
"507 447 OFFCURVE",
"552 377 OFFCURVE",
"552 327 CURVE",
"552 301 OFFCURVE",
"528 290 OFFCURVE",
"502 290 CURVE"
);
}
);
width = 1005;
},
{
associatedMasterId = "0BD328E4-CA8F-4CB2-8877-C1BF962BF784";
layerId = "62DB43EA-19A7-481F-836F-EE6142658B15";
name = "Mar 31 18, 10:42";
paths = (
{
closed = 1;
nodes = (
"619 671 OFFCURVE",
"676 671 OFFCURVE",
"676 671 CURVE",
"676 700 LINE",
"219 700 LINE",
"219 671 LINE",
"219 671 OFFCURVE",
"276 671 OFFCURVE",
"276 495 CURVE",
"276 29 OFFCURVE",
"38 29 OFFCURVE",
"38 29 CURVE",
"38 0 LINE",
"435 0 LINE",
"435 29 LINE",
"435 29 OFFCURVE",
"350 29 OFFCURVE",
"350 128 CURVE",
"350 189 OFFCURVE",
"408 207 OFFCURVE",
"448 207 CURVE",
"487 207 OFFCURVE",
"545 189 OFFCURVE",
"545 128 CURVE",
"545 29 OFFCURVE",
"460 29 OFFCURVE",
"460 29 CURVE",
"460 0 LINE",
"857 0 LINE",
"857 29 LINE",
"857 29 OFFCURVE",
"619 29 OFFCURVE",
"619 495 CURVE"
);
},
{
closed = 1;
nodes = (
"422 289 OFFCURVE",
"398 300 OFFCURVE",
"398 327 CURVE",
"398 377 OFFCURVE",
"443 447 OFFCURVE",
"443 540 CURVE",
"443 540 OFFCURVE",
"453 540 OFFCURVE",
"453 540 CURVE",
"453 447 OFFCURVE",
"497 377 OFFCURVE",
"497 327 CURVE",
"497 300 OFFCURVE",
"473 289 OFFCURVE",
"448 289 CURVE"
);
}
);
width = 895;
},
{
anchors = (
{
name = bottom;
position = "{430, 0}";
},
{
name = ogonek;
position = "{773, 10}";
},
{
name = top;
position = "{430, 700}";
}
);
associatedMasterId = "0BD328E4-CA8F-4CB2-8877-C1BF962BF784";
layerId = "53E026E3-5BED-431A-ADC0-A43D42EF6EBC";
name = "Oct 5 18, 14:58";
paths = (
{
closed = 1;
nodes = (
"404 289 OFFCURVE",
"380 303 OFFCURVE",
"380 337 CURVE",
"380 415 OFFCURVE",
"425 492 OFFCURVE",
"425 540 CURVE",
"435 540 LINE",
"435 492 OFFCURVE",
"479 415 OFFCURVE",
"479 337 CURVE",
"479 303 OFFCURVE",
"455 289 OFFCURVE",
"430 289 CURVE"
);
},
{
closed = 1;
nodes = (
"601 671 OFFCURVE",
"658 671 OFFCURVE",
"658 671 CURVE",
"658 700 LINE",
"201 700 LINE",
"201 671 LINE",
"201 671 OFFCURVE",
"258 671 OFFCURVE",
"258 495 CURVE",
"258 29 OFFCURVE",
"20 29 OFFCURVE",
"20 29 CURVE",
"20 0 LINE",
"417 0 LINE",
"417 29 LINE",
"417 29 OFFCURVE",
"332 29 OFFCURVE",
"332 128 CURVE",
"332 189 OFFCURVE",
"390 207 OFFCURVE",
"430 207 CURVE",
"469 207 OFFCURVE",
"527 189 OFFCURVE",
"527 128 CURVE",
"527 29 OFFCURVE",
"442 29 OFFCURVE",
"442 29 CURVE",
"442 0 LINE",
"839 0 LINE",
"839 29 LINE",
"839 29 OFFCURVE",
"601 29 OFFCURVE",
"601 495 CURVE"
);
}
);
width = 859;
},
{
anchors = (
{
name = bottom;
position = "{445, 0}";
},
{
name = ogonek;
position = "{813, 10}";
},
{
name = top;
position = "{445, 700}";
}
);
associatedMasterId = "0BD328E4-CA8F-4CB2-8877-C1BF962BF784";
layerId = "D40B04D9-065D-4BC5-99BA-74D11D4807E3";
name = "Oct 15 18, 10:06";
paths = (
{
closed = 1;
nodes = (
"632 628 OFFCURVE",
"664 671 OFFCURVE",
"689 671 CURVE",
"689 700 LINE",
"201 700 LINE",
"201 671 LINE",
"226 671 OFFCURVE",
"258 628 OFFCURVE",
"258 495 CURVE",
"258 242 OFFCURVE",
"167 29 OFFCURVE",
"20 29 CURVE",
"20 15 OFFCURVE",
"20 0 OFFCURVE",
"20 0 CURVE",
"432 0 LINE",
"432 0 OFFCURVE",
"432 15 OFFCURVE",
"432 29 CURVE",
"412 29 OFFCURVE",
"347 44 OFFCURVE",
"347 118 CURVE",
"347 195 OFFCURVE",
"412 207 OFFCURVE",
"445 207 CURVE",
"478 207 OFFCURVE",
"543 190 OFFCURVE",
"543 118 CURVE",
"543 44 OFFCURVE",
"478 29 OFFCURVE",
"458 29 CURVE",
"458 18 OFFCURVE",
"458 0 OFFCURVE",
"458 0 CURVE",
"870 0 LINE",
"870 0 OFFCURVE",
"870 12 OFFCURVE",
"870 29 CURVE",
"723 29 OFFCURVE",
"632 242 OFFCURVE",
"632 495 CURVE"
);
},
{
closed = 1;
nodes = (
"419 289 OFFCURVE",
"395 303 OFFCURVE",
"395 337 CURVE",
"395 415 OFFCURVE",
"440 492 OFFCURVE",
"440 540 CURVE",
"450 540 LINE",
"450 492 OFFCURVE",
"495 415 OFFCURVE",
"495 337 CURVE",
"495 303 OFFCURVE",
"471 289 OFFCURVE",
"445 289 CURVE"
);
}
);
width = 890;
},
{
anchors = (
{
name = bottom;
position = "{445, 0}";
},
{
name = ogonek;
position = "{813, 10}";
},
{
name = top;
position = "{445, 700}";
}
);
associatedMasterId = "0BD328E4-CA8F-4CB2-8877-C1BF962BF784";
layerId = "58F6E536-06EA-461F-AA58-A1F8611857C4";
name = "Oct 15 18, 10:06";
paths = (
{
closed = 1;
nodes = (
"632 628 OFFCURVE",
"664 671 OFFCURVE",
"689 671 CURVE",
"689 700 LINE",
"201 700 LINE",
"201 671 LINE",
"226 671 OFFCURVE",
"258 628 OFFCURVE",
"258 495 CURVE",
"258 242 OFFCURVE",
"167 29 OFFCURVE",
"20 29 CURVE",
"20 15 OFFCURVE",
"20 0 OFFCURVE",
"20 0 CURVE",
"432 0 LINE",
"432 0 OFFCURVE",
"432 15 OFFCURVE",
"432 29 CURVE",
"412 29 OFFCURVE",
"347 44 OFFCURVE",
"347 118 CURVE",
"347 195 OFFCURVE",
"412 207 OFFCURVE",
"445 207 CURVE",
"478 207 OFFCURVE",
"543 190 OFFCURVE",
"543 118 CURVE",
"543 44 OFFCURVE",
"478 29 OFFCURVE",
"458 29 CURVE",
"458 18 OFFCURVE",
"458 0 OFFCURVE",
"458 0 CURVE",
"870 0 LINE",
"870 0 OFFCURVE",
"870 12 OFFCURVE",
"870 29 CURVE",
"723 29 OFFCURVE",
"632 242 OFFCURVE",
"632 495 CURVE"
);
},
{
closed = 1;
nodes = (
"419 289 OFFCURVE",
"395 303 OFFCURVE",
"395 337 CURVE",
"395 415 OFFCURVE",
"440 492 OFFCURVE",
"440 540 CURVE",
"450 540 LINE",
"450 492 OFFCURVE",
"495 415 OFFCURVE",
"495 337 CURVE",
"495 303 OFFCURVE",
"471 289 OFFCURVE",
"445 289 CURVE"
);
}
);
width = 890;
},
{
anchors = (
{
name = bottom;
position = "{455, 0}";
},
{
name = ogonek;
position = "{838, 10}";
},
{
name = top;
position = "{455, 700}";
}
);
layerId = "0BD328E4-CA8F-4CB2-8877-C1BF962BF784";
paths = (
{
closed = 1;
nodes = (
"657 628 OFFCURVE",
"689 671 OFFCURVE",
"714 671 CURVE",
"714 700 LINE",
"206 700 LINE",
"206 671 LINE",
"231 671 OFFCURVE",
"263 628 OFFCURVE",
"263 495 CURVE SMOOTH",
"263 242 OFFCURVE",
"172 29 OFFCURVE",
"25 29 CURVE",
"25 0 LINE",
"442 0 LINE",
"442 29 LINE",
"422 29 OFFCURVE",
"357 44 OFFCURVE",
"357 118 CURVE",
"357 195 OFFCURVE",
"422 207 OFFCURVE",
"455 207 CURVE",
"488 207 OFFCURVE",
"553 190 OFFCURVE",
"553 118 CURVE",
"553 44 OFFCURVE",
"488 29 OFFCURVE",
"468 29 CURVE",
"468 0 LINE",
"895 0 LINE",
"895 29 LINE",
"748 29 OFFCURVE",
"657 242 OFFCURVE",
"657 495 CURVE SMOOTH"
);
},
{
closed = 1;
nodes = (
"429 289 OFFCURVE",
"405 303 OFFCURVE",
"405 337 CURVE",
"405 415 OFFCURVE",
"450 492 OFFCURVE",
"450 540 CURVE",
"460 540 LINE",
"460 492 OFFCURVE",
"505 415 OFFCURVE",
"505 337 CURVE",
"505 303 OFFCURVE",
"481 289 OFFCURVE",
"455 289 CURVE"
);
}
);
width = 920;
}
);
leftKerningGroup = A;
rightKerningGroup = A;
unicode = 0041;
},
{
glyphname = AE;
lastChange = "2018-10-19 09:02:19 +0000";
layers = (
{
layerId = "0BD328E4-CA8F-4CB2-8877-C1BF962BF784";
paths = (
{
closed = 1;
nodes = (
"462 0 LINE",
"1051 0 LINE",
"1017 338 LINE",
"988 338 LINE",
"988 338 OFFCURVE",
"1018 88 OFFCURVE",
"816 88 CURVE",
"732 88 OFFCURVE",
"693 145 OFFCURVE",
"693 218 CURVE",
"693 276 OFFCURVE",
"730 300 OFFCURVE",
"757 300 CURVE",
"821 300 OFFCURVE",
"839 234 OFFCURVE",
"839 175 CURVE",
"861 175 OFFCURVE",
"868 175 OFFCURVE",
"868 175 CURVE",
"868 525 LINE",
"868 525 OFFCURVE",
"861 525 OFFCURVE",
"839 525 CURVE",
"839 466 OFFCURVE",
"811 401 OFFCURVE",
"747 401 CURVE",
"720 401 OFFCURVE",
"641 409 OFFCURVE",
"641 507 CURVE",
"641 573 OFFCURVE",
"678 612 OFFCURVE",
"776 612 CURVE",
"978 612 OFFCURVE",
"985 362 OFFCURVE",
"985 362 CURVE",
"1014 362 LINE",
"980 700 LINE",
"201 700 LINE",
"201 671 LINE",
"226 671 OFFCURVE",
"258 628 OFFCURVE",
"258 495 CURVE",
"258 242 OFFCURVE",
"167 29 OFFCURVE",
"20 29 CURVE",
"20 12 OFFCURVE",
"20 0 OFFCURVE",
"20 0 CURVE",
"437 0 LINE",
"437 29 LINE",
"437 29 OFFCURVE",
"352 29 OFFCURVE",
"352 128 CURVE",
"352 189 OFFCURVE",
"410 207 OFFCURVE",
"450 207 CURVE",
"489 207 OFFCURVE",
"547 189 OFFCURVE",
"547 128 CURVE",
"547 29 OFFCURVE",
"462 29 OFFCURVE",
"462 29 CURVE"
);
},
{
closed = 1;
nodes = (
"424 289 OFFCURVE",
"400 303 OFFCURVE",
"400 337 CURVE",
"400 415 OFFCURVE",
"445 492 OFFCURVE",
"445 540 CURVE",
"455 540 LINE",
"455 492 OFFCURVE",
"499 415 OFFCURVE",
"499 337 CURVE",
"499 303 OFFCURVE",
"475 289 OFFCURVE",
"450 289 CURVE"
);
}
);
width = 1071;
},
{
associatedMasterId = "0BD328E4-CA8F-4CB2-8877-C1BF962BF784";
layerId = "289D8C8B-1EE1-423C-A4B2-0296A458B98C";
name = "Oct 5 18, 15:02";
paths = (
{
closed = 1;
nodes = (
"968 338 LINE",
"968 338 OFFCURVE",
"998 88 OFFCURVE",
"796 88 CURVE",
"712 88 OFFCURVE",
"673 145 OFFCURVE",
"673 218 CURVE",
"673 276 OFFCURVE",
"710 300 OFFCURVE",
"737 300 CURVE",
"801 300 OFFCURVE",
"819 234 OFFCURVE",
"819 175 CURVE",
"841 175 OFFCURVE",
"848 175 OFFCURVE",
"848 175 CURVE",
"848 525 LINE",
"848 525 OFFCURVE",
"841 525 OFFCURVE",
"819 525 CURVE",
"819 466 OFFCURVE",
"791 401 OFFCURVE",
"727 401 CURVE",
"700 401 OFFCURVE",
"621 409 OFFCURVE",
"621 507 CURVE",
"621 573 OFFCURVE",
"658 612 OFFCURVE",
"756 612 CURVE",
"958 612 OFFCURVE",
"965 362 OFFCURVE",
"965 362 CURVE",
"994 362 LINE",
"960 700 LINE",
"221 700 LINE",
"221 671 LINE",
"221 671 OFFCURVE",
"278 671 OFFCURVE",
"278 495 CURVE",
"278 29 OFFCURVE",
"40 29 OFFCURVE",
"40 29 CURVE",
"40 0 LINE",
"437 0 LINE",
"437 29 LINE",
"437 29 OFFCURVE",
"352 29 OFFCURVE",
"352 128 CURVE",
"352 189 OFFCURVE",
"410 207 OFFCURVE",
"450 207 CURVE",
"489 207 OFFCURVE",
"547 189 OFFCURVE",
"547 128 CURVE",
"547 29 OFFCURVE",
"462 29 OFFCURVE",
"462 29 CURVE",
"462 0 LINE",
"1031 0 LINE",
"997 338 LINE"
);
},
{
closed = 1;
nodes = (
"424 289 OFFCURVE",
"400 303 OFFCURVE",
"400 337 CURVE",
"400 415 OFFCURVE",
"445 492 OFFCURVE",
"445 540 CURVE",
"455 540 LINE",
"455 492 OFFCURVE",
"499 415 OFFCURVE",
"499 337 CURVE",
"499 303 OFFCURVE",
"475 289 OFFCURVE",
"450 289 CURVE"
);
}
);
width = 1071;
}
);
leftKerningGroup = ALARGE;
unicode = 00C6;
},
{
glyphname = B;
lastChange = "2021-02-15 14:59:11 +0000";
layers = (
{
anchors = (
{
name = bottom;
position = "{436, 0}";
},
{
name = top;
position = "{436, 700}";
}
);
layerId = "0BD328E4-CA8F-4CB2-8877-C1BF962BF784";
paths = (
{
closed = 1;
nodes = (
"535 0 LINE SMOOTH",
"693 0 OFFCURVE",
"817 116 OFFCURVE",
"817 266 CURVE SMOOTH",
"817 420 OFFCURVE",
"711 496 OFFCURVE",
"633 521 CURVE",
"651 541 OFFCURVE",
"662 565 OFFCURVE",
"662 594 CURVE SMOOTH",
"662 658 OFFCURVE",
"593 700 OFFCURVE",
"490 700 CURVE SMOOTH",
"25 700 LINE",
"25 671 LINE",
"151 671 OFFCURVE",
"214 511 OFFCURVE",
"214 350 CURVE SMOOTH",
"214 190 OFFCURVE",
"151 29 OFFCURVE",
"25 29 CURVE",
"25 0 LINE"
);
},
{
closed = 1;
nodes = (
"389 474 OFFCURVE",
"409 550 OFFCURVE",
"440 597 CURVE",
"455 616 OFFCURVE",
"472 626 OFFCURVE",
"490 626 CURVE SMOOTH",
"524 626 OFFCURVE",
"536 597 OFFCURVE",
"536 575 CURVE SMOOTH",
"536 510 OFFCURVE",
"425 462 OFFCURVE",
"425 462 CURVE",
"431 433 LINE",
"459 436 OFFCURVE",
"587 443 OFFCURVE",
"587 300 CURVE SMOOTH",
"587 190 OFFCURVE",
"536 124 OFFCURVE",
"444 117 CURVE",
"413 165 OFFCURVE",
"389 238 OFFCURVE",
"389 350 CURVE SMOOTH"
);
}
);
width = 842;
},
{
anchors = (
{
name = bottom;
position = "{436, 0}";
},
{
name = top;
position = "{436, 700}";
}
);
associatedMasterId = "0BD328E4-CA8F-4CB2-8877-C1BF962BF784";
layerId = "A942A787-49A4-4223-8F3F-1D9DC2CF57E8";
name = "Feb 15 21, 15:57";
paths = (
{
closed = 1;
nodes = (
"535 0 LINE SMOOTH",
"693 0 OFFCURVE",
"817 116 OFFCURVE",
"817 266 CURVE SMOOTH",
"817 420 OFFCURVE",
"711 496 OFFCURVE",
"633 521 CURVE",
"651 541 OFFCURVE",
"662 565 OFFCURVE",
"662 594 CURVE SMOOTH",
"662 689 OFFCURVE",
"536 700 OFFCURVE",
"490 700 CURVE SMOOTH",
"25 700 LINE",
"25 671 LINE",
"151 671 OFFCURVE",
"214 511 OFFCURVE",
"214 350 CURVE SMOOTH",
"214 190 OFFCURVE",
"151 29 OFFCURVE",
"25 29 CURVE",
"25 0 LINE"
);
},
{
closed = 1;
nodes = (
"389 474 OFFCURVE",
"409 550 OFFCURVE",
"440 597 CURVE",
"455 616 OFFCURVE",
"472 626 OFFCURVE",
"490 626 CURVE SMOOTH",
"524 626 OFFCURVE",
"536 597 OFFCURVE",
"536 575 CURVE SMOOTH",
"536 510 OFFCURVE",
"425 462 OFFCURVE",
"425 462 CURVE",
"431 433 LINE",
"459 436 OFFCURVE",
"587 443 OFFCURVE",
"587 300 CURVE SMOOTH",
"587 271 OFFCURVE",
"587 129 OFFCURVE",
"444 117 CURVE",
"413 165 OFFCURVE",
"389 238 OFFCURVE",
"389 350 CURVE SMOOTH"
);
}
);
width = 842;
}
);
leftKerningGroup = H;
rightKerningGroup = B;
unicode = 0042;
},
{
glyphname = C;
lastChange = "2020-11-12 11:40:39 +0000";
layers = (
{
anchors = (
{
name = bottom;
position = "{398, 0}";
},
{
name = top;
position = "{437, 700}";
}
);
guideLines = (
{
position = "{237, 592}";
}
);
layerId = "0BD328E4-CA8F-4CB2-8877-C1BF962BF784";
paths = (
{
closed = 1;
nodes = (
"662 223 OFFCURVE",
"605 155 OFFCURVE",
"490 155 CURVE",
"317 155 OFFCURVE",
"250 270 OFFCURVE",
"250 388 CURVE",
"250 514 OFFCURVE",
"349 592 OFFCURVE",
"452 592 CURVE SMOOTH",
"585 592 OFFCURVE",
"674 496 OFFCURVE",
"674 351 CURVE",
"705 351 LINE",
"740 700 LINE",
"740 700 OFFCURVE",
"670 700 OFFCURVE",
"564 700 CURVE SMOOTH",
"317 700 OFFCURVE",
"25 626 OFFCURVE",
"25 338 CURVE",
"25 106 OFFCURVE",
"227 -22 OFFCURVE",
"380 -22 CURVE",
"627 -22 OFFCURVE",
"713 188 OFFCURVE",
"726 294 CURVE",
"693 308 LINE"
);
}
);
width = 765;
},
{
associatedMasterId = "0BD328E4-CA8F-4CB2-8877-C1BF962BF784";
layerId = "3B5084CB-B684-4C33-B68B-739BFFCEEFD4";
name = "Mar 13 18, 00:09";
paths = (
{
closed = 1;
nodes = (
"548 465 OFFCURVE",
"682 204 OFFCURVE",
"420 204 CURVE",
"289 204 OFFCURVE",
"203 289 OFFCURVE",
"203 408 CURVE",
"203 488 OFFCURVE",
"254 586 OFFCURVE",
"387 586 CURVE",
"688 586 OFFCURVE",
"688 350 OFFCURVE",
"688 350 CURVE",
"718 350 LINE",
"764 700 LINE",
"764 700 OFFCURVE",
"639 700 OFFCURVE",
"534 700 CURVE",
"288 700 OFFCURVE",
"38 626 OFFCURVE",
"38 337 CURVE",
"38 0 OFFCURVE",
"338 -60 OFFCURVE",
"457 -60 CURVE",
"584 -60 OFFCURVE",
"719 -22 OFFCURVE",
"719 149 CURVE",
"719 321 OFFCURVE",
"579 465 OFFCURVE",
"579 465 CURVE",
"548 465 LINE"
);
}
);
width = 802;
},
{
associatedMasterId = "0BD328E4-CA8F-4CB2-8877-C1BF962BF784";
layerId = "DC7DE282-1388-4DF6-B4D9-BFF2BCF4F041";
name = "Mar 22 18, 09:53";
paths = (
{
closed = 1;
nodes = (
"548 466 OFFCURVE",
"681 206 OFFCURVE",
"419 206 CURVE",
"289 206 OFFCURVE",
"203 291 OFFCURVE",
"203 409 CURVE",
"203 490 OFFCURVE",
"265 588 OFFCURVE",
"398 588 CURVE",
"687 588 OFFCURVE",
"687 352 OFFCURVE",
"687 352 CURVE",
"718 352 LINE",
"718 351 LINE",
"763 701 LINE",
"763 701 OFFCURVE",
"753 701 OFFCURVE",
"647 701 CURVE",
"288 701 OFFCURVE",
"38 627 OFFCURVE",
"38 339 CURVE",
"38 2 OFFCURVE",
"337 -59 OFFCURVE",
"457 -59 CURVE",
"583 -59 OFFCURVE",
"719 -21 OFFCURVE",
"719 151 CURVE",
"719 322 OFFCURVE",
"578 466 OFFCURVE",
"578 466 CURVE",
"548 466 LINE"
);
}
);
width = 801;
},
{
associatedMasterId = "0BD328E4-CA8F-4CB2-8877-C1BF962BF784";
layerId = "08326375-A2BD-410E-9C28-05D5E187898F";
name = "Mar 27 18, 22:54";
paths = (
{
closed = 1;
nodes = (
"538 465 OFFCURVE",
"681 155 OFFCURVE",
"419 155 CURVE",
"289 155 OFFCURVE",
"203 290 OFFCURVE",
"203 408 CURVE",
"203 489 OFFCURVE",
"255 587 OFFCURVE",
"388 587 CURVE",
"677 587 OFFCURVE",
"677 351 OFFCURVE",
"677 351 CURVE",
"708 351 LINE",
"743 700 LINE",
"743 700 OFFCURVE",
"743 700 OFFCURVE",
"637 700 CURVE",
"278 700 OFFCURVE",
"38 626 OFFCURVE",
"38 338 CURVE",
"38 1 OFFCURVE",
"297 -50 OFFCURVE",
"417 -50 CURVE SMOOTH",
"543 -50 OFFCURVE",
"709 8 OFFCURVE",
"709 180 CURVE",
"709 351 OFFCURVE",
"568 465 OFFCURVE",
"568 465 CURVE",
"538 465 LINE"
);
}
);
width = 781;
},
{
associatedMasterId = "0BD328E4-CA8F-4CB2-8877-C1BF962BF784";
layerId = "9120A5FF-3C18-4390-9313-EC7A66EDFF5F";
name = "Mar 27 18, 23:49";
paths = (
{
closed = 1;
nodes = (
"677 327 OFFCURVE",
"677 155 OFFCURVE",
"429 155 CURVE",
"299 155 OFFCURVE",
"203 237 OFFCURVE",
"203 398 CURVE",
"203 479 OFFCURVE",
"255 587 OFFCURVE",
"388 587 CURVE",
"677 587 OFFCURVE",
"677 351 OFFCURVE",
"677 351 CURVE",
"708 351 LINE",
"743 700 LINE",
"743 700 OFFCURVE",
"743 700 OFFCURVE",
"637 700 CURVE",
"278 700 OFFCURVE",
"38 626 OFFCURVE",
"38 338 CURVE",
"38 1 OFFCURVE",
"297 -50 OFFCURVE",
"417 -50 CURVE",
"659 -50 OFFCURVE",
"709 118 OFFCURVE",
"709 327 CURVE",
"677 327 LINE"
);
}
);
width = 781;
},
{
associatedMasterId = "0BD328E4-CA8F-4CB2-8877-C1BF962BF784";
layerId = "3B296686-6C56-4F9F-ABD8-225D1642FBBE";
name = "Mar 28 18, 16:54";
paths = (
{
closed = 1;
nodes = (
"647 339 OFFCURVE",
"648 155 OFFCURVE",
"428 155 CURVE",
"281 155 OFFCURVE",
"213 269 OFFCURVE",
"213 381 CURVE",
"213 462 OFFCURVE",
"258 587 OFFCURVE",
"418 587 CURVE",
"648 587 OFFCURVE",
"647 363 OFFCURVE",
"647 363 CURVE",
"678 363 LINE",
"713 700 LINE",
"713 700 OFFCURVE",
"713 700 OFFCURVE",
"607 700 CURVE",
"248 700 OFFCURVE",
"38 626 OFFCURVE",
"38 338 CURVE",
"38 1 OFFCURVE",
"268 -50 OFFCURVE",
"388 -50 CURVE",
"649 -50 OFFCURVE",
"679 211 OFFCURVE",
"679 339 CURVE",
"647 339 LINE"
);
}
);
width = 751;
},
{
associatedMasterId = "0BD328E4-CA8F-4CB2-8877-C1BF962BF784";
layerId = "6C3584F3-4C05-488B-A1FE-8C78F9177D2E";
name = "Mar 28 18, 16:57";
paths = (
{
closed = 1;
nodes = (
"707 308 OFFCURVE",
"654 155 OFFCURVE",
"429 155 CURVE",
"318 155 OFFCURVE",
"233 266 OFFCURVE",
"233 408 CURVE",
"233 489 OFFCURVE",
"291 593 OFFCURVE",
"421 593 CURVE",
"644 593 OFFCURVE",
"657 351 OFFCURVE",
"657 351 CURVE",
"688 351 LINE",
"723 700 LINE",
"723 700 OFFCURVE",
"723 700 OFFCURVE",
"617 700 CURVE",
"258 700 OFFCURVE",
"38 626 OFFCURVE",
"38 338 CURVE",
"38 1 OFFCURVE",
"277 -50 OFFCURVE",
"397 -50 CURVE",
"663 -50 OFFCURVE",
"740 295 OFFCURVE",
"740 295 CURVE",
"707 308 LINE"
);
}
);
width = 778;
},
{
associatedMasterId = "0BD328E4-CA8F-4CB2-8877-C1BF962BF784";
layerId = "9CC09D19-B18D-417C-938B-7548AB0678C8";
name = "Mar 28 18, 17:13";
paths = (
{
closed = 1;
nodes = (
"645 223 OFFCURVE",
"588 155 OFFCURVE",
"473 155 CURVE",
"300 155 OFFCURVE",
"233 270 OFFCURVE",
"233 388 CURVE",
"233 469 OFFCURVE",
"291 592 OFFCURVE",
"420 592 CURVE",
"643 592 OFFCURVE",
"657 351 OFFCURVE",
"657 351 CURVE",
"688 351 LINE",
"723 700 LINE",
"723 700 OFFCURVE",
"723 700 OFFCURVE",
"617 700 CURVE",
"258 700 OFFCURVE",
"38 626 OFFCURVE",
"38 338 CURVE",
"38 30 OFFCURVE",
"303 -50 OFFCURVE",
"423 -50 CURVE",
"650 -50 OFFCURVE",
"696 188 OFFCURVE",
"709 294 CURVE",
"676 308 LINE"
);
}
);
width = 761;
},
{
anchors = (
{
name = bottom;
position = "{363, 0}";
},
{
name = top;
position = "{363, 700}";
}
);
associatedMasterId = "0BD328E4-CA8F-4CB2-8877-C1BF962BF784";
layerId = "E98CD6B1-8591-408E-BA9A-BF3E8B60294F";
name = "Sep 29 18, 19:09";
paths = (
{
closed = 1;
nodes = (
"627 223 OFFCURVE",
"570 155 OFFCURVE",
"455 155 CURVE",
"282 155 OFFCURVE",
"215 270 OFFCURVE",
"215 388 CURVE",
"215 469 OFFCURVE",
"273 592 OFFCURVE",
"402 592 CURVE",
"625 592 OFFCURVE",
"639 351 OFFCURVE",
"639 351 CURVE",
"670 351 LINE",
"705 700 LINE",
"705 700 OFFCURVE",
"705 700 OFFCURVE",
"599 700 CURVE",
"240 700 OFFCURVE",
"20 626 OFFCURVE",
"20 338 CURVE",
"20 106 OFFCURVE",
"192 -22 OFFCURVE",
"345 -22 CURVE",
"592 -22 OFFCURVE",
"678 188 OFFCURVE",
"691 294 CURVE",
"658 308 LINE"
);
}
);
width = 725;
}
);
leftKerningGroup = O;
rightKerningGroup = G;
unicode = 0043;
},
{
glyphname = D;
lastChange = "2021-02-15 14:59:42 +0000";
layers = (
{
anchors = (
{
name = bottom;
position = "{431, 0}";
},
{
name = center;
position = "{431, 350}";
},
{
name = top;
position = "{431, 700}";
}
);
guideLines = (
{
angle = 90;
position = "{214, 477}";
}
);
layerId = "0BD328E4-CA8F-4CB2-8877-C1BF962BF784";
paths = (
{
closed = 1;
nodes = (
"398 0 LINE SMOOTH",
"620 0 OFFCURVE",
"847 99 OFFCURVE",
"847 357 CURVE SMOOTH",
"847 563 OFFCURVE",
"671 700 OFFCURVE",
"408 700 CURVE SMOOTH",
"25 700 LINE",
"25 671 LINE",
"151 671 OFFCURVE",
"214 511 OFFCURVE",
"214 350 CURVE SMOOTH",
"214 190 OFFCURVE",
"151 29 OFFCURVE",
"25 29 CURVE",
"25 0 LINE"
);
},
{
closed = 1;
nodes = (
"378 368 LINE SMOOTH",
"378 406 OFFCURVE",
"395 612 OFFCURVE",
"497 612 CURVE SMOOTH",
"564 612 OFFCURVE",
"611 546 OFFCURVE",
"611 407 CURVE SMOOTH",
"611 242 OFFCURVE",
"495 123 OFFCURVE",
"430 123 CURVE",
"401 170 OFFCURVE",
"378 242 OFFCURVE",
"378 350 CURVE SMOOTH"
);
}
);
width = 872;
},
{
associatedMasterId = "0BD328E4-CA8F-4CB2-8877-C1BF962BF784";
layerId = "8C288B56-F4B5-4257-BAEA-82CADA665869";
name = "Mar 28 18, 16:38";
paths = (
{
closed = 1;
nodes = (
"365 700 OFFCURVE",
"38 700 OFFCURVE",
"38 700 CURVE",
"38 671 LINE",
"38 671 OFFCURVE",
"228 665 OFFCURVE",
"228 350 CURVE",
"228 34 OFFCURVE",
"39 29 OFFCURVE",
"39 29 CURVE",
"39 0 LINE",
"444 0 LINE",
"499 0 OFFCURVE",
"821 0 OFFCURVE",
"821 367 CURVE",
"821 625 OFFCURVE",
"612 700 OFFCURVE",
"499 700 CURVE"
);
},
{
closed = 1;
nodes = (
"416 165 OFFCURVE",
"392 237 OFFCURVE",
"392 350 CURVE",
"392 502 OFFCURVE",
"439 582 OFFCURVE",
"487 624 CURVE",
"527 613 OFFCURVE",
"605 541 OFFCURVE",
"605 367 CURVE",
"605 197 OFFCURVE",
"516 120 OFFCURVE",
"447 117 CURVE"
);
}
);
width = 859;
},
{
associatedMasterId = "0BD328E4-CA8F-4CB2-8877-C1BF962BF784";
layerId = "CB5CA92E-4A67-49DB-AD54-78026628FDCB";
name = "Mar 28 18, 16:47";
paths = (
{
closed = 1;
nodes = (
"830 611 OFFCURVE",
"679 700 OFFCURVE",
"421 700 CURVE",
"224 700 OFFCURVE",
"38 700 OFFCURVE",
"38 700 CURVE",
"38 671 LINE",
"38 671 OFFCURVE",
"227 665 OFFCURVE",
"227 350 CURVE",
"227 34 OFFCURVE",
"38 29 OFFCURVE",
"38 29 CURVE",
"38 0 LINE",
"371 0 LINE",
"593 0 OFFCURVE",
"830 129 OFFCURVE",
"830 387 CURVE"
);
},
{
closed = 1;
nodes = (
"414 170 OFFCURVE",
"391 242 OFFCURVE",
"391 350 CURVE",
"391 356 OFFCURVE",
"392 362 OFFCURVE",
"392 368 CURVE",
"393 406 OFFCURVE",
"408 612 OFFCURVE",
"510 612 CURVE",
"577 612 OFFCURVE",
"624 546 OFFCURVE",
"624 407 CURVE",
"624 242 OFFCURVE",
"508 123 OFFCURVE",
"443 123 CURVE"
);
}
);
width = 868;
}
);
leftKerningGroup = H;
rightKerningGroup = D;
unicode = 0044;
},
{
glyphname = Eth;
lastChange = "2019-10-08 08:57:58 +0000";
layers = (
{
components = (
{
name = D;
}
);
layerId = "0BD328E4-CA8F-4CB2-8877-C1BF962BF784";
paths = (
{
closed = 1;
nodes = (
"127 413 LINE",
"127 288 LINE",
"156 288 LINE",
"156 288 OFFCURVE",
"156 317 OFFCURVE",
"322 317 CURVE",
"488 317 OFFCURVE",
"488 288 OFFCURVE",
"488 288 CURVE",
"517 288 LINE",
"517 413 LINE",
"488 413 LINE",
"488 413 OFFCURVE",
"488 384 OFFCURVE",
"322 384 CURVE",
"156 384 OFFCURVE",
"156 413 OFFCURVE",
"156 413 CURVE"
);
}
);
width = 872;
}
);
leftKerningGroup = H;
rightKerningGroup = D;
unicode = 00D0;
},
{
glyphname = E;
lastChange = "2020-11-12 11:43:26 +0000";
layers = (
{
anchors = (
{
name = bottom;
position = "{410, 0}";
},
{
name = ogonek;
position = "{725, 10}";
},
{
name = top;
position = "{450, 700}";
},
{
name = topleft;
position = "{25, 700}";
}
);
layerId = "0BD328E4-CA8F-4CB2-8877-C1BF962BF784";
paths = (
{
closed = 1;
nodes = (
"784 0 LINE",
"750 338 LINE",
"721 338 LINE",
"721 338 OFFCURVE",
"721 88 OFFCURVE",
"519 88 CURVE SMOOTH",
"445 88 OFFCURVE",
"396 150 OFFCURVE",
"396 242 CURVE SMOOTH",
"396 279 OFFCURVE",
"416 300 OFFCURVE",
"450 300 CURVE SMOOTH",
"514 300 OFFCURVE",
"572 234 OFFCURVE",
"572 175 CURVE",
"601 175 LINE",
"601 525 LINE",
"572 525 LINE",
"572 466 OFFCURVE",
"514 401 OFFCURVE",
"450 401 CURVE SMOOTH",
"418 401 OFFCURVE",
"396 418 OFFCURVE",
"396 458 CURVE SMOOTH",
"396 550 OFFCURVE",
"445 612 OFFCURVE",
"519 612 CURVE SMOOTH",
"721 612 OFFCURVE",
"721 362 OFFCURVE",
"721 362 CURVE",
"750 362 LINE",
"784 700 LINE",
"25 700 LINE",
"25 671 LINE",
"151 671 OFFCURVE",
"214 511 OFFCURVE",
"214 350 CURVE SMOOTH",
"214 190 OFFCURVE",
"151 29 OFFCURVE",
"25 29 CURVE",
"25 0 LINE"
);
}
);
width = 809;
},
{
associatedMasterId = "0BD328E4-CA8F-4CB2-8877-C1BF962BF784";
layerId = "3E520C6A-59F5-4743-9D30-0B779DBD54CA";
name = "Mar 28 18, 16:58";
paths = (
{
closed = 1;
nodes = (
"707 308 OFFCURVE",
"654 155 OFFCURVE",
"429 155 CURVE",
"318 155 OFFCURVE",
"233 266 OFFCURVE",
"233 408 CURVE",
"233 489 OFFCURVE",
"291 593 OFFCURVE",
"421 593 CURVE",
"644 593 OFFCURVE",
"657 351 OFFCURVE",
"657 351 CURVE",
"688 351 LINE",
"723 700 LINE",
"723 700 OFFCURVE",
"723 700 OFFCURVE",
"617 700 CURVE",
"258 700 OFFCURVE",
"38 626 OFFCURVE",
"38 338 CURVE",
"38 1 OFFCURVE",
"277 -50 OFFCURVE",
"397 -50 CURVE",
"663 -50 OFFCURVE",
"740 295 OFFCURVE",
"740 295 CURVE",
"707 308 LINE"
);
}
);
width = 778;
}
);
leftKerningGroup = H;
unicode = 0045;
},
{
glyphname = F;
lastChange = "2020-11-12 11:43:15 +0000";
layers = (
{
anchors = (
{
name = bottom;
position = "{399, 0}";
},
{
name = top;
position = "{399, 700}";
}
);
layerId = "0BD328E4-CA8F-4CB2-8877-C1BF962BF784";
paths = (
{
closed = 1;
nodes = (
"568 0 LINE",
"568 30 LINE",
"568 30 OFFCURVE",
"385 30 OFFCURVE",
"385 243 CURVE SMOOTH",
"385 293 OFFCURVE",
"416 300 OFFCURVE",
"439 300 CURVE SMOOTH",
"503 300 OFFCURVE",
"562 234 OFFCURVE",
"562 175 CURVE",
"591 175 LINE",
"591 526 LINE",
"562 526 LINE",
"562 467 OFFCURVE",
"503 401 OFFCURVE",
"439 401 CURVE SMOOTH",
"412 401 OFFCURVE",
"385 417 OFFCURVE",
"385 452 CURVE",
"385 452 OFFCURVE",
"376 613 OFFCURVE",
"509 613 CURVE SMOOTH",
"710 613 OFFCURVE",
"710 363 OFFCURVE",
"710 363 CURVE",
"739 363 LINE",
"773 700 LINE",
"25 700 LINE",
"25 671 LINE",
"151 671 OFFCURVE",
"214 511 OFFCURVE",
"214 350 CURVE SMOOTH",
"214 190 OFFCURVE",
"151 29 OFFCURVE",
"25 29 CURVE",
"25 0 LINE"
);
}
);
width = 798;
}
);
leftKerningGroup = H;
rightKerningGroup = F;
unicode = 0046;
},
{
glyphname = G;
lastChange = "2021-02-15 15:00:22 +0000";
layers = (
{
anchors = (
{
name = bottom;
position = "{403, 0}";
},
{
name = top;
position = "{443, 700}";
}
);
layerId = "0BD328E4-CA8F-4CB2-8877-C1BF962BF784";
paths = (
{
closed = 1;
nodes = (
"304 464 LINE",
"333 250 LINE",
"352 250 LINE",
"352 309 OFFCURVE",
"387 387 OFFCURVE",
"482 387 CURVE",
"532 387 OFFCURVE",
"586 351 OFFCURVE",
"586 290 CURVE",
"586 209 OFFCURVE",
"513 155 OFFCURVE",
"423 155 CURVE",
"284 155 OFFCURVE",
"219 259 OFFCURVE",
"219 378 CURVE",
"219 500 OFFCURVE",
"301 586 OFFCURVE",
"414 586 CURVE",
"626 586 OFFCURVE",
"704 452 OFFCURVE",
"704 351 CURVE",
"734 351 LINE",
"770 700 LINE",
"604 700 LINE SMOOTH",
"284 700 OFFCURVE",
"25 626 OFFCURVE",
"25 338 CURVE",
"25 90 OFFCURVE",
"223 -22 OFFCURVE",
"402 -22 CURVE",
"568 -22 OFFCURVE",
"709 81 OFFCURVE",
"709 209 CURVE",
"709 361 OFFCURVE",
"607 464 OFFCURVE",
"378 464 CURVE SMOOTH"
);
}
);
width = 795;
},
{
associatedMasterId = "0BD328E4-CA8F-4CB2-8877-C1BF962BF784";
layerId = "8A84705A-CC05-4E93-834C-70AD3B87060C";
name = "Mar 13 18, 16:57";
paths = (
{
closed = 1;
nodes = (
"769 473 LINE",
"391 473 LINE",
"391 444 LINE",
"391 444 OFFCURVE",
"564 444 OFFCURVE",
"564 334 CURVE",
"564 236 OFFCURVE",
"442 222 OFFCURVE",
"406 222 CURVE",
"280 222 OFFCURVE",
"208 296 OFFCURVE",
"208 403 CURVE",
"208 512 OFFCURVE",
"284 591 OFFCURVE",
"415 591 CURVE",
"539 591 OFFCURVE",
"566 548 OFFCURVE",
"566 502 CURVE",
"595 502 LINE",
"639 700 LINE",
"639 700 OFFCURVE",
"626 700 OFFCURVE",
"577 700 CURVE",
"302 700 OFFCURVE",
"38 598 OFFCURVE",
"38 340 CURVE",
"38 155 OFFCURVE",
"188 0 OFFCURVE",
"374 0 CURVE",
"494 0 OFFCURVE",
"769 1 OFFCURVE",
"769 1 CURVE",
"769 31 LINE",
"769 31 OFFCURVE",
"686 31 OFFCURVE",
"685 231 CURVE",
"684 444 OFFCURVE",
"769 444 OFFCURVE",
"769 444 CURVE"
);
}
);
width = 807;
},
{
associatedMasterId = "0BD328E4-CA8F-4CB2-8877-C1BF962BF784";
layerId = "CFAC0A6F-6FA5-4E34-BF51-ECCD145363FB";
name = "Mar 14 18, 14:22";
paths = (
{
closed = 1;
nodes = (
"287 434 LINE",
"287 434 OFFCURVE",
"560 434 OFFCURVE",
"560 320 CURVE",
"560 234 OFFCURVE",
"492 204 OFFCURVE",
"419 204 CURVE",
"289 204 OFFCURVE",
"203 289 OFFCURVE",
"203 408 CURVE",
"203 488 OFFCURVE",
"265 586 OFFCURVE",
"398 586 CURVE",
"687 586 OFFCURVE",
"687 350 OFFCURVE",
"687 350 CURVE",
"717 350 LINE",
"763 700 LINE",
"763 700 OFFCURVE",
"753 700 OFFCURVE",
"647 700 CURVE",
"287 700 OFFCURVE",
"38 626 OFFCURVE",
"38 337 CURVE",
"38 0 OFFCURVE",
"337 -60 OFFCURVE",
"457 -60 CURVE",
"583 -60 OFFCURVE",
"719 -23 OFFCURVE",
"719 149 CURVE",
"719 321 OFFCURVE",
"578 464 OFFCURVE",
"578 464 CURVE",
"287 464 LINE"
);
}
);
width = 801;
},
{
associatedMasterId = "0BD328E4-CA8F-4CB2-8877-C1BF962BF784";
layerId = "8AD5D374-9C81-4126-8888-1CBB522E82AA";
name = "Mar 30 18, 22:58";
paths = (
{
closed = 1;
nodes = (
"317 464 OFFCURVE",
"293 464 OFFCURVE",
"287 464 CURVE",
"316 250 LINE",
"335 250 LINE",
"335 309 OFFCURVE",
"370 387 OFFCURVE",
"465 387 CURVE",
"515 387 OFFCURVE",
"569 351 OFFCURVE",
"569 290 CURVE",
"569 229 OFFCURVE",
"536 155 OFFCURVE",
"426 155 CURVE",
"267 155 OFFCURVE",
"202 289 OFFCURVE",
"202 408 CURVE",
"202 488 OFFCURVE",
"264 586 OFFCURVE",
"397 586 CURVE",
"609 586 OFFCURVE",
"687 452 OFFCURVE",
"687 351 CURVE",
"717 351 LINE",
"753 700 LINE",
"741 700 OFFCURVE",
"703 700 OFFCURVE",
"647 700 CURVE",
"287 700 OFFCURVE",
"38 626 OFFCURVE",
"38 338 CURVE",
"38 40 OFFCURVE",
"267 -22 OFFCURVE",
"406 -22 CURVE",
"590 -22 OFFCURVE",
"702 60 OFFCURVE",
"702 199 CURVE",
"702 371 OFFCURVE",
"590 464 OFFCURVE",
"361 464 CURVE"
);
}
);
width = 791;
}
);
leftKerningGroup = O;
rightKerningGroup = G;
unicode = 0047;
},
{
glyphname = H;
lastChange = "2021-02-22 12:30:42 +0000";
layers = (
{
anchors = (
{
name = bottom;
position = "{489, 0}";
},
{
name = center;
position = "{489, 350}";
},
{
name = top;
position = "{489, 700}";
},
{
name = topleft;
position = "{25, 700}";
}
);
layerId = "0BD328E4-CA8F-4CB2-8877-C1BF962BF784";
paths = (
{
closed = 1;
nodes = (
"478 0 LINE",
"478 29 LINE",
"448 29 OFFCURVE",
"381 58 OFFCURVE",
"381 155 CURVE SMOOTH",
"381 262 OFFCURVE",
"447 281 OFFCURVE",
"489 282 CURVE SMOOTH",
"531 281 OFFCURVE",
"597 262 OFFCURVE",
"597 155 CURVE SMOOTH",
"597 58 OFFCURVE",
"530 29 OFFCURVE",
"500 29 CURVE",
"500 0 LINE",
"963 0 LINE",
"963 29 LINE",
"837 29 OFFCURVE",
"774 190 OFFCURVE",
"774 350 CURVE SMOOTH",
"774 511 OFFCURVE",
"837 671 OFFCURVE",
"963 671 CURVE",
"963 700 LINE",
"500 700 LINE",
"500 671 LINE",
"530 671 OFFCURVE",
"597 642 OFFCURVE",
"597 544 CURVE SMOOTH",
"597 438 OFFCURVE",
"531 418 OFFCURVE",
"489 418 CURVE SMOOTH",
"447 418 OFFCURVE",
"381 438 OFFCURVE",
"381 544 CURVE SMOOTH",
"381 642 OFFCURVE",
"448 671 OFFCURVE",
"478 671 CURVE",
"478 700 LINE",
"25 700 LINE",
"25 671 LINE",
"151 671 OFFCURVE",
"214 511 OFFCURVE",
"214 350 CURVE SMOOTH",
"214 190 OFFCURVE",
"151 29 OFFCURVE",
"25 29 CURVE",
"25 0 LINE"
);
}
);
width = 988;
}
);
leftKerningGroup = H;
rightKerningGroup = H;
unicode = 0048;
},
{
glyphname = Hbar;
lastChange = "2018-10-09 20:34:04 +0000";
layers = (
{
layerId = "0BD328E4-CA8F-4CB2-8877-C1BF962BF784";
paths = (
{
closed = 1;
nodes = (
"473 0 LINE",
"473 29 LINE",
"473 29 OFFCURVE",
"376 29 OFFCURVE",
"376 156 CURVE SMOOTH",
"376 255 OFFCURVE",
"443 281 OFFCURVE",
"485 281 CURVE SMOOTH",
"527 281 OFFCURVE",
"597 255 OFFCURVE",
"594 159 CURVE SMOOTH",
"594 29 OFFCURVE",
"497 29 OFFCURVE",
"497 29 CURVE",
"497 0 LINE",
"949 0 LINE",
"949 29 LINE",
"949 29 OFFCURVE",
"760 34 OFFCURVE",
"760 350 CURVE SMOOTH",
"760 407.136 OFFCURVE",
"766.218 454.105 OFFCURVE",
"776.399 492.717 CURVE",
"904 484.127 OFFCURVE",
"904 471 OFFCURVE",
"904 471 CURVE",
"933 471 LINE",
"933 596 LINE",
"904 596 LINE SMOOTH",
"904 596 OFFCURVE",
"904 585.39 OFFCURVE",
"811.271 577.005 CURVE",
"867.241 668.404 OFFCURVE",
"949 671 OFFCURVE",
"949 671 CURVE",
"949 700 LINE",
"497 700 LINE",
"497 671 LINE",
"497 671 OFFCURVE",
"579.782 671 OFFCURVE",
"592.396 567.721 CURVE",
"560.068 567.256 OFFCURVE",
"524.385 567 OFFCURVE",
"485 567 CURVE SMOOTH",
"377.323 567.725 LINE",
"388.932 671 OFFCURVE",
"473 671 OFFCURVE",
"473 671 CURVE",
"473 700 LINE",
"20 700 LINE",
"20 671 LINE",
"20 671 OFFCURVE",
"102.176 668.405 OFFCURVE",
"158.441 577.031 CURVE",
"66 585.412 OFFCURVE",
"66 596 OFFCURVE",
"66 596 CURVE SMOOTH",
"37 596 LINE",
"37 471 LINE",
"66 471 LINE",
"66 471 OFFCURVE",
"66 484.121 OFFCURVE",
"193.516 492.711 CURVE",
"203.75 454.101 OFFCURVE",
"210 407.133 OFFCURVE",
"210 350 CURVE SMOOTH",
"210 34 OFFCURVE",
"20 29 OFFCURVE",
"20 29 CURVE",
"20 0 LINE"
);
},
{
closed = 1;
nodes = (
"412.616 499.763 OFFCURVE",
"447.093 500 OFFCURVE",
"485 500 CURVE SMOOTH",
"589.284 499.323 LINE",
"573.317 436.386 OFFCURVE",
"520.319 418 OFFCURVE",
"485 418 CURVE SMOOTH",
"450.071 418 OFFCURVE",
"397.851 436.674 OFFCURVE",
"381.258 499.331 CURVE"
);
}
);
width = 969;
}
);
unicode = 0126;
},
{
glyphname = I;
lastChange = "2020-11-17 23:24:16 +0000";
layers = (
{
anchors = (
{
name = bottom;
position = "{312, 0}";
},
{
name = ogonek;
position = "{536, 10}";
},
{
name = top;
position = "{302, 700}";
},
{
name = topleft;
position = "{30, 700}";
}
);
guideLines = (
{
angle = 90;
position = "{385, 350}";
},
{
angle = 90;
position = "{219, 350}";
}
);
layerId = "0BD328E4-CA8F-4CB2-8877-C1BF962BF784";
paths = (
{
closed = 1;
nodes = (
"579 0 LINE",
"579 29 LINE",
"463 29 OFFCURVE",
"385 157 OFFCURVE",
"385 350 CURVE SMOOTH",
"385 543 OFFCURVE",
"463 671 OFFCURVE",
"579 671 CURVE",
"579 700 LINE",
"25 700 LINE",
"25 671 LINE",
"141 671 OFFCURVE",
"219 543 OFFCURVE",
"219 350 CURVE SMOOTH",
"219 157 OFFCURVE",
"141 29 OFFCURVE",
"25 29 CURVE",
"25 0 LINE"
);
}
);
width = 604;
}
);
leftKerningGroup = H;
rightKerningGroup = H;
unicode = 0049;
},
{
glyphname = IJ;
lastChange = "2019-06-28 15:11:06 +0000";
layers = (
{
anchors = (
{
name = bottom;
position = "{539, 0}";
},
{
name = ogonek;
position = "{168, 10}";
},
{
name = top;
position = "{539, 700}";
},
{
name = topleft;
position = "{22, 700}";
}
);
layerId = "0BD328E4-CA8F-4CB2-8877-C1BF962BF784";
paths = (
{
closed = 1;
nodes = (
"45 671 OFFCURVE",
"159 671 OFFCURVE",
"159 515 CURVE",
"159 378 OFFCURVE",
"25 378 OFFCURVE",
"25 378 CURVE",
"25 349 LINE",
"469 349 LINE",
"469 378 LINE",
"469 378 OFFCURVE",
"325 378 OFFCURVE",
"325 515 CURVE",
"325 671 OFFCURVE",
"439 671 OFFCURVE",
"469 671 CURVE",
"469 700 LINE",
"25 700 LINE",
"25 671 LINE"
);
},
{
closed = 1;
nodes = (
"336 320 OFFCURVE",
"159 303 OFFCURVE",
"159 155 CURVE",
"159 27 OFFCURVE",
"279 -50 OFFCURVE",
"435 -50 CURVE SMOOTH",
"577 -50 OFFCURVE",
"827 39 OFFCURVE",
"827 371 CURVE SMOOTH",
"827 436 LINE SMOOTH",
"827 630 OFFCURVE",
"874 670 OFFCURVE",
"916 670 CURVE",
"916 700 LINE",
"494 700 LINE",
"494 670 LINE",
"494 670 OFFCURVE",
"635 670 OFFCURVE",
"635 416 CURVE SMOOTH",
"635 268 OFFCURVE",
"592 155 OFFCURVE",
"465 155 CURVE SMOOTH",
"385 155 OFFCURVE",
"364 192 OFFCURVE",
"364 221 CURVE SMOOTH",
"364 290 OFFCURVE",
"469 290 OFFCURVE",
"469 290 CURVE",
"469 320 LINE"
);
}
);
width = 941;
},
{
associatedMasterId = "0BD328E4-CA8F-4CB2-8877-C1BF962BF784";
components = (
{
name = I;
},
{
name = J;
transform = "{1, 0, 0, 1, 554, 0}";
}
);
layerId = "84CB6383-B1C5-409B-9684-5931A3EEF59D";
name = "Apr 25 19, 18:00";
width = 1319;
},
{
anchors = (
{
name = bottom;
position = "{902, 0}";
},
{
name = ogonek;
position = "{531, 10}";
},
{
name = top;
position = "{902, 700}";
},
{
name = topleft;
position = "{25, 700}";
}
);
associatedMasterId = "0BD328E4-CA8F-4CB2-8877-C1BF962BF784";
layerId = "9A020019-C26B-4AAB-9DB8-0A95AF48568D";
name = "Apr 25 19, 18:08";
paths = (
{
closed = 1;
nodes = (
"403 671 OFFCURVE",
"527 671 OFFCURVE",
"527 515 CURVE",
"527 368 OFFCURVE",
"383 368 OFFCURVE",
"383 368 CURVE",
"383 339 LINE",
"837 339 LINE",
"837 368 LINE",
"837 368 OFFCURVE",
"693 368 OFFCURVE",
"693 515 CURVE",
"693 671 OFFCURVE",
"807 671 OFFCURVE",
"837 671 CURVE",
"837 700 LINE",
"383 700 LINE",
"383 671 LINE"
);
},
{
closed = 1;
nodes = (
"857 670 LINE",
"857 670 OFFCURVE",
"998 670 OFFCURVE",
"998 416 CURVE",
"998 268 OFFCURVE",
"915 155 OFFCURVE",
"828 155 CURVE",
"738 155 OFFCURVE",
"727 192 OFFCURVE",
"727 221 CURVE",
"554 171 LINE",
"554 23 OFFCURVE",
"682 -50 OFFCURVE",
"828 -50 CURVE",
"970 -50 OFFCURVE",
"1190 39 OFFCURVE",
"1190 371 CURVE",
"1190 392 OFFCURVE",
"1190 414 OFFCURVE",
"1190 436 CURVE",
"1190 630 OFFCURVE",
"1237 670 OFFCURVE",
"1279 670 CURVE",
"1279 700 LINE",
"857 700 LINE"
);
},
{
closed = 1;
nodes = (
"727 221 LINE",
"727 290 OFFCURVE",
"795 290 OFFCURVE",
"837 290 CURVE",
"837 320 LINE",
"383 320 LINE",
"383 290 LINE",
"383 290 OFFCURVE",
"554 260 OFFCURVE",
"554 171 CURVE"
);
}
);
width = 1299;
},
{
anchors = (
{
name = bottom;
position = "{902, 0}";
},
{
name = ogonek;
position = "{531, 10}";
},
{
name = top;
position = "{902, 700}";
},
{
name = topleft;
position = "{385, 700}";
}
);
associatedMasterId = "0BD328E4-CA8F-4CB2-8877-C1BF962BF784";
layerId = "0C83A023-EE01-4E7D-AF2E-C5AF0DF93713";
name = "Apr 25 19, 18:13";
paths = (
{
closed = 1;
nodes = (
"408 671 OFFCURVE",
"522 671 OFFCURVE",
"522 515 CURVE",
"522 378 OFFCURVE",
"388 378 OFFCURVE",
"388 378 CURVE",
"388 349 LINE",
"832 349 LINE",
"832 378 LINE",
"832 378 OFFCURVE",
"688 378 OFFCURVE",
"688 515 CURVE",
"688 671 OFFCURVE",
"802 671 OFFCURVE",
"832 671 CURVE",
"832 700 LINE",
"388 700 LINE",
"388 671 LINE"
);
},
{
closed = 1;
nodes = (
"388 290 OFFCURVE",
"522 290 OFFCURVE",
"522 155 CURVE SMOOTH",
"522 27 OFFCURVE",
"682 -50 OFFCURVE",
"828 -50 CURVE SMOOTH",
"970 -50 OFFCURVE",
"1190 39 OFFCURVE",
"1190 371 CURVE SMOOTH",
"1190 436 LINE SMOOTH",
"1190 630 OFFCURVE",
"1237 670 OFFCURVE",
"1279 670 CURVE",
"1279 700 LINE",
"857 700 LINE",
"857 670 LINE",
"857 670 OFFCURVE",
"998 670 OFFCURVE",
"998 416 CURVE SMOOTH",
"998 268 OFFCURVE",
"955 155 OFFCURVE",
"828 155 CURVE SMOOTH",
"748 155 OFFCURVE",
"727 192 OFFCURVE",
"727 221 CURVE SMOOTH",
"727 290 OFFCURVE",
"832 290 OFFCURVE",
"832 290 CURVE",
"832 320 LINE",
"388 320 LINE",
"388 290 LINE"
);
}
);
width = 1299;
}
);
leftKerningGroup = IJ;
rightKerningGroup = J;
unicode = 0132;
},
{
glyphname = J;
lastChange = "2021-02-15 15:03:07 +0000";
layers = (
{
anchors = (
{
name = bottom;
position = "{363, 0}";
},
{
name = top;
position = "{363, 700}";
}
);
layerId = "0BD328E4-CA8F-4CB2-8877-C1BF962BF784";
paths = (
{
closed = 1;
nodes = (
"288 670 LINE",
"391 670 OFFCURVE",
"459 568 OFFCURVE",
"459 416 CURVE SMOOTH",
"459 284 OFFCURVE",
"405 155 OFFCURVE",
"294 155 CURVE SMOOTH",
"237 155 OFFCURVE",
"188 195 OFFCURVE",
"188 266 CURVE SMOOTH",
"188 414 OFFCURVE",
"398 434 OFFCURVE",
"398 434 CURVE",
"398 464 LINE",
"351 464 OFFCURVE",
"15 470 OFFCURVE",
"15 201 CURVE SMOOTH",
"15 53 OFFCURVE",
"143 -50 OFFCURVE",
"289 -50 CURVE SMOOTH",
"431 -50 OFFCURVE",
"651 39 OFFCURVE",
"651 371 CURVE SMOOTH",
"651 436 LINE SMOOTH",
"651 630 OFFCURVE",
"698 670 OFFCURVE",
"740 670 CURVE",
"740 700 LINE",
"288 700 LINE"
);
}
);
width = 765;
},
{
associatedMasterId = "0BD328E4-CA8F-4CB2-8877-C1BF962BF784";
layerId = "83FBD8EB-51BD-43A0-A047-6BCC2C0396A2";
name = "Mar 22 18, 10:22";
paths = (
{
closed = 1;
nodes = (
"311 670 LINE",
"311 670 OFFCURVE",
"482 670 OFFCURVE",
"482 416 CURVE",
"482 268 OFFCURVE",
"419 182 OFFCURVE",
"342 182 CURVE",
"302 182 OFFCURVE",
"251 204 OFFCURVE",
"251 286 CURVE",
"251 434 OFFCURVE",
"401 434 OFFCURVE",
"401 434 CURVE",
"401 464 LINE",
"354 464 OFFCURVE",
"38 470 OFFCURVE",
"38 201 CURVE",
"38 53 OFFCURVE",
"159 -60 OFFCURVE",
"305 -60 CURVE",
"501 -60 OFFCURVE",
"664 71 OFFCURVE",
"664 416 CURVE",
"664 670 OFFCURVE",
"733 670 OFFCURVE",
"733 670 CURVE",
"733 700 LINE",
"311 700 LINE"
);
}
);
width = 771;
},
{
anchors = (
{
name = bottom;
position = "{363, 0}";
},
{
name = top;
position = "{363, 700}";
}
);
associatedMasterId = "0BD328E4-CA8F-4CB2-8877-C1BF962BF784";
layerId = "5A3C3F5A-3CA6-4F15-A38C-2A55EBC701BA";
name = "Feb 15 21, 16:01";
paths = (
{
closed = 1;
nodes = (
"288 670 LINE",
"288 670 OFFCURVE",
"459 670 OFFCURVE",
"459 416 CURVE SMOOTH",
"459 268 OFFCURVE",
"376 155 OFFCURVE",
"289 155 CURVE SMOOTH",
"249 155 OFFCURVE",
"188 187 OFFCURVE",
"188 266 CURVE SMOOTH",
"188 414 OFFCURVE",
"398 434 OFFCURVE",
"398 434 CURVE",
"398 464 LINE",
"351 464 OFFCURVE",
"15 470 OFFCURVE",
"15 201 CURVE SMOOTH",
"15 53 OFFCURVE",
"143 -50 OFFCURVE",
"289 -50 CURVE SMOOTH",
"431 -50 OFFCURVE",
"651 39 OFFCURVE",
"651 371 CURVE SMOOTH",
"651 436 LINE SMOOTH",
"651 630 OFFCURVE",
"698 670 OFFCURVE",
"740 670 CURVE",
"740 700 LINE",
"288 700 LINE"
);
}
);
width = 765;
}
);
leftKerningGroup = J;
rightKerningGroup = J;
unicode = 004A;
},
{
glyphname = K;
lastChange = "2021-02-15 15:03:33 +0000";
layers = (
{
anchors = (
{
name = bottom;
position = "{435, 0}";
},
{
name = top;
position = "{435, 700}";
}
);
layerId = "0BD328E4-CA8F-4CB2-8877-C1BF962BF784";
paths = (
{
closed = 1;
nodes = (
"477 0 LINE",
"477 29 LINE",
"477 29 OFFCURVE",
"381 29 OFFCURVE",
"381 276 CURVE",
"484 276 OFFCURVE",
"536 145 OFFCURVE",
"536 87 CURVE SMOOTH",
"536 29 OFFCURVE",
"502 29 OFFCURVE",
"502 29 CURVE",
"502 0 LINE",
"894 0 LINE",
"894 29 LINE",
"776 29 OFFCURVE",
"684 235 OFFCURVE",
"611 332 CURVE",
"671 500 OFFCURVE",
"806 671 OFFCURVE",
"894 671 CURVE",
"894 700 LINE",
"492 700 LINE",
"492 671 LINE",
"492 671 OFFCURVE",
"539 671 OFFCURVE",
"539 565 CURVE SMOOTH",
"539 476 OFFCURVE",
"493 388 OFFCURVE",
"450 388 CURVE SMOOTH",
"404 388 OFFCURVE",
"380 436 OFFCURVE",
"380 508 CURVE SMOOTH",
"380 671 OFFCURVE",
"467 671 OFFCURVE",
"467 671 CURVE",
"467 700 LINE",
"25 700 LINE",
"25 671 LINE",
"151 671 OFFCURVE",
"214 511 OFFCURVE",
"214 350 CURVE SMOOTH",
"214 190 OFFCURVE",
"151 29 OFFCURVE",
"25 29 CURVE",
"25 0 LINE"
);
}
);
width = 919;
},
{
associatedMasterId = "0BD328E4-CA8F-4CB2-8877-C1BF962BF784";
layerId = "E47CE6D5-4743-4D16-BC61-3F315248AD13";
name = "Mar 20 18, 14:45";
paths = (
{
closed = 1;
nodes = (
"590 451 OFFCURVE",
"819 671 OFFCURVE",
"902 671 CURVE",
"902 685 OFFCURVE",
"902 700 OFFCURVE",
"902 700 CURVE",
"515 700 LINE",
"515 671 LINE",
"515 671 OFFCURVE",
"543 671 OFFCURVE",
"543 555 CURVE",
"543 502 OFFCURVE",
"526 389 OFFCURVE",
"464 389 CURVE",
"427 389 OFFCURVE",
"394 446 OFFCURVE",
"394 508 CURVE",
"394 671 OFFCURVE",
"491 671 OFFCURVE",
"491 671 CURVE",
"491 700 LINE",
"38 700 LINE",
"38 671 LINE",
"38 671 OFFCURVE",
"228 671 OFFCURVE",
"228 350 CURVE",
"228 29 OFFCURVE",
"38 29 OFFCURVE",
"38 29 CURVE",
"38 0 LINE",
"491 0 LINE",
"491 29 LINE",
"491 29 OFFCURVE",
"394 29 OFFCURVE",
"394 286 CURVE",
"498 286 OFFCURVE",
"550 145 OFFCURVE",
"550 87 CURVE",
"550 29 OFFCURVE",
"516 29 OFFCURVE",
"516 29 CURVE",
"516 0 LINE",
"902 0 LINE",
"902 29 LINE",
"748 29 OFFCURVE",
"643 208 OFFCURVE",
"570 311 CURVE"
);
}
);
width = 940;
},
{
anchors = (
{
name = bottom;
position = "{430, 0}";
},
{
name = top;
position = "{430, 700}";
}
);
associatedMasterId = "0BD328E4-CA8F-4CB2-8877-C1BF962BF784";
layerId = "932D2CB2-F707-4053-8FEE-CC3C3FB7823F";
name = "Oct 15 18, 16:00";
paths = (
{
closed = 1;
nodes = (
"572 451 OFFCURVE",
"756 671 OFFCURVE",
"839 671 CURVE",
"839 685 OFFCURVE",
"839 700 OFFCURVE",
"839 700 CURVE",
"497 700 LINE",
"497 671 LINE",
"497 671 OFFCURVE",
"524 671 OFFCURVE",
"524 555 CURVE",
"524 502 OFFCURVE",
"508 388 OFFCURVE",
"445 388 CURVE",
"409 388 OFFCURVE",
"375 446 OFFCURVE",
"375 508 CURVE",
"375 671 OFFCURVE",
"472 671 OFFCURVE",
"472 671 CURVE",
"472 700 LINE",
"20 700 LINE",
"20 671 LINE",
"20 671 OFFCURVE",
"209 671 OFFCURVE",
"209 350 CURVE",
"209 29 OFFCURVE",
"20 29 OFFCURVE",
"20 29 CURVE",
"20 0 LINE",
"472 0 LINE",
"472 29 LINE",
"472 29 OFFCURVE",
"376 29 OFFCURVE",
"376 286 CURVE",
"479 286 OFFCURVE",
"531 145 OFFCURVE",
"531 87 CURVE",
"531 29 OFFCURVE",
"497 29 OFFCURVE",
"497 29 CURVE",
"497 0 LINE",
"839 0 LINE",
"839 29 LINE",
"729 29 OFFCURVE",
"624 208 OFFCURVE",
"551 311 CURVE"
);
}
);
width = 859;
},
{
anchors = (
{
name = bottom;
position = "{430, 0}";
},
{
name = top;
position = "{430, 700}";
}
);
associatedMasterId = "0BD328E4-CA8F-4CB2-8877-C1BF962BF784";
layerId = "2F90E0AF-22AF-4559-9FDC-5D5249061CE8";
name = "Oct 15 18, 16:03";
paths = (
{
closed = 1;
nodes = (
"612 451 OFFCURVE",
"796 671 OFFCURVE",
"879 671 CURVE",
"879 685 OFFCURVE",
"879 700 OFFCURVE",
"879 700 CURVE",
"497 700 LINE",
"497 671 LINE",
"497 671 OFFCURVE",
"544 671 OFFCURVE",
"544 545 CURVE",
"544 452 OFFCURVE",
"508 388 OFFCURVE",
"455 388 CURVE",
"399 388 OFFCURVE",
"375 436 OFFCURVE",
"375 508 CURVE",
"375 671 OFFCURVE",
"472 671 OFFCURVE",
"472 671 CURVE",
"472 700 LINE",
"20 700 LINE",
"20 671 LINE",
"20 671 OFFCURVE",
"209 671 OFFCURVE",
"209 350 CURVE",
"209 29 OFFCURVE",
"20 29 OFFCURVE",
"20 29 CURVE",
"20 0 LINE",
"472 0 LINE",
"472 29 LINE",
"472 29 OFFCURVE",
"376 29 OFFCURVE",
"376 286 CURVE",
"479 286 OFFCURVE",
"531 145 OFFCURVE",
"531 87 CURVE",
"531 29 OFFCURVE",
"497 29 OFFCURVE",
"497 29 CURVE",
"497 0 LINE",
"879 0 LINE",
"879 29 LINE",
"769 29 OFFCURVE",
"664 208 OFFCURVE",
"591 311 CURVE"
);
}
);
width = 899;
}
);
leftKerningGroup = H;
rightKerningGroup = K;
unicode = 004B;
},
{
glyphname = L;
lastChange = "2021-02-15 15:04:04 +0000";
layers = (
{
anchors = (
{
name = bottom;
position = "{399, 0}";
},
{
name = center;
position = "{399, 350}";
},
{
name = top;
position = "{309, 700}";
},
{
name = topright;
position = "{763, 700}";
}
);
layerId = "0BD328E4-CA8F-4CB2-8877-C1BF962BF784";
paths = (
{
closed = 1;
nodes = (
"763 0 LINE",
"729 451 LINE",
"700 451 LINE",
"700 451 OFFCURVE",
"700 88 OFFCURVE",
"534 88 CURVE SMOOTH",
"414 88 OFFCURVE",
"391 255 OFFCURVE",
"391 350 CURVE SMOOTH",
"391 511 OFFCURVE",
"452 671 OFFCURVE",
"578 671 CURVE",
"578 700 LINE",
"25 700 LINE",
"25 671 LINE",
"151 671 OFFCURVE",
"214 511 OFFCURVE",
"214 350 CURVE SMOOTH",
"214 190 OFFCURVE",
"151 29 OFFCURVE",
"25 29 CURVE",
"25 0 LINE"
);
}
);
width = 788;
},
{
associatedMasterId = "0BD328E4-CA8F-4CB2-8877-C1BF962BF784";
layerId = "92961C31-2ECE-4643-B289-C17E8DAC53F9";
name = "Sep 30 18, 15:10";
paths = (
{
closed = 1;
nodes = (
"745 451 LINE",
"745 451 OFFCURVE",
"765 88 OFFCURVE",
"539 88 CURVE",
"419 88 OFFCURVE",
"376 255 OFFCURVE",
"376 350 CURVE",
"376 665 OFFCURVE",
"563 671 OFFCURVE",
"563 671 CURVE",
"563 700 LINE",
"20 700 LINE",
"20 671 LINE",
"20 671 OFFCURVE",
"209 665 OFFCURVE",
"209 350 CURVE",
"209 34 OFFCURVE",
"20 29 OFFCURVE",
"20 29 CURVE",
"20 0 LINE",
"808 0 LINE",
"774 451 LINE"
);
}
);
width = 828;
}
);
leftKerningGroup = H;
rightKerningGroup = L;
unicode = 004C;
},
{
glyphname = Lslash;
lastChange = "2019-06-28 15:11:51 +0000";
layers = (
{
layerId = "0BD328E4-CA8F-4CB2-8877-C1BF962BF784";
paths = (
{
closed = 1;
nodes = (
"703 451 LINE",
"703 451 OFFCURVE",
"703 88 OFFCURVE",
"537 88 CURVE",
"417 88 OFFCURVE",
"394 255 OFFCURVE",
"394 350 CURVE",
"394 665 OFFCURVE",
"581 671 OFFCURVE",
"581 671 CURVE",
"581 700 LINE",
"28 700 LINE",
"28 671 LINE",
"28 671 OFFCURVE",
"217 665 OFFCURVE",
"217 350 CURVE",
"217 34 OFFCURVE",
"28 29 OFFCURVE",
"28 29 CURVE",
"28 0 LINE",
"766 0 LINE",
"732 451 LINE"
);
},
{
closed = 1;
nodes = (
"25 291 LINE",
"85 159 LINE",
"112 172 LINE",
"112 172 OFFCURVE",
"99 197 OFFCURVE",
"334 307 CURVE",
"569 416 OFFCURVE",
"581 391 OFFCURVE",
"581 391 CURVE",
"608 402 LINE",
"547 534 LINE",
"520 521 LINE",
"520 521 OFFCURVE",
"532 496 OFFCURVE",
"297 386 CURVE",
"63 277 OFFCURVE",
"50 302 OFFCURVE",
"50 302 CURVE"
);
}
);
width = 791;
}
);
rightKerningGroup = L;
unicode = 0141;
},
{
glyphname = M;
lastChange = "2021-02-15 14:54:18 +0000";
layers = (
{
anchors = (
{
name = bottom;
position = "{512, 0}";
},
{
name = top;
position = "{512, 700}";
}
);
layerId = "0BD328E4-CA8F-4CB2-8877-C1BF962BF784";
paths = (
{
closed = 1;
nodes = (
"476 0 LINE",
"476 29 LINE",
"476 29 OFFCURVE",
"362 29 OFFCURVE",
"362 197 CURVE SMOOTH",
"362 279 OFFCURVE",
"389 334 OFFCURVE",
"429 334 CURVE SMOOTH",
"487 334 OFFCURVE",
"501 201 OFFCURVE",
"501 1 CURVE",
"523 1 LINE",
"523 201 OFFCURVE",
"537 334 OFFCURVE",
"595 334 CURVE SMOOTH",
"636 334 OFFCURVE",
"663 279 OFFCURVE",
"663 197 CURVE SMOOTH",
"663 29 OFFCURVE",
"548 29 OFFCURVE",
"548 29 CURVE",
"548 0 LINE",
"1009 0 LINE",
"1009 29 LINE",
"883 29 OFFCURVE",
"820 190 OFFCURVE",
"820 350 CURVE SMOOTH",
"820 511 OFFCURVE",
"883 671 OFFCURVE",
"1009 671 CURVE",
"1009 700 LINE",
"524 700 LINE",
"524 671 LINE",
"558 671 OFFCURVE",
"580 643 OFFCURVE",
"580 600 CURVE SMOOTH",
"580 540 OFFCURVE",
"512 446 OFFCURVE",
"512 446 CURVE",
"512 446 OFFCURVE",
"444 540 OFFCURVE",
"444 600 CURVE SMOOTH",
"444 643 OFFCURVE",
"466 671 OFFCURVE",
"500 671 CURVE",
"500 700 LINE",
"25 700 LINE",
"25 671 LINE",
"151 671 OFFCURVE",
"214 511 OFFCURVE",
"214 350 CURVE SMOOTH",
"214 190 OFFCURVE",
"151 29 OFFCURVE",
"25 29 CURVE",
"25 0 LINE"
);
}
);
width = 1034;
},
{
associatedMasterId = "0BD328E4-CA8F-4CB2-8877-C1BF962BF784";
layerId = "9A67219C-A26F-4627-B7C0-647C499FDF65";
name = "Mar 28 18, 15:51";
paths = (
{
closed = 1;
nodes = (
"1012 700 LINE",
"537 700 LINE",
"537 671 LINE",
"537 671 OFFCURVE",
"593 671 OFFCURVE",
"593 600 CURVE",
"593 540 OFFCURVE",
"525 446 OFFCURVE",
"525 446 CURVE",
"525 446 OFFCURVE",
"457 540 OFFCURVE",
"457 600 CURVE",
"457 671 OFFCURVE",
"513 671 OFFCURVE",
"513 671 CURVE",
"513 700 LINE",
"38 700 LINE",
"38 671 LINE",
"38 671 OFFCURVE",
"228 671 OFFCURVE",
"228 350 CURVE",
"228 29 OFFCURVE",
"39 29 OFFCURVE",
"39 29 CURVE",
"39 0 LINE",
"489 0 LINE",
"489 29 LINE",
"489 29 OFFCURVE",
"395 29 OFFCURVE",
"395 197 CURVE",
"395 255 OFFCURVE",
"396 334 OFFCURVE",
"442 334 CURVE",
"514 334 OFFCURVE",
"514 1 OFFCURVE",
"514 1 CURVE",
"536 1 LINE",
"536 1 OFFCURVE",
"536 334 OFFCURVE",
"608 334 CURVE",
"654 334 OFFCURVE",
"656 255 OFFCURVE",
"656 197 CURVE",
"656 29 OFFCURVE",
"561 29 OFFCURVE",
"561 29 CURVE",
"561 0 LINE",
"1012 0 LINE",
"1012 29 LINE",
"1012 29 OFFCURVE",
"822 29 OFFCURVE",
"822 350 CURVE",
"822 671 OFFCURVE",
"1012 671 OFFCURVE",
"1012 671 CURVE"
);
}
);
width = 1050;
},
{
anchors = (
{
name = bottom;
position = "{512, 0}";
},
{
name = top;
position = "{512, 700}";
}
);
associatedMasterId = "0BD328E4-CA8F-4CB2-8877-C1BF962BF784";
layerId = "203493FC-0948-49E7-9D7C-E2C4C380E619";
name = "Nov 12 20, 12:52";
paths = (
{
closed = 1;
nodes = (
"25 700 LINE",
"25 671 LINE",
"151 671 OFFCURVE",
"214 511 OFFCURVE",
"214 350 CURVE SMOOTH",
"214 190 OFFCURVE",
"151 29 OFFCURVE",
"25 29 CURVE",
"25 0 LINE",
"234 0 LINE",
"234 700 LINE"
);
},
{
closed = 1;
nodes = (
"524 700 LINE",
"524 671 LINE",
"558 671 OFFCURVE",
"580 643 OFFCURVE",
"580 600 CURVE SMOOTH",
"580 540 OFFCURVE",
"512 446 OFFCURVE",
"512 446 CURVE",
"512 446 OFFCURVE",
"444 540 OFFCURVE",
"444 600 CURVE SMOOTH",
"444 643 OFFCURVE",
"466 671 OFFCURVE",
"500 671 CURVE",
"500 700 LINE",
"224 700 LINE",
"224 0 LINE",
"476 0 LINE",
"476 29 LINE",
"476 29 OFFCURVE",
"362 29 OFFCURVE",
"362 197 CURVE",
"362 255 OFFCURVE",
"383 334 OFFCURVE",
"429 334 CURVE",
"501 334 OFFCURVE",
"501 1 OFFCURVE",
"501 1 CURVE",
"523 1 LINE",
"523 1 OFFCURVE",
"523 334 OFFCURVE",
"595 334 CURVE",
"641 334 OFFCURVE",
"663 255 OFFCURVE",
"663 197 CURVE",
"663 29 OFFCURVE",
"548 29 OFFCURVE",
"548 29 CURVE",
"548 0 LINE",
"810 0 LINE",
"810 700 LINE"
);
},
{
closed = 1;
nodes = (
"800 0 LINE",
"1009 0 LINE",
"1009 29 LINE",
"883 29 OFFCURVE",
"820 190 OFFCURVE",
"820 350 CURVE SMOOTH",
"820 511 OFFCURVE",
"883 671 OFFCURVE",
"1009 671 CURVE",
"1009 700 LINE",
"800 700 LINE"
);
}
);
width = 1034;
}
);
leftKerningGroup = H;
rightKerningGroup = H;
unicode = 004D;
},
{
glyphname = N;
lastChange = "2021-02-15 14:55:32 +0000";
layers = (
{
anchors = (
{
name = bottom;
position = "{485, 0}";
},
{
name = top;
position = "{485, 700}";
}
);
associatedMasterId = "0BD328E4-CA8F-4CB2-8877-C1BF962BF784";
layerId = "349BBFB2-20B5-4AC1-85BE-D9679750C21F";
name = "Oct 15 18, 16:11";
paths = (
{
closed = 1;
nodes = (
"593 671 OFFCURVE",
"653 630 OFFCURVE",
"653 545 CURVE SMOOTH",
"653 506 OFFCURVE",
"643 448 OFFCURVE",
"623 448 CURVE SMOOTH",
"566 448 OFFCURVE",
"497 526 OFFCURVE",
"497 612 CURVE",
"497 672 OFFCURVE",
"546 671 OFFCURVE",
"546 671 CURVE",
"546 700 LINE",
"20 700 LINE",
"20 671 LINE",
"20 671 OFFCURVE",
"210 671 OFFCURVE",
"210 350 CURVE",
"210 29 OFFCURVE",
"20 29 OFFCURVE",
"20 29 CURVE",
"20 0 LINE",
"472 0 LINE",
"472 29 LINE",
"472 29 OFFCURVE",
"357 29 OFFCURVE",
"357 244 CURVE",
"357 302 OFFCURVE",
"366 408 OFFCURVE",
"437 408 CURVE",
"492 408 OFFCURVE",
"594 307 OFFCURVE",
"594 152 CURVE",
"594 29 OFFCURVE",
"497 29 OFFCURVE",
"497 29 CURVE",
"497 0 LINE",
"949 0 LINE",
"949 29 LINE",
"949 29 OFFCURVE",
"760 29 OFFCURVE",
"760 350 CURVE",
"760 671 OFFCURVE",
"949 671 OFFCURVE",
"949 671 CURVE",
"949 700 LINE",
"571 700 LINE",
"571 671 LINE"
);
}
);
width = 969;
},
{
anchors = (
{
name = bottom;
position = "{485, 0}";
},
{
name = top;
position = "{485, 700}";
}
);
associatedMasterId = "0BD328E4-CA8F-4CB2-8877-C1BF962BF784";
layerId = "2D0A45ED-7E06-4618-818D-717335750D39";
name = "Oct 15 18, 16:12";
paths = (
{
closed = 1;
nodes = (
"593 671 OFFCURVE",
"653 640 OFFCURVE",
"653 555 CURVE SMOOTH",
"653 516 OFFCURVE",
"643 482 OFFCURVE",
"623 448 CURVE",
"577 468 OFFCURVE",
"497 536 OFFCURVE",
"497 622 CURVE",
"497 671 OFFCURVE",
"546 671 OFFCURVE",
"546 671 CURVE",
"546 700 LINE",
"20 700 LINE",
"20 671 LINE",
"20 671 OFFCURVE",
"210 671 OFFCURVE",
"210 350 CURVE",
"210 29 OFFCURVE",
"20 29 OFFCURVE",
"20 29 CURVE",
"20 0 LINE",
"472 0 LINE",
"472 29 LINE",
"472 29 OFFCURVE",
"357 29 OFFCURVE",
"357 244 CURVE",
"357 302 OFFCURVE",
"366 408 OFFCURVE",
"437 408 CURVE",
"492 408 OFFCURVE",
"594 307 OFFCURVE",
"594 152 CURVE",
"594 29 OFFCURVE",
"497 29 OFFCURVE",
"497 29 CURVE",
"497 0 LINE",
"949 0 LINE",
"949 29 LINE",
"949 29 OFFCURVE",
"760 29 OFFCURVE",
"760 350 CURVE",
"760 671 OFFCURVE",
"949 671 OFFCURVE",
"949 671 CURVE",
"949 700 LINE",
"571 700 LINE",
"571 671 LINE"
);
}
);
width = 969;
},
{
anchors = (
{
name = bottom;
position = "{485, 0}";
},
{
name = top;
position = "{485, 700}";
}
);
associatedMasterId = "0BD328E4-CA8F-4CB2-8877-C1BF962BF784";
layerId = "BF742641-C81A-43D6-9FDF-628B20CED090";
name = "Oct 15 18, 16:14";
paths = (
{
closed = 1;
nodes = (
"593 671 OFFCURVE",
"643 640 OFFCURVE",
"643 585 CURVE SMOOTH",
"643 546 OFFCURVE",
"635 500 OFFCURVE",
"603 458 CURVE",
"557 478 OFFCURVE",
"497 536 OFFCURVE",
"497 622 CURVE",
"497 671 OFFCURVE",
"546 671 OFFCURVE",
"546 671 CURVE",
"546 700 LINE",
"20 700 LINE",
"20 671 LINE",
"20 671 OFFCURVE",
"210 671 OFFCURVE",
"210 350 CURVE",
"210 29 OFFCURVE",
"20 29 OFFCURVE",
"20 29 CURVE",
"20 0 LINE",
"472 0 LINE",
"472 29 LINE",
"472 29 OFFCURVE",
"357 29 OFFCURVE",
"357 244 CURVE",
"357 302 OFFCURVE",
"366 408 OFFCURVE",
"437 408 CURVE",
"492 408 OFFCURVE",
"594 307 OFFCURVE",
"594 152 CURVE",
"594 29 OFFCURVE",
"497 29 OFFCURVE",
"497 29 CURVE",
"497 0 LINE",
"949 0 LINE",
"949 29 LINE",
"949 29 OFFCURVE",
"760 29 OFFCURVE",
"760 350 CURVE",
"760 671 OFFCURVE",
"949 671 OFFCURVE",
"949 671 CURVE",
"949 700 LINE",
"571 700 LINE",
"571 671 LINE"
);
}
);
width = 969;
},
{
anchors = (
{
name = bottom;
position = "{485, 0}";
},
{
name = top;
position = "{485, 700}";
}
);
associatedMasterId = "0BD328E4-CA8F-4CB2-8877-C1BF962BF784";
layerId = "6E5C8538-C11C-419D-B7A9-61A2061E20A0";
name = "Oct 15 18, 16:14";
paths = (
{
closed = 1;
nodes = (
"593 671 OFFCURVE",
"643 640 OFFCURVE",
"643 585 CURVE SMOOTH",
"643 546 OFFCURVE",
"635 500 OFFCURVE",
"603 458 CURVE",
"557 478 OFFCURVE",
"497 536 OFFCURVE",
"497 622 CURVE",
"497 671 OFFCURVE",
"546 671 OFFCURVE",
"546 671 CURVE",
"546 700 LINE",
"20 700 LINE",
"20 671 LINE",
"20 671 OFFCURVE",
"210 671 OFFCURVE",
"210 350 CURVE",
"210 29 OFFCURVE",
"20 29 OFFCURVE",
"20 29 CURVE",
"20 0 LINE",
"472 0 LINE",
"472 29 LINE",
"472 29 OFFCURVE",
"357 29 OFFCURVE",
"357 244 CURVE",
"357 302 OFFCURVE",
"366 408 OFFCURVE",
"437 408 CURVE",
"492 408 OFFCURVE",
"594 307 OFFCURVE",
"594 152 CURVE",
"594 29 OFFCURVE",
"497 29 OFFCURVE",
"497 29 CURVE",
"497 0 LINE",
"949 0 LINE",
"949 29 LINE",
"949 29 OFFCURVE",
"760 29 OFFCURVE",
"760 350 CURVE",
"760 671 OFFCURVE",
"949 671 OFFCURVE",
"949 671 CURVE",
"949 700 LINE",
"571 700 LINE",
"571 671 LINE"
);
}
);
width = 969;
},
{
anchors = (
{
name = bottom;
position = "{500, 0}";
},
{
name = top;
position = "{500, 700}";
}
);
guideLines = (
{
position = "{252, 398}";
}
);
layerId = "0BD328E4-CA8F-4CB2-8877-C1BF962BF784";
paths = (
{
closed = 1;
nodes = (
"487 0 LINE",
"487 29 LINE",
"418 29 OFFCURVE",
"372 115 OFFCURVE",
"372 244 CURVE SMOOTH",
"372 340 OFFCURVE",
"406 398 OFFCURVE",
"454 398 CURVE SMOOTH",
"479 398 OFFCURVE",
"508 383 OFFCURVE",
"538 347 CURVE SMOOTH",
"574 305 OFFCURVE",
"609 236 OFFCURVE",
"609 152 CURVE SMOOTH",
"609 78 OFFCURVE",
"570 29 OFFCURVE",
"512 29 CURVE",
"512 0 LINE",
"994 0 LINE",
"994 29 LINE",
"868 29 OFFCURVE",
"805 190 OFFCURVE",
"805 350 CURVE SMOOTH",
"805 511 OFFCURVE",
"868 671 OFFCURVE",
"994 671 CURVE",
"994 700 LINE",
"586 700 LINE",
"586 671 LINE",
"634 671 OFFCURVE",
"666 613 OFFCURVE",
"666 527 CURVE SMOOTH",
"666 502 OFFCURVE",
"664 472 OFFCURVE",
"658 438 CURVE",
"601 468 OFFCURVE",
"512 526 OFFCURVE",
"512 612 CURVE SMOOTH",
"512 647 OFFCURVE",
"532 671 OFFCURVE",
"561 671 CURVE",
"561 700 LINE",
"25 700 LINE",
"25 671 LINE",
"151 671 OFFCURVE",
"214 511 OFFCURVE",
"214 350 CURVE SMOOTH",
"214 190 OFFCURVE",
"151 29 OFFCURVE",
"25 29 CURVE",
"25 0 LINE"
);
}
);
width = 1019;
}
);
leftKerningGroup = H;
rightKerningGroup = H;
unicode = 004E;
},
{
glyphname = Eng;
lastChange = "2019-06-28 15:12:02 +0000";
layers = (
{
layerId = "0BD328E4-CA8F-4CB2-8877-C1BF962BF784";
paths = (
{
closed = 1;
nodes = (
"586 671 LINE",
"586 671 OFFCURVE",
"696 672 OFFCURVE",
"658 438 CURVE",
"601 468 OFFCURVE",
"512 526 OFFCURVE",
"512 612 CURVE",
"512 672 OFFCURVE",
"561 671 OFFCURVE",
"561 671 CURVE",
"561 700 LINE",
"25 700 LINE",
"25 671 LINE",
"25 671 OFFCURVE",
"215 671 OFFCURVE",
"215 350 CURVE",
"215 29 OFFCURVE",
"25 29 OFFCURVE",
"25 29 CURVE",
"25 0 LINE",
"487 0 LINE",
"487 29 LINE",
"487 29 OFFCURVE",
"372 29 OFFCURVE",
"372 244 CURVE",
"372 302 OFFCURVE",
"381 408 OFFCURVE",
"452 408 CURVE",
"477 408 OFFCURVE",
"506 387 OFFCURVE",
"537 349 CURVE",
"576 305 OFFCURVE",
"609 221 OFFCURVE",
"609 113 CURVE",
"609 -166 OFFCURVE",
"454 -166 OFFCURVE",
"454 -166 CURVE",
"454 -195 LINE",
"587 -195 OFFCURVE",
"805 -195 OFFCURVE",
"805 125 CURVE",
"805 350 LINE",
"805 671 OFFCURVE",
"994 671 OFFCURVE",
"994 671 CURVE",
"994 700 LINE",
"586 700 LINE"
);
}
);
width = 1019;
},
{
associatedMasterId = "0BD328E4-CA8F-4CB2-8877-C1BF962BF784";
layerId = "22ED15B5-E459-43FC-8FC4-D3BE6678C9B9";
name = "Oct 15 18, 16:16";
paths = (
{
closed = 1;
nodes = (
"561 671 LINE",
"561 671 OFFCURVE",
"643 671 OFFCURVE",
"643 448 CURVE",
"586 448 OFFCURVE",
"487 526 OFFCURVE",
"487 612 CURVE",
"487 672 OFFCURVE",
"536 671 OFFCURVE",
"536 671 CURVE",
"536 700 LINE",
"10 700 LINE",
"10 671 LINE",
"10 671 OFFCURVE",
"200 671 OFFCURVE",
"200 350 CURVE",
"200 29 OFFCURVE",
"10 29 OFFCURVE",
"10 29 CURVE",
"10 0 LINE",
"462 0 LINE",
"462 29 LINE",
"462 29 OFFCURVE",
"347 29 OFFCURVE",
"347 244 CURVE",
"347 302 OFFCURVE",
"356 408 OFFCURVE",
"427 408 CURVE",
"482 408 OFFCURVE",
"584 308 OFFCURVE",
"584 153 CURVE",
"584 -166 OFFCURVE",
"439 -166 OFFCURVE",
"439 -166 CURVE",
"439 -195 LINE",
"542 -195 OFFCURVE",
"750 -195 OFFCURVE",
"750 125 CURVE",
"750 126 OFFCURVE",
"750 287 OFFCURVE",
"750 350 CURVE",
"750 671 OFFCURVE",
"939 671 OFFCURVE",
"939 671 CURVE",
"939 700 LINE",
"561 700 LINE"
);
}
);
width = 949;
}
);
leftKerningGroup = H;
rightKerningGroup = J;
unicode = 014A;
},
{
glyphname = O;
lastChange = "2019-10-28 18:54:36 +0000";
layers = (
{
associatedMasterId = "0BD328E4-CA8F-4CB2-8877-C1BF962BF784";
layerId = "013E51CA-8CE7-491A-82F8-7D7964B69A31";
name = "Jun 7 18, 22:53";
paths = (
{
closed = 1;
nodes = (
"328 700 OFFCURVE",
"239 576 OFFCURVE",
"239 483 CURVE",
"239 325 OFFCURVE",
"379 291 OFFCURVE",
"379 291 CURVE",
"392 316 LINE",
"392 316 OFFCURVE",
"354 325 OFFCURVE",
"354 375 CURVE",
"354 461 OFFCURVE",
"430 491 OFFCURVE",
"484 491 CURVE",
"571 491 OFFCURVE",
"648 419 OFFCURVE",
"648 335 CURVE",
"648 215 OFFCURVE",
"560 142 OFFCURVE",
"432 142 CURVE",
"274 142 OFFCURVE",
"144 263 OFFCURVE",
"144 426 CURVE",
"144 642 OFFCURVE",
"350 709 OFFCURVE",
"421 709 CURVE",
"421 719 OFFCURVE",
"421 726 OFFCURVE",
"421 737 CURVE",
"321 737 OFFCURVE",
"40 667 OFFCURVE",
"40 361 CURVE",
"40 141 OFFCURVE",
"230 -22 OFFCURVE",
"450 -22 CURVE SMOOTH",
"669 -22 OFFCURVE",
"859 127 OFFCURVE",
"859 357 CURVE",
"859 537 OFFCURVE",
"711 700 OFFCURVE",
"510 700 CURVE"
);
}
);
width = 899;
},
{
anchors = (
{
name = bottom;
position = "{426, 0}";
},
{
name = center;
position = "{436, 350}";
},
{
name = ogonek;
position = "{792, 10}";
},
{
name = top;
position = "{436, 700}";
},
{
name = topleft;
position = "{10, 700}";
},
{
name = topright;
position = "{861, 700}";
}
);
associatedMasterId = "0BD328E4-CA8F-4CB2-8877-C1BF962BF784";
layerId = "56B66A34-7971-4574-877A-40D56DA754BD";
name = "Oct 16 18, 23:02";
paths = (
{
closed = 1;
nodes = (
"542 138 OFFCURVE",
"628 233 OFFCURVE",
"628 331 CURVE",
"628 423 OFFCURVE",
"568 499 OFFCURVE",
"470 499 CURVE",
"398 499 OFFCURVE",
"339 448 OFFCURVE",
"339 370 CURVE",
"339 320 OFFCURVE",
"377 311 OFFCURVE",
"377 311 CURVE",
"364 286 LINE",
"364 286 OFFCURVE",
"222 320 OFFCURVE",
"222 479 CURVE",
"222 574 OFFCURVE",
"312 700 OFFCURVE",
"496 700 CURVE",
"700 700 OFFCURVE",
"851 535 OFFCURVE",
"851 353 CURVE",
"851 129 OFFCURVE",
"664 -29 OFFCURVE",
"425 -29 CURVE",
"203 -29 OFFCURVE",
"20 133 OFFCURVE",
"20 336 CURVE",
"20 535 OFFCURVE",
"175 729 OFFCURVE",
"406 729 CURVE",
"406 719 OFFCURVE",
"406 711 OFFCURVE",
"406 700 CURVE",
"267 700 OFFCURVE",
"136 584 OFFCURVE",
"136 408 CURVE",
"136 246 OFFCURVE",
"258 138 OFFCURVE",
"414 138 CURVE"
);
}
);
width = 871;
},
{
anchors = (
{
name = bottom;
position = "{426, 0}";
},
{
name = center;
position = "{436, 350}";
},
{
name = ogonek;
position = "{792, 10}";
},
{
name = top;
position = "{436, 700}";
},
{
name = topleft;
position = "{10, 700}";
},
{
name = topright;
position = "{861, 700}";
}
);
associatedMasterId = "0BD328E4-CA8F-4CB2-8877-C1BF962BF784";
layerId = "8D0C686B-38CE-417E-9E6C-C2625F29A48B";
name = "Oct 16 18, 23:10";
paths = (
{
closed = 1;
nodes = (
"543 148 OFFCURVE",
"628 233 OFFCURVE",
"628 341 CURVE",
"628 433 OFFCURVE",
"568 509 OFFCURVE",
"470 509 CURVE",
"398 509 OFFCURVE",
"339 468 OFFCURVE",
"339 390 CURVE",
"339 340 OFFCURVE",
"377 321 OFFCURVE",
"377 321 CURVE",
"364 296 LINE",
"364 296 OFFCURVE",
"222 330 OFFCURVE",
"222 489 CURVE",
"222 584 OFFCURVE",
"312 700 OFFCURVE",
"496 700 CURVE",
"700 700 OFFCURVE",
"861 545 OFFCURVE",
"861 363 CURVE",
"861 143 OFFCURVE",
"674 -29 OFFCURVE",
"425 -29 CURVE",
"203 -29 OFFCURVE",
"10 143 OFFCURVE",
"10 346 CURVE",
"10 545 OFFCURVE",
"175 719 OFFCURVE",
"406 729 CURVE",
"406 719 OFFCURVE",
"406 711 OFFCURVE",
"406 700 CURVE",
"277 680 OFFCURVE",
"136 584 OFFCURVE",
"136 418 CURVE",
"136 276 OFFCURVE",
"229 148 OFFCURVE",
"415 148 CURVE"
);
}
);
width = 871;
},
{
anchors = (
{
name = bottom;
position = "{426, 0}";
},
{
name = center;
position = "{436, 350}";
},
{
name = ogonek;
position = "{792, 10}";
},
{
name = top;
position = "{436, 700}";
},
{
name = topleft;
position = "{10, 700}";
},
{
name = topright;
position = "{861, 700}";
}
);
associatedMasterId = "0BD328E4-CA8F-4CB2-8877-C1BF962BF784";
layerId = "71629CE0-1254-485D-9769-E890DCB16C45";
name = "Oct 16 18, 23:14";
paths = (
{
closed = 1;
nodes = (
"543 148 OFFCURVE",
"628 233 OFFCURVE",
"628 341 CURVE",
"628 433 OFFCURVE",
"568 509 OFFCURVE",
"470 509 CURVE",
"398 509 OFFCURVE",
"339 468 OFFCURVE",
"339 390 CURVE",
"339 340 OFFCURVE",
"377 321 OFFCURVE",
"377 321 CURVE",
"364 296 LINE",
"364 296 OFFCURVE",
"222 330 OFFCURVE",
"222 489 CURVE",
"222 584 OFFCURVE",
"312 700 OFFCURVE",
"496 700 CURVE",
"700 700 OFFCURVE",
"861 545 OFFCURVE",
"861 363 CURVE",
"861 143 OFFCURVE",
"674 -29 OFFCURVE",
"425 -29 CURVE",
"203 -29 OFFCURVE",
"10 143 OFFCURVE",
"10 346 CURVE",
"10 545 OFFCURVE",
"175 719 OFFCURVE",
"406 729 CURVE",
"406 719 OFFCURVE",
"406 711 OFFCURVE",
"406 700 CURVE",
"277 690 OFFCURVE",
"136 584 OFFCURVE",
"136 418 CURVE",
"136 276 OFFCURVE",
"229 148 OFFCURVE",
"415 148 CURVE"
);
}
);
width = 871;
},
{
anchors = (
{
name = bottom;
position = "{426, 0}";
},
{
name = center;
position = "{436, 350}";
},
{
name = ogonek;
position = "{792, 10}";
},
{
name = top;
position = "{436, 700}";
},
{
name = topleft;
position = "{10, 700}";
},
{
name = topright;
position = "{861, 700}";
}
);
associatedMasterId = "0BD328E4-CA8F-4CB2-8877-C1BF962BF784";
layerId = "4705E413-06FB-4360-8D2F-F8BF14259AE6";
name = "Oct 16 18, 23:42";
paths = (
{
closed = 1;
nodes = (
"542 148 OFFCURVE",
"628 243 OFFCURVE",
"628 341 CURVE",
"628 433 OFFCURVE",
"568 509 OFFCURVE",
"470 509 CURVE",
"398 509 OFFCURVE",
"339 458 OFFCURVE",
"339 380 CURVE",
"339 330 OFFCURVE",
"377 321 OFFCURVE",
"377 321 CURVE",
"364 296 LINE",
"364 296 OFFCURVE",
"222 330 OFFCURVE",
"222 489 CURVE",
"222 584 OFFCURVE",
"312 700 OFFCURVE",
"496 700 CURVE",
"700 700 OFFCURVE",
"861 545 OFFCURVE",
"861 363 CURVE",
"861 143 OFFCURVE",
"684 -29 OFFCURVE",
"425 -29 CURVE",
"203 -29 OFFCURVE",
"10 143 OFFCURVE",
"10 346 CURVE",
"10 545 OFFCURVE",
"175 729 OFFCURVE",
"406 729 CURVE",
"406 719 OFFCURVE",
"406 711 OFFCURVE",
"406 700 CURVE",
"267 700 OFFCURVE",
"136 584 OFFCURVE",
"136 418 CURVE",
"136 276 OFFCURVE",
"258 148 OFFCURVE",
"414 148 CURVE"
);
}
);
width = 871;
},
{
anchors = (
{
name = bottom;
position = "{441, 0}";
},
{
name = center;
position = "{451, 350}";
},
{
name = ogonek;
position = "{807, 10}";
},
{
name = top;
position = "{451, 710}";
},
{
name = topleft;
position = "{25, 700}";
},
{
name = topright;
position = "{876, 670}";
}
);
layerId = "0BD328E4-CA8F-4CB2-8877-C1BF962BF784";
paths = (
{
closed = 1;
nodes = (
"273 148 OFFCURVE",
"151 276 OFFCURVE",
"151 418 CURVE",
"151 584 OFFCURVE",
"282 700 OFFCURVE",
"421 700 CURVE",
"421 711 OFFCURVE",
"421 719 OFFCURVE",
"421 729 CURVE",
"190 729 OFFCURVE",
"25 545 OFFCURVE",
"25 346 CURVE",
"25 143 OFFCURVE",
"218 -30 OFFCURVE",
"440 -30 CURVE SMOOTH",
"699 -30 OFFCURVE",
"876 143 OFFCURVE",
"876 363 CURVE",
"876 545 OFFCURVE",
"715 700 OFFCURVE",
"511 700 CURVE",
"327 700 OFFCURVE",
"237 584 OFFCURVE",
"237 489 CURVE",
"237 330 OFFCURVE",
"379 296 OFFCURVE",
"379 296 CURVE",
"392 321 LINE",
"392 321 OFFCURVE",
"354 330 OFFCURVE",
"354 380 CURVE",
"354 458 OFFCURVE",
"413 509 OFFCURVE",
"485 509 CURVE",
"583 509 OFFCURVE",
"643 433 OFFCURVE",
"643 341 CURVE",
"643 243 OFFCURVE",
"557 148 OFFCURVE",
"429 148 CURVE"
);
}
);
width = 901;
}
);
leftKerningGroup = O;
rightKerningGroup = O;
unicode = 004F;
},
{
glyphname = OE;
lastChange = "2018-10-16 21:56:56 +0000";
layers = (
{
layerId = "0BD328E4-CA8F-4CB2-8877-C1BF962BF784";
paths = (
{
closed = 1;
nodes = (
"1104 338 LINE",
"1104 338 OFFCURVE",
"1104 88 OFFCURVE",
"942 88 CURVE",
"810 88 OFFCURVE",
"819 248 OFFCURVE",
"819 248 CURVE",
"819 283 OFFCURVE",
"846 300 OFFCURVE",
"873 300 CURVE",
"937 300 OFFCURVE",
"995 234 OFFCURVE",
"995 175 CURVE",
"1017 175 OFFCURVE",
"1024 175 OFFCURVE",
"1024 175 CURVE",
"1024 525 LINE",
"1024 525 OFFCURVE",
"1017 525 OFFCURVE",
"995 525 CURVE",
"995 466 OFFCURVE",
"937 401 OFFCURVE",
"873 401 CURVE",
"846 401 OFFCURVE",
"819 417 OFFCURVE",
"819 452 CURVE",
"819 452 OFFCURVE",
"810 612 OFFCURVE",
"942 612 CURVE",
"1104 612 OFFCURVE",
"1104 362 OFFCURVE",
"1104 362 CURVE",
"1133 362 LINE",
"1167 700 LINE",
"658 700 LINE",
"659 653 OFFCURVE",
"658 677 OFFCURVE",
"658 566 CURVE",
"655 502 OFFCURVE",
"681 421 OFFCURVE",
"675 361 CURVE SMOOTH",
"663 242 OFFCURVE",
"613 146 OFFCURVE",
"588 0 CURVE",
"1167 0 LINE",
"1133 338 LINE"
);
},
{
closed = 1;
nodes = (
"268 148 OFFCURVE",
"146 276 OFFCURVE",
"146 418 CURVE",
"146 584 OFFCURVE",
"277 700 OFFCURVE",
"416 700 CURVE",
"416 711 OFFCURVE",
"416 719 OFFCURVE",
"416 729 CURVE",
"185 729 OFFCURVE",
"20 545 OFFCURVE",
"20 346 CURVE",
"20 143 OFFCURVE",
"213 -29 OFFCURVE",
"435 -29 CURVE",
"578 -29 OFFCURVE",
"697 24 OFFCURVE",
"774 108 CURVE SMOOTH",
"836 176 OFFCURVE",
"721 265 OFFCURVE",
"721 363 CURVE",
"721 457 OFFCURVE",
"829 543 OFFCURVE",
"760 605 CURVE SMOOTH",
"695 664 OFFCURVE",
"605 700 OFFCURVE",
"506 700 CURVE",
"322 700 OFFCURVE",
"232 584 OFFCURVE",
"232 489 CURVE",
"232 330 OFFCURVE",
"374 296 OFFCURVE",
"374 296 CURVE",
"387 321 LINE",
"387 321 OFFCURVE",
"349 330 OFFCURVE",
"349 380 CURVE",
"349 458 OFFCURVE",
"408 509 OFFCURVE",
"480 509 CURVE",
"578 509 OFFCURVE",
"638 433 OFFCURVE",
"638 341 CURVE",
"638 243 OFFCURVE",
"552 148 OFFCURVE",
"424 148 CURVE"
);
}
);
width = 1187;
},
{
associatedMasterId = "0BD328E4-CA8F-4CB2-8877-C1BF962BF784";
layerId = "CBDE45F1-E42F-44AD-9EEC-961E910373AE";
name = "Sep 29 18, 19:10";
paths = (
{
closed = 1;
nodes = (
"1187 0 LINE",
"438 0 LINE",
"438 29 LINE",
"438 29 OFFCURVE",
"628 35 OFFCURVE",
"628 350 CURVE",
"628 665 OFFCURVE",
"438 671 OFFCURVE",
"438 671 CURVE",
"496 700 LINE",
"1187 700 LINE",
"1153 362 LINE",
"1124 362 LINE",
"1124 362 OFFCURVE",
"1124 612 OFFCURVE",
"922 612 CURVE",
"790 612 OFFCURVE",
"799 452 OFFCURVE",
"799 452 CURVE",
"799 417 OFFCURVE",
"826 401 OFFCURVE",
"853 401 CURVE",
"917 401 OFFCURVE",
"975 466 OFFCURVE",
"975 525 CURVE",
"997 525 OFFCURVE",
"1004 525 OFFCURVE",
"1004 525 CURVE",
"1004 175 LINE",
"1004 175 OFFCURVE",
"997 175 OFFCURVE",
"975 175 CURVE",
"975 234 OFFCURVE",
"917 300 OFFCURVE",
"853 300 CURVE",
"826 300 OFFCURVE",
"799 283 OFFCURVE",
"799 248 CURVE",
"799 248 OFFCURVE",
"790 88 OFFCURVE",
"922 88 CURVE",
"1124 88 OFFCURVE",
"1124 338 OFFCURVE",
"1124 338 CURVE",
"1153 338 LINE"
);
},
{
closed = 1;
nodes = (
"724 70 LINE",
"708 57 OFFCURVE",
"692 45 OFFCURVE",
"674 34 CURVE SMOOTH",
"607 -6 OFFCURVE",
"526 -29 OFFCURVE",
"435 -29 CURVE",
"213 -29 OFFCURVE",
"20 113 OFFCURVE",
"20 336 CURVE",
"20 645 OFFCURVE",
"265 729 OFFCURVE",
"406 729 CURVE",
"406 719 OFFCURVE",
"406 711 OFFCURVE",
"406 700 CURVE",
"277 700 OFFCURVE",
"136 574 OFFCURVE",
"136 408 CURVE",
"136 246 OFFCURVE",
"248 138 OFFCURVE",
"414 138 CURVE",
"542 138 OFFCURVE",
"628 223 OFFCURVE",
"628 331 CURVE",
"628 423 OFFCURVE",
"558 499 OFFCURVE",
"470 499 CURVE",
"398 499 OFFCURVE",
"339 458 OFFCURVE",
"339 370 CURVE",
"339 320 OFFCURVE",
"377 311 OFFCURVE",
"377 311 CURVE",
"364 286 LINE",
"364 286 OFFCURVE",
"222 320 OFFCURVE",
"222 479 CURVE",
"222 574 OFFCURVE",
"312 700 OFFCURVE",
"496 700 CURVE",
"565 700 OFFCURVE",
"627 681 OFFCURVE",
"680 650 CURVE",
"680 70 LINE"
);
}
);
width = 1207;
},
{
associatedMasterId = "0BD328E4-CA8F-4CB2-8877-C1BF962BF784";
layerId = "EAEE83D1-701C-44C2-B8D9-EEFBA2A28179";
name = "Sep 29 18, 19:11";
paths = (
{
closed = 1;
nodes = (
"1187 0 LINE",
"468 0 LINE",
"468 29 LINE",
"468 29 OFFCURVE",
"658 35 OFFCURVE",
"658 350 CURVE",
"658 665 OFFCURVE",
"468 671 OFFCURVE",
"468 671 CURVE",
"526 700 LINE",
"1187 700 LINE",
"1153 362 LINE",
"1124 362 LINE",
"1124 362 OFFCURVE",
"1124 612 OFFCURVE",
"922 612 CURVE",
"790 612 OFFCURVE",
"799 452 OFFCURVE",
"799 452 CURVE",
"799 417 OFFCURVE",
"826 401 OFFCURVE",
"853 401 CURVE",
"917 401 OFFCURVE",
"975 466 OFFCURVE",
"975 525 CURVE",
"997 525 OFFCURVE",
"1004 525 OFFCURVE",
"1004 525 CURVE",
"1004 175 LINE",
"1004 175 OFFCURVE",
"997 175 OFFCURVE",
"975 175 CURVE",
"975 234 OFFCURVE",
"917 300 OFFCURVE",
"853 300 CURVE",
"826 300 OFFCURVE",
"799 283 OFFCURVE",
"799 248 CURVE",
"799 248 OFFCURVE",
"790 88 OFFCURVE",
"922 88 CURVE",
"1124 88 OFFCURVE",
"1124 338 OFFCURVE",
"1124 338 CURVE",
"1153 338 LINE"
);
},
{
closed = 1;
nodes = (
"744 70 LINE",
"728 57 OFFCURVE",
"712 45 OFFCURVE",
"694 34 CURVE SMOOTH",
"627 -7 OFFCURVE",
"546 -29 OFFCURVE",
"455 -29 CURVE",
"233 -29 OFFCURVE",
"40 113 OFFCURVE",
"40 336 CURVE",
"40 645 OFFCURVE",
"285 729 OFFCURVE",
"426 729 CURVE",
"426 719 OFFCURVE",
"426 711 OFFCURVE",
"426 700 CURVE",
"297 700 OFFCURVE",
"156 574 OFFCURVE",
"156 408 CURVE",
"156 246 OFFCURVE",
"268 138 OFFCURVE",
"434 138 CURVE",
"562 138 OFFCURVE",
"648 223 OFFCURVE",
"648 331 CURVE",
"648 423 OFFCURVE",
"578 499 OFFCURVE",
"490 499 CURVE",
"418 499 OFFCURVE",
"359 458 OFFCURVE",
"359 370 CURVE",
"359 320 OFFCURVE",
"397 311 OFFCURVE",
"397 311 CURVE",
"384 286 LINE",
"384 286 OFFCURVE",
"242 320 OFFCURVE",
"242 479 CURVE",
"242 574 OFFCURVE",
"332 700 OFFCURVE",
"516 700 CURVE",
"585 700 OFFCURVE",
"647 681 OFFCURVE",
"700 650 CURVE",
"700 70 LINE"
);
}
);
width = 1207;
},
{
associatedMasterId = "0BD328E4-CA8F-4CB2-8877-C1BF962BF784";
layerId = "A76A9311-ECCF-4762-AEAE-1862ED34C10D";
name = "Sep 29 18, 19:18";
paths = (
{
closed = 1;
nodes = (
"1187 0 LINE",
"468 0 LINE",
"468 29 LINE",
"468 29 OFFCURVE",
"658 35 OFFCURVE",
"658 350 CURVE",
"658 665 OFFCURVE",
"468 671 OFFCURVE",
"468 671 CURVE",
"526 700 LINE",
"1187 700 LINE",
"1153 362 LINE",
"1124 362 LINE",
"1124 362 OFFCURVE",
"1124 612 OFFCURVE",
"922 612 CURVE",
"790 612 OFFCURVE",
"799 452 OFFCURVE",
"799 452 CURVE",
"799 417 OFFCURVE",
"826 401 OFFCURVE",
"853 401 CURVE",
"917 401 OFFCURVE",
"975 466 OFFCURVE",
"975 525 CURVE",
"997 525 OFFCURVE",
"1004 525 OFFCURVE",
"1004 525 CURVE",
"1004 175 LINE",
"1004 175 OFFCURVE",
"997 175 OFFCURVE",
"975 175 CURVE",
"975 234 OFFCURVE",
"917 300 OFFCURVE",
"853 300 CURVE",
"826 300 OFFCURVE",
"799 283 OFFCURVE",
"799 248 CURVE",
"799 248 OFFCURVE",
"790 88 OFFCURVE",
"922 88 CURVE",
"1124 88 OFFCURVE",
"1124 338 OFFCURVE",
"1124 338 CURVE",
"1153 338 LINE"
);
},
{
closed = 1;
nodes = (
"744 70 LINE",
"728 57 OFFCURVE",
"712 45 OFFCURVE",
"694 34 CURVE SMOOTH",
"627 -7 OFFCURVE",
"546 -29 OFFCURVE",
"455 -29 CURVE",
"233 -29 OFFCURVE",
"40 113 OFFCURVE",
"40 336 CURVE",
"40 645 OFFCURVE",
"285 729 OFFCURVE",
"426 729 CURVE",
"426 719 OFFCURVE",
"426 711 OFFCURVE",
"426 700 CURVE",
"297 700 OFFCURVE",
"156 574 OFFCURVE",
"156 408 CURVE",
"156 246 OFFCURVE",
"268 138 OFFCURVE",
"434 138 CURVE",
"562 138 OFFCURVE",
"648 223 OFFCURVE",
"648 331 CURVE",
"648 423 OFFCURVE",
"578 499 OFFCURVE",
"490 499 CURVE",
"418 499 OFFCURVE",
"359 458 OFFCURVE",
"359 370 CURVE",
"359 320 OFFCURVE",
"397 311 OFFCURVE",
"397 311 CURVE",
"384 286 LINE",
"384 286 OFFCURVE",
"242 320 OFFCURVE",
"242 479 CURVE",
"242 574 OFFCURVE",
"332 700 OFFCURVE",
"516 700 CURVE",
"585 700 OFFCURVE",
"647 681 OFFCURVE",
"700 650 CURVE",
"700 70 LINE"
);
}
);
width = 1207;
}
);
leftKerningGroup = O;
unicode = 0152;
},
{
glyphname = P;
lastChange = "2021-02-15 15:04:38 +0000";
layers = (
{
anchors = (
{
name = bottom;
position = "{400, 0}";
},
{
name = top;
position = "{400, 700}";
}
);
guideLines = (
{
position = "{-21, 613}";
},
{
angle = 90;
position = "{552, 137}";
}
);
layerId = "0BD328E4-CA8F-4CB2-8877-C1BF962BF784";
paths = (
{
closed = 1;
nodes = (
"578 0 LINE",
"578 29 LINE",
"452 29 OFFCURVE",
"391 190 OFFCURVE",
"391 350 CURVE SMOOTH",
"391 533 OFFCURVE",
"434 613 OFFCURVE",
"479 613 CURVE SMOOTH",
"526 613 OFFCURVE",
"552 546 OFFCURVE",
"552 475 CURVE SMOOTH",
"552 339 OFFCURVE",
"501 248 OFFCURVE",
"425 248 CURVE",
"425 219 LINE",
"627 219 OFFCURVE",
"764 334 OFFCURVE",
"764 475 CURVE SMOOTH",
"764 616 OFFCURVE",
"651 700 OFFCURVE",
"479 700 CURVE SMOOTH",
"25 700 LINE",
"25 671 LINE",
"151 671 OFFCURVE",
"214 511 OFFCURVE",
"214 350 CURVE SMOOTH",
"214 190 OFFCURVE",
"151 29 OFFCURVE",
"25 29 CURVE",
"25 0 LINE"
);
}
);
width = 789;
}
);
leftKerningGroup = H;
rightKerningGroup = P;
unicode = 0050;
},
{
glyphname = Thorn;
lastChange = "2019-05-29 13:10:26 +0000";
layers = (
{
associatedMasterId = "0BD328E4-CA8F-4CB2-8877-C1BF962BF784";
layerId = "C675BDD4-8D31-4FDB-B198-997D332942D6";
name = "May 29 19, 15:10";
paths = (
{
closed = 1;
nodes = (
"564 0 LINE",
"564 29 LINE",
"564 29 OFFCURVE",
"489 31 OFFCURVE",
"437 124 CURVE",
"557 126 OFFCURVE",
"754 174 OFFCURVE",
"754 350 CURVE SMOOTH",
"754 527 OFFCURVE",
"567 574 OFFCURVE",
"437 576 CURVE",
"499 668 OFFCURVE",
"564 671 OFFCURVE",
"564 671 CURVE",
"564 700 LINE",
"20 700 LINE",
"20 671 LINE",
"20 671 OFFCURVE",
"209 665 OFFCURVE",
"209 350 CURVE SMOOTH",
"209 34 OFFCURVE",
"20 29 OFFCURVE",
"20 29 CURVE",
"20 0 LINE"
);
},
{
closed = 1;
nodes = (
"390 394 OFFCURVE",
"394 442 OFFCURVE",
"402 497 CURVE",
"487 482 OFFCURVE",
"552 432 OFFCURVE",
"552 350 CURVE SMOOTH",
"552 274 OFFCURVE",
"491 229 OFFCURVE",
"406 210 CURVE",
"396 249 OFFCURVE",
"390 295 OFFCURVE",
"390 351 CURVE SMOOTH"
);
}
);
width = 785;
},
{
layerId = "0BD328E4-CA8F-4CB2-8877-C1BF962BF784";
paths = (
{
closed = 1;
nodes = (
"765 529 OFFCURVE",
"550 576 OFFCURVE",
"426 576 CURVE",
"482 668 OFFCURVE",
"564 671 OFFCURVE",
"564 671 CURVE",
"564 700 LINE",
"20 700 LINE",
"20 671 LINE",
"20 671 OFFCURVE",
"209 665 OFFCURVE",
"209 350 CURVE",
"209 34 OFFCURVE",
"20 29 OFFCURVE",
"20 29 CURVE",
"20 0 LINE",
"564 0 LINE",
"564 29 LINE",
"564 29 OFFCURVE",
"481 31 OFFCURVE",
"425 124 CURVE",
"426 124 LINE",
"550 124 OFFCURVE",
"765 171 OFFCURVE",
"765 350 CURVE"
);
},
{
closed = 1;
nodes = (
"355 463 OFFCURVE",
"412 508 OFFCURVE",
"450 508 CURVE",
"504 508 OFFCURVE",
"553 448 OFFCURVE",
"553 350 CURVE",
"553 252 OFFCURVE",
"504 192 OFFCURVE",
"450 192 CURVE",
"412 192 OFFCURVE",
"355 237 OFFCURVE",
"355 350 CURVE SMOOTH"
);
}
);
width = 785;
}
);
leftKerningGroup = H;
rightKerningGroup = THORN;
unicode = 00DE;
},
{
glyphname = Q;
lastChange = "2019-06-27 21:26:30 +0000";
layers = (
{
anchors = (
{
name = bottom;
position = "{444, 0}";
},
{
name = top;
position = "{444, 700}";
}
);
layerId = "0BD328E4-CA8F-4CB2-8877-C1BF962BF784";
paths = (
{
closed = 1;
nodes = (
"25 535 OFFCURVE",
"180 729 OFFCURVE",
"411 729 CURVE",
"411 700 LINE",
"272 700 OFFCURVE",
"141 584 OFFCURVE",
"141 408 CURVE SMOOTH",
"141 246 OFFCURVE",
"263 138 OFFCURVE",
"419 138 CURVE SMOOTH",
"547 138 OFFCURVE",
"633 233 OFFCURVE",
"633 331 CURVE SMOOTH",
"633 423 OFFCURVE",
"573 499 OFFCURVE",
"475 499 CURVE SMOOTH",
"403 499 OFFCURVE",
"344 448 OFFCURVE",
"344 370 CURVE SMOOTH",
"344 320 OFFCURVE",
"382 311 OFFCURVE",
"382 311 CURVE",
"369 286 LINE",
"369 286 OFFCURVE",
"227 320 OFFCURVE",
"227 479 CURVE SMOOTH",
"227 574 OFFCURVE",
"317 700 OFFCURVE",
"501 700 CURVE SMOOTH",
"705 700 OFFCURVE",
"856 535 OFFCURVE",
"856 353 CURVE SMOOTH",
"856 158 OFFCURVE",
"714 12 OFFCURVE",
"518 -22 CURVE",
"592 -57 OFFCURVE",
"667 -97 OFFCURVE",
"728 -97 CURVE SMOOTH",
"796 -97 OFFCURVE",
"802 -58 OFFCURVE",
"802 -23 CURVE SMOOTH",
"802 24 OFFCURVE",
"774 52 OFFCURVE",
"774 52 CURVE",
"791 74 LINE",
"791 74 OFFCURVE",
"872 22 OFFCURVE",
"872 -94 CURVE SMOOTH",
"872 -155 OFFCURVE",
"834 -246 OFFCURVE",
"719 -246 CURVE SMOOTH",
"545 -246 OFFCURVE",
"458 -29 OFFCURVE",
"297 -29 CURVE SMOOTH",
"213 -29 OFFCURVE",
"191 -80 OFFCURVE",
"191 -80 CURVE",
"165 -69 LINE",
"165 -69 OFFCURVE",
"185 -20 OFFCURVE",
"249 10 CURVE",
"117 69 OFFCURVE",
"25 192 OFFCURVE",
"25 336 CURVE SMOOTH"
);
}
);
width = 887;
},
{
associatedMasterId = "0BD328E4-CA8F-4CB2-8877-C1BF962BF784";
layerId = "97AB478A-9DE3-4ECC-BF2D-625EFB6C6829";
name = "Mar 13 18, 17:10";
paths = (
{
closed = 1;
nodes = (
"797 26 LINE",
"797 26 OFFCURVE",
"835 8 OFFCURVE",
"835 -39 CURVE",
"835 -74 OFFCURVE",
"808 -113 OFFCURVE",
"761 -113 CURVE",
"699 -113 OFFCURVE",
"602 -80 OFFCURVE",
"506 -55 CURVE",
"717 -34 OFFCURVE",
"869 117 OFFCURVE",
"869 324 CURVE",
"869 506 OFFCURVE",
"718 671 OFFCURVE",
"514 671 CURVE",
"330 671 OFFCURVE",
"240 545 OFFCURVE",
"240 451 CURVE",
"240 291 OFFCURVE",
"382 257 OFFCURVE",
"382 257 CURVE",
"394 282 LINE",
"394 282 OFFCURVE",
"357 291 OFFCURVE",
"357 342 CURVE",
"357 429 OFFCURVE",
"416 470 OFFCURVE",
"488 470 CURVE",
"576 470 OFFCURVE",
"646 394 OFFCURVE",
"646 302 CURVE",
"646 195 OFFCURVE",
"560 109 OFFCURVE",
"431 109 CURVE",
"266 109 OFFCURVE",
"154 217 OFFCURVE",
"154 379 CURVE",
"154 545 OFFCURVE",
"295 671 OFFCURVE",
"424 671 CURVE",
"424 682 OFFCURVE",
"424 690 OFFCURVE",
"424 700 CURVE",
"323 700 OFFCURVE",
"38 616 OFFCURVE",
"38 307 CURVE",
"38 143 OFFCURVE",
"142 23 OFFCURVE",
"286 -29 CURVE",
"201 -43 OFFCURVE",
"188 -94 OFFCURVE",
"188 -94 CURVE",
"214 -106 LINE",
"214 -106 OFFCURVE",
"236 -55 OFFCURVE",
"320 -55 CURVE",
"481 -55 OFFCURVE",
"569 -270 OFFCURVE",
"743 -270 CURVE",
"857 -270 OFFCURVE",
"895 -180 OFFCURVE",
"895 -120 CURVE",
"895 -4 OFFCURVE",
"815 48 OFFCURVE",
"815 48 CURVE"
);
}
);
width = 933;
},
{
associatedMasterId = "0BD328E4-CA8F-4CB2-8877-C1BF962BF784";
layerId = "CE410F0B-210E-4F0E-8019-A1AB8DB45E69";
name = "Sep 24 18, 12:19";
paths = (
{
closed = 1;
nodes = (
"790 60 LINE",
"790 60 OFFCURVE",
"828 42 OFFCURVE",
"828 -5 CURVE",
"828 -40 OFFCURVE",
"801 -79 OFFCURVE",
"754 -79 CURVE",
"692 -79 OFFCURVE",
"593 -46 OFFCURVE",
"496 -21 CURVE",
"680 3 OFFCURVE",
"862 153 OFFCURVE",
"862 356 CURVE",
"862 537 OFFCURVE",
"708 700 OFFCURVE",
"506 700 CURVE",
"324 700 OFFCURVE",
"234 576 OFFCURVE",
"234 482 CURVE",
"234 324 OFFCURVE",
"376 290 OFFCURVE",
"376 290 CURVE",
"388 315 LINE",
"388 315 OFFCURVE",
"350 324 OFFCURVE",
"350 374 CURVE",
"350 460 OFFCURVE",
"427 491 OFFCURVE",
"481 491 CURVE",
"568 491 OFFCURVE",
"635 428 OFFCURVE",
"635 343 CURVE",
"635 234 OFFCURVE",
"556 140 OFFCURVE",
"398 140 CURVE",
"289 140 OFFCURVE",
"149 222 OFFCURVE",
"149 385 CURVE",
"149 631 OFFCURVE",
"346 709 OFFCURVE",
"417 709 CURVE",
"417 719 OFFCURVE",
"417 726 OFFCURVE",
"417 737 CURVE",
"317 737 OFFCURVE",
"30 646 OFFCURVE",
"30 339 CURVE",
"30 177 OFFCURVE",
"136 57 OFFCURVE",
"280 5 CURVE",
"193 -9 OFFCURVE",
"181 -61 OFFCURVE",
"181 -61 CURVE",
"207 -72 LINE",
"207 -72 OFFCURVE",
"229 -21 OFFCURVE",
"313 -21 CURVE",
"474 -21 OFFCURVE",
"561 -238 OFFCURVE",
"735 -238 CURVE",
"850 -238 OFFCURVE",
"888 -147 OFFCURVE",
"888 -86 CURVE",
"888 30 OFFCURVE",
"807 82 OFFCURVE",
"807 82 CURVE"
);
}
);
width = 938;
},
{
associatedMasterId = "0BD328E4-CA8F-4CB2-8877-C1BF962BF784";
layerId = "AFD23147-CF58-43A5-810F-CBD923520949";
name = "Sep 29 18, 11:06";
paths = (
{
closed = 1;
nodes = (
"790 60 LINE",
"790 60 OFFCURVE",
"828 42 OFFCURVE",
"828 -5 CURVE",
"828 -40 OFFCURVE",
"812 -89 OFFCURVE",
"744 -89 CURVE",
"682 -89 OFFCURVE",
"593 -46 OFFCURVE",
"496 -21 CURVE",
"680 3 OFFCURVE",
"862 153 OFFCURVE",
"862 356 CURVE",
"862 537 OFFCURVE",
"708 700 OFFCURVE",
"506 700 CURVE",
"324 700 OFFCURVE",
"234 576 OFFCURVE",
"234 482 CURVE",
"234 324 OFFCURVE",
"376 290 OFFCURVE",
"376 290 CURVE",
"388 315 LINE",
"388 315 OFFCURVE",
"350 324 OFFCURVE",
"350 374 CURVE",
"350 460 OFFCURVE",
"427 491 OFFCURVE",
"481 491 CURVE",
"568 491 OFFCURVE",
"635 428 OFFCURVE",
"635 343 CURVE",
"635 234 OFFCURVE",
"556 140 OFFCURVE",
"398 140 CURVE",
"289 140 OFFCURVE",
"149 222 OFFCURVE",
"149 385 CURVE",
"149 631 OFFCURVE",
"346 709 OFFCURVE",
"417 709 CURVE",
"417 719 OFFCURVE",
"417 726 OFFCURVE",
"417 737 CURVE",
"287 737 OFFCURVE",
"30 646 OFFCURVE",
"30 339 CURVE",
"30 177 OFFCURVE",
"136 57 OFFCURVE",
"280 5 CURVE",
"193 -9 OFFCURVE",
"181 -61 OFFCURVE",
"181 -61 CURVE",
"207 -72 LINE",
"207 -72 OFFCURVE",
"229 -21 OFFCURVE",
"313 -21 CURVE",
"474 -21 OFFCURVE",
"561 -238 OFFCURVE",
"735 -238 CURVE",
"850 -238 OFFCURVE",
"888 -147 OFFCURVE",
"888 -86 CURVE",
"888 30 OFFCURVE",
"807 82 OFFCURVE",
"807 82 CURVE"
);
}
);
width = 938;
}
);
leftKerningGroup = O;
rightKerningGroup = O;
unicode = 0051;
},
{
glyphname = R;
lastChange = "2021-02-15 15:05:49 +0000";
layers = (
{
anchors = (
{
name = bottom;
position = "{455, 0}";
},
{
name = top;
position = "{455, 700}";
}
);
guideLines = (
{
angle = 90;
position = "{487, 29}";
},
{
angle = 90;
position = "{563, -13}";
}
);
layerId = "0BD328E4-CA8F-4CB2-8877-C1BF962BF784";
paths = (
{
closed = 1;
nodes = (
"764 616 OFFCURVE",
"651 700 OFFCURVE",
"479 700 CURVE SMOOTH",
"25 700 LINE",
"25 671 LINE",
"151 671 OFFCURVE",
"214 511 OFFCURVE",
"214 350 CURVE SMOOTH",
"214 190 OFFCURVE",
"151 29 OFFCURVE",
"25 29 CURVE",
"25 0 LINE",
"487 0 LINE",
"487 29 LINE",
"429 29 OFFCURVE",
"391 157 OFFCURVE",
"391 350 CURVE SMOOTH",
"391 533 OFFCURVE",
"434 613 OFFCURVE",
"479 613 CURVE SMOOTH",
"522 613 OFFCURVE",
"552 556 OFFCURVE",
"552 475 CURVE SMOOTH",
"552 342 OFFCURVE",
"498 248 OFFCURVE",
"422 248 CURVE",
"422 219 LINE",
"508 219 OFFCURVE",
"566 143 OFFCURVE",
"566 87 CURVE SMOOTH",
"566 56 OFFCURVE",
"548 29 OFFCURVE",
"509 29 CURVE",
"509 0 LINE",
"881 0 LINE",
"881 29 LINE",
"804 29 OFFCURVE",
"700 135 OFFCURVE",
"621 293 CURVE",
"597 249 LINE",
"697 288 OFFCURVE",
"764 379 OFFCURVE",
"764 475 CURVE SMOOTH"
);
}
);
width = 906;
},
{
associatedMasterId = "0BD328E4-CA8F-4CB2-8877-C1BF962BF784";
layerId = "68971402-7C59-40B5-B9EB-1041012EDF4A";
name = "Mar 20 18, 14:39";
paths = (
{
closed = 1;
nodes = (
"714 310 OFFCURVE",
"768 388 OFFCURVE",
"768 475 CURVE",
"768 616 OFFCURVE",
"654 700 OFFCURVE",
"482 700 CURVE",
"38 700 LINE",
"38 671 LINE",
"38 671 OFFCURVE",
"227 671 OFFCURVE",
"227 350 CURVE",
"227 29 OFFCURVE",
"38 29 OFFCURVE",
"38 29 CURVE",
"38 0 LINE",
"490 0 LINE",
"490 29 LINE",
"490 29 OFFCURVE",
"394 29 OFFCURVE",
"394 332 CURVE",
"394 525 OFFCURVE",
"458 613 OFFCURVE",
"482 613 CURVE",
"522 613 OFFCURVE",
"555 520 OFFCURVE",
"555 437 CURVE",
"555 286 OFFCURVE",
"428 248 OFFCURVE",
"428 248 CURVE",
"428 248 OFFCURVE",
"428 248 OFFCURVE",
"428 219 CURVE",
"496 219 OFFCURVE",
"571 124 OFFCURVE",
"571 88 CURVE",
"571 30 OFFCURVE",
"515 30 OFFCURVE",
"515 30 CURVE",
"515 1 LINE",
"901 1 LINE",
"901 30 LINE",
"748 30 OFFCURVE",
"626 200 OFFCURVE",
"626 264 CURVE"
);
}
);
width = 939;
},
{
associatedMasterId = "0BD328E4-CA8F-4CB2-8877-C1BF962BF784";
layerId = "B5F16090-F2B3-450F-A8AD-2240A6444743";
name = "Mar 28 18, 15:50";
paths = (
{
closed = 1;
nodes = (
"714 310 OFFCURVE",
"767 387 OFFCURVE",
"767 475 CURVE",
"767 616 OFFCURVE",
"654 700 OFFCURVE",
"482 700 CURVE",
"38 700 LINE",
"38 671 LINE",
"38 671 OFFCURVE",
"228 671 OFFCURVE",
"228 350 CURVE",
"228 29 OFFCURVE",
"38 29 OFFCURVE",
"38 29 CURVE",
"38 0 LINE",
"512 0 LINE",
"512 29 LINE",
"512 29 OFFCURVE",
"392 29 OFFCURVE",
"392 332 CURVE",
"392 525 OFFCURVE",
"457 612 OFFCURVE",
"482 612 CURVE",
"522 612 OFFCURVE",
"555 519 OFFCURVE",
"555 437 CURVE",
"555 286 OFFCURVE",
"428 248 OFFCURVE",
"428 248 CURVE",
"428 248 OFFCURVE",
"428 248 OFFCURVE",
"428 219 CURVE",
"496 219 OFFCURVE",
"571 123 OFFCURVE",
"571 87 CURVE",
"571 29 OFFCURVE",
"537 29 OFFCURVE",
"537 29 CURVE",
"537 0 LINE",
"857 0 LINE",
"857 29 LINE",
"748 29 OFFCURVE",
"701 161 OFFCURVE",
"626 264 CURVE"
);
}
);
width = 895;
}
);
leftKerningGroup = H;
rightKerningGroup = R;
unicode = 0052;
},
{
glyphname = S;
lastChange = "2021-02-15 15:06:11 +0000";
layers = (
{
anchors = (
{
name = bottom;
position = "{274, 0}";
},
{
name = top;
position = "{402, 700}";
}
);
layerId = "0BD328E4-CA8F-4CB2-8877-C1BF962BF784";
paths = (
{
closed = 1;
nodes = (
"452 700 LINE SMOOTH",
"320 700 OFFCURVE",
"159 680 OFFCURVE",
"159 570 CURVE SMOOTH",
"159 443 OFFCURVE",
"426 380 OFFCURVE",
"426 262 CURVE SMOOTH",
"426 180 OFFCURVE",
"364 155 OFFCURVE",
"322 155 CURVE SMOOTH",
"240 155 OFFCURVE",
"149 226 OFFCURVE",
"149 319 CURVE SMOOTH",
"149 414 OFFCURVE",
"215 414 OFFCURVE",
"215 414 CURVE",
"215 444 LINE",
"105 444 OFFCURVE",
"25 380 OFFCURVE",
"25 243 CURVE SMOOTH",
"25 67 OFFCURVE",
"213 -50 OFFCURVE",
"375 -50 CURVE SMOOTH",
"553 -50 OFFCURVE",
"657 50 OFFCURVE",
"657 166 CURVE SMOOTH",
"657 368 OFFCURVE",
"388 441 OFFCURVE",
"388 543 CURVE SMOOTH",
"388 589 OFFCURVE",
"425 609 OFFCURVE",
"454 609 CURVE SMOOTH",
"597 609 OFFCURVE",
"597 350 OFFCURVE",
"597 350 CURVE",
"627 350 LINE",
"663 700 LINE"
);
}
);
width = 688;
},
{
associatedMasterId = "0BD328E4-CA8F-4CB2-8877-C1BF962BF784";
layerId = "AF1D5330-6E2B-43BA-9486-712550081E4A";
name = "Mar 11 18, 16:31";
paths = (
{
closed = 1;
nodes = (
"455 700 LINE",
"363 700 OFFCURVE",
"242 660 OFFCURVE",
"242 550 CURVE",
"242 423 OFFCURVE",
"439 380 OFFCURVE",
"439 262 CURVE",
"439 217 OFFCURVE",
"394 182 OFFCURVE",
"335 182 CURVE",
"253 182 OFFCURVE",
"162 246 OFFCURVE",
"162 339 CURVE",
"162 434 OFFCURVE",
"229 434 OFFCURVE",
"229 434 CURVE",
"229 434 OFFCURVE",
"229 444 OFFCURVE",
"229 464 CURVE",
"118 464 OFFCURVE",
"38 380 OFFCURVE",
"38 243 CURVE",
"38 67 OFFCURVE",
"206 -60 OFFCURVE",
"369 -60 CURVE",
"526 -60 OFFCURVE",
"699 22 OFFCURVE",
"699 186 CURVE",
"699 398 OFFCURVE",
"442 441 OFFCURVE",
"442 543 CURVE",
"442 589 OFFCURVE",
"478 609 OFFCURVE",
"508 609 CURVE",
"650 609 OFFCURVE",
"650 350 OFFCURVE",
"650 350 CURVE",
"680 350 LINE",
"726 700 LINE"
);
}
);
width = 764;
},
{
associatedMasterId = "0BD328E4-CA8F-4CB2-8877-C1BF962BF784";
layerId = "1ACD6EFD-1457-4878-A7B3-DD47D711807D";
name = "Mar 22 18, 10:43";
paths = (
{
closed = 1;
nodes = (
"455 700 LINE",
"363 700 OFFCURVE",
"242 660 OFFCURVE",
"242 550 CURVE",
"242 423 OFFCURVE",
"439 380 OFFCURVE",
"439 262 CURVE",
"439 217 OFFCURVE",
"394 182 OFFCURVE",
"335 182 CURVE",
"253 182 OFFCURVE",
"162 246 OFFCURVE",
"162 339 CURVE",
"162 434 OFFCURVE",
"228 434 OFFCURVE",
"228 434 CURVE",
"228 434 OFFCURVE",
"228 444 OFFCURVE",
"228 464 CURVE",
"118 464 OFFCURVE",
"38 380 OFFCURVE",
"38 243 CURVE",
"38 67 OFFCURVE",
"226 -60 OFFCURVE",
"388 -60 CURVE",
"546 -60 OFFCURVE",
"698 22 OFFCURVE",
"698 186 CURVE",
"698 398 OFFCURVE",
"441 441 OFFCURVE",
"441 543 CURVE",
"441 589 OFFCURVE",
"478 609 OFFCURVE",
"507 609 CURVE",
"650 609 OFFCURVE",
"650 350 OFFCURVE",
"650 350 CURVE",
"680 350 LINE",
"716 700 LINE"
);
}
);
width = 764;
},
{
associatedMasterId = "0BD328E4-CA8F-4CB2-8877-C1BF962BF784";
layerId = "57ED0D73-4C57-46EE-B2DD-704FB2C3BC09";
name = "Sep 12 18, 11:33";
paths = (
{
closed = 1;
nodes = (
"377 700 LINE",
"285 700 OFFCURVE",
"154 680 OFFCURVE",
"154 570 CURVE",
"154 443 OFFCURVE",
"421 380 OFFCURVE",
"421 262 CURVE SMOOTH",
"421 180 OFFCURVE",
"359 155 OFFCURVE",
"317 155 CURVE",
"235 155 OFFCURVE",
"144 226 OFFCURVE",
"144 319 CURVE",
"144 414 OFFCURVE",
"210 414 OFFCURVE",
"210 414 CURVE",
"210 414 OFFCURVE",
"210 424 OFFCURVE",
"210 444 CURVE",
"100 444 OFFCURVE",
"20 380 OFFCURVE",
"20 243 CURVE",
"20 67 OFFCURVE",
"208 -50 OFFCURVE",
"370 -50 CURVE",
"528 -50 OFFCURVE",
"622 40 OFFCURVE",
"622 156 CURVE",
"622 368 OFFCURVE",
"363 441 OFFCURVE",
"363 543 CURVE",
"363 589 OFFCURVE",
"400 609 OFFCURVE",
"429 609 CURVE",
"572 609 OFFCURVE",
"572 350 OFFCURVE",
"572 350 CURVE",
"602 350 LINE",
"638 700 LINE"
);
}
);
width = 658;
}
);
leftKerningGroup = S;
unicode = 0053;
},
{
glyphname = Scommaaccent;
lastChange = "2018-10-02 17:55:20 +0000";
layers = (
{
layerId = "0BD328E4-CA8F-4CB2-8877-C1BF962BF784";
paths = (
{
closed = 1;
nodes = (
"397 700 LINE",
"305 700 OFFCURVE",
"154 680 OFFCURVE",
"154 570 CURVE",
"154 443 OFFCURVE",
"421 380 OFFCURVE",
"421 262 CURVE",
"421 180 OFFCURVE",
"359 155 OFFCURVE",
"317 155 CURVE",
"235 155 OFFCURVE",
"144 226 OFFCURVE",
"144 319 CURVE",
"144 414 OFFCURVE",
"210 414 OFFCURVE",
"210 414 CURVE",
"210 414 OFFCURVE",
"210 424 OFFCURVE",
"210 444 CURVE",
"100 444 OFFCURVE",
"20 380 OFFCURVE",
"20 243 CURVE",
"20 67 OFFCURVE",
"208 -50 OFFCURVE",
"370 -50 CURVE",
"528 -50 OFFCURVE",
"642 40 OFFCURVE",
"642 156 CURVE",
"642 368 OFFCURVE",
"383 441 OFFCURVE",
"383 543 CURVE",
"383 589 OFFCURVE",
"420 609 OFFCURVE",
"449 609 CURVE",
"592 609 OFFCURVE",
"592 350 OFFCURVE",
"592 350 CURVE",
"622 350 LINE",
"658 700 LINE"
);
},
{
closed = 1;
nodes = (
"180 -47 OFFCURVE",
"154 -71 OFFCURVE",
"154 -101 CURVE",
"154 -147 OFFCURVE",
"192 -144 OFFCURVE",
"192 -168 CURVE",
"192 -191 OFFCURVE",
"168 -191 OFFCURVE",
"168 -191 CURVE SMOOTH",
"168 -220 LINE",
"211 -220 OFFCURVE",
"265 -171 OFFCURVE",
"265 -111 CURVE",
"265 -71 OFFCURVE",
"234 -47 OFFCURVE",
"208 -47 CURVE"
);
}
);
width = 678;
}
);
unicode = 0218;
},
{
glyphname = Germandbls;
lastChange = "2019-06-27 22:32:47 +0000";
layers = (
{
guideLines = (
{
position = "{797, 741}";
}
);
layerId = "0BD328E4-CA8F-4CB2-8877-C1BF962BF784";
paths = (
{
closed = 1;
nodes = (
"638 570 OFFCURVE",
"689 671 OFFCURVE",
"758 671 CURVE",
"758 700 LINE",
"451 700 LINE SMOOTH",
"352 700 OFFCURVE",
"166 644 OFFCURVE",
"164 460 CURVE SMOOTH",
"164 265 LINE",
"164 29 OFFCURVE",
"25 29 OFFCURVE",
"25 29 CURVE",
"25 0 LINE",
"459 0 LINE",
"459 29 LINE",
"450 39 OFFCURVE",
"340 27 OFFCURVE",
"340 350 CURVE",
"341 440 LINE",
"341 585 OFFCURVE",
"446 591 OFFCURVE",
"495 591 CURVE",
"495 520 OFFCURVE",
"413 433 OFFCURVE",
"392 409 CURVE",
"425 385 LINE",
"425 385 OFFCURVE",
"452 433 OFFCURVE",
"505 433 CURVE",
"579 433 OFFCURVE",
"628 346 OFFCURVE",
"628 244 CURVE",
"628 177 OFFCURVE",
"582 107 OFFCURVE",
"530 107 CURVE",
"480 107 OFFCURVE",
"457 155 OFFCURVE",
"457 206 CURVE",
"427 206 LINE",
"427 107 OFFCURVE",
"446 -10 OFFCURVE",
"588 -10 CURVE",
"737 -10 OFFCURVE",
"834 112 OFFCURVE",
"834 244 CURVE",
"834 460 OFFCURVE",
"726 527 OFFCURVE",
"638 527 CURVE"
);
}
);
width = 859;
},
{
associatedMasterId = "0BD328E4-CA8F-4CB2-8877-C1BF962BF784";
guideLines = (
{
position = "{792, 741}";
}
);
layerId = "DA15FB62-415E-4473-9507-C67FC66059DB";
name = "Apr 25 19, 11:36";
paths = (
{
closed = 1;
nodes = (
"573 570 OFFCURVE",
"654 741 OFFCURVE",
"723 741 CURVE",
"723 770 LINE",
"670 770 OFFCURVE",
"485 770 OFFCURVE",
"446 770 CURVE",
"347 770 OFFCURVE",
"161 702 OFFCURVE",
"159 508 CURVE",
"159 265 LINE",
"159 29 OFFCURVE",
"20 29 OFFCURVE",
"20 29 CURVE",
"20 0 LINE",
"434 0 LINE",
"434 29 LINE",
"425 39 OFFCURVE",
"315 27 OFFCURVE",
"315 350 CURVE",
"315 424 OFFCURVE",
"316 391 OFFCURVE",
"316 500 CURVE",
"316 641 OFFCURVE",
"421 661 OFFCURVE",
"454 661 CURVE",
"480 661 LINE",
"473 587 OFFCURVE",
"445 502 OFFCURVE",
"379 423 CURVE",
"371 414 OFFCURVE",
"367 409 OFFCURVE",
"367 409 CURVE",
"400 385 LINE",
"400 385 OFFCURVE",
"427 433 OFFCURVE",
"480 433 CURVE",
"554 433 OFFCURVE",
"603 346 OFFCURVE",
"603 244 CURVE",
"603 177 OFFCURVE",
"557 107 OFFCURVE",
"505 107 CURVE",
"455 107 OFFCURVE",
"432 155 OFFCURVE",
"432 206 CURVE",
"402 206 LINE",
"402 107 OFFCURVE",
"421 -10 OFFCURVE",
"563 -10 CURVE",
"712 -10 OFFCURVE",
"789 112 OFFCURVE",
"789 244 CURVE",
"789 460 OFFCURVE",
"661 527 OFFCURVE",
"573 527 CURVE"
);
}
);
width = 809;
},
{
associatedMasterId = "0BD328E4-CA8F-4CB2-8877-C1BF962BF784";
guideLines = (
{
position = "{792, 741}";
}
);
layerId = "F7CA1549-0AAE-44BB-9486-50A028BAC166";
name = "Apr 25 19, 17:56";
paths = (
{
closed = 1;
nodes = (
"603 570 OFFCURVE",
"684 671 OFFCURVE",
"753 671 CURVE",
"753 700 LINE",
"446 700 LINE",
"347 700 OFFCURVE",
"161 624 OFFCURVE",
"159 440 CURVE",
"159 265 LINE",
"159 29 OFFCURVE",
"20 29 OFFCURVE",
"20 29 CURVE",
"20 0 LINE",
"434 0 LINE",
"434 29 LINE",
"425 39 OFFCURVE",
"315 27 OFFCURVE",
"315 350 CURVE",
"316 440 LINE",
"316 585 OFFCURVE",
"421 591 OFFCURVE",
"470 591 CURVE",
"470 520 OFFCURVE",
"388 433 OFFCURVE",
"367 409 CURVE",
"400 385 LINE",
"400 385 OFFCURVE",
"427 433 OFFCURVE",
"480 433 CURVE",
"554 433 OFFCURVE",
"603 346 OFFCURVE",
"603 244 CURVE",
"603 177 OFFCURVE",
"557 107 OFFCURVE",
"505 107 CURVE",
"455 107 OFFCURVE",
"432 155 OFFCURVE",
"432 206 CURVE",
"402 206 LINE",
"402 107 OFFCURVE",
"421 -10 OFFCURVE",
"563 -10 CURVE",
"712 -10 OFFCURVE",
"809 112 OFFCURVE",
"809 244 CURVE",
"809 460 OFFCURVE",
"691 527 OFFCURVE",
"603 527 CURVE"
);
}
);
width = 844;
}
);
leftKerningGroup = H;
rightKerningGroup = B;
unicode = 1E9E;
},
{
glyphname = T;
lastChange = "2020-11-17 23:28:15 +0000";
layers = (
{
anchors = (
{
name = bottom;
position = "{414, 0}";
},
{
name = center;
position = "{414, 350}";
},
{
name = top;
position = "{414, 700}";
}
);
layerId = "0BD328E4-CA8F-4CB2-8877-C1BF962BF784";
paths = (
{
closed = 1;
nodes = (
"59 362 LINE",
"59 362 OFFCURVE",
"59 362 OFFCURVE",
"88 362 CURVE",
"88 456 OFFCURVE",
"88 602 OFFCURVE",
"191 602 CURVE",
"269 602 OFFCURVE",
"321 501 OFFCURVE",
"321 350 CURVE",
"321 157 OFFCURVE",
"247 29 OFFCURVE",
"137 29 CURVE",
"137 0 LINE",
"691 0 LINE",
"691 29 LINE",
"581 29 OFFCURVE",
"507 157 OFFCURVE",
"507 350 CURVE",
"507 501 OFFCURVE",
"559 602 OFFCURVE",
"637 602 CURVE",
"740 602 OFFCURVE",
"740 456 OFFCURVE",
"740 362 CURVE",
"769 362 OFFCURVE",
"769 362 OFFCURVE",
"769 362 CURVE",
"803 700 LINE",
"25 700 LINE"
);
}
);
width = 828;
}
);
leftKerningGroup = T;
rightKerningGroup = T;
unicode = 0054;
},
{
glyphname = Tbar;
lastChange = "2019-10-08 08:56:15 +0000";
layers = (
{
anchors = (
{
name = bottom;
position = "{409, 0}";
},
{
name = center;
position = "{409, 350}";
},
{
name = top;
position = "{409, 700}";
}
);
layerId = "0BD328E4-CA8F-4CB2-8877-C1BF962BF784";
paths = (
{
closed = 1;
nodes = (
"54 362 LINE",
"54 362 OFFCURVE",
"54 362 OFFCURVE",
"83 362 CURVE",
"83 456 OFFCURVE",
"83 602 OFFCURVE",
"186 602 CURVE",
"283 602 OFFCURVE",
"316 438 OFFCURVE",
"316 350 CURVE",
"316 29 OFFCURVE",
"132 29 OFFCURVE",
"132 29 CURVE",
"132 0 LINE",
"686 0 LINE",
"686 29 LINE",
"686 29 OFFCURVE",
"502 29 OFFCURVE",
"502 350 CURVE",
"502 438 OFFCURVE",
"535 602 OFFCURVE",
"632 602 CURVE",
"735 602 OFFCURVE",
"735 456 OFFCURVE",
"735 362 CURVE",
"764 362 OFFCURVE",
"764 362 OFFCURVE",
"764 362 CURVE",
"798 700 LINE",
"20 700 LINE"
);
},
{
closed = 1;
nodes = (
"184 413 LINE",
"184 288 LINE",
"213 288 LINE",
"213 288 OFFCURVE",
"213 317 OFFCURVE",
"409 317 CURVE",
"605 317 OFFCURVE",
"605 288 OFFCURVE",
"605 288 CURVE",
"634 288 LINE",
"634 413 LINE",
"605 413 LINE",
"605 413 OFFCURVE",
"605 384 OFFCURVE",
"409 384 CURVE",
"213 384 OFFCURVE",
"213 413 OFFCURVE",
"213 413 CURVE"
);
}
);
width = 818;
}
);
leftKerningGroup = T;
rightKerningGroup = T;
unicode = 0166;
},
{
glyphname = Tcedilla;
lastChange = "2018-10-05 22:25:52 +0000";
layers = (
{
layerId = "0BD328E4-CA8F-4CB2-8877-C1BF962BF784";
paths = (
{
closed = 1;
nodes = (
"54 362 LINE",
"54 362 OFFCURVE",
"54 362 OFFCURVE",
"83 362 CURVE",
"83 456 OFFCURVE",
"83 602 OFFCURVE",
"191 602 CURVE",
"288 602 OFFCURVE",
"321 438 OFFCURVE",
"321 350 CURVE",
"321 29 OFFCURVE",
"132 29 OFFCURVE",
"132 29 CURVE",
"132 0 LINE",
"686 0 LINE",
"686 29 LINE",
"686 29 OFFCURVE",
"497 29 OFFCURVE",
"497 350 CURVE",
"497 438 OFFCURVE",
"530 602 OFFCURVE",
"627 602 CURVE",
"735 602 OFFCURVE",
"735 456 OFFCURVE",
"735 362 CURVE",
"764 362 OFFCURVE",
"764 362 OFFCURVE",
"764 362 CURVE",
"798 700 LINE",
"20 700 LINE"
);
},
{
closed = 1;
nodes = (
"418 -63 OFFCURVE",
"412 -63 OFFCURVE",
"407 -64 CURVE",
"444 5 LINE",
"362 5 LINE",
"330 -114 LINE",
"339 -123 LINE",
"339 -123 OFFCURVE",
"357 -94 OFFCURVE",
"402 -94 CURVE",
"437 -94 OFFCURVE",
"458 -110 OFFCURVE",
"458 -139 CURVE",
"458 -167 OFFCURVE",
"435 -185 OFFCURVE",
"402 -185 CURVE",
"362 -185 OFFCURVE",
"339 -155 OFFCURVE",
"339 -155 CURVE",
"330 -164 LINE",
"330 -164 OFFCURVE",
"362 -212 OFFCURVE",
"420 -212 CURVE",
"476 -212 OFFCURVE",
"523 -189 OFFCURVE",
"523 -139 CURVE",
"523 -88 OFFCURVE",
"477 -63 OFFCURVE",
"425 -63 CURVE"
);
}
);
width = 818;
}
);
leftKerningGroup = T;
rightKerningGroup = T;
unicode = 0162;
},
{
glyphname = U;
lastChange = "2021-02-15 15:06:34 +0000";
layers = (
{
anchors = (
{
name = bottom;
position = "{455, 0}";
},
{
name = ogonek;
position = "{528, 10}";
},
{
name = top;
position = "{455, 700}";
},
{
name = topright;
position = "{859, 670}";
}
);
guideLines = (
{
position = "{655, 158}";
}
);
layerId = "0BD328E4-CA8F-4CB2-8877-C1BF962BF784";
paths = (
{
closed = 1;
nodes = (
"468 670 LINE",
"538 670 OFFCURVE",
"585 572 OFFCURVE",
"585 424 CURVE SMOOTH",
"585 232 OFFCURVE",
"533 158 OFFCURVE",
"455 158 CURVE SMOOTH",
"377 158 OFFCURVE",
"325 232 OFFCURVE",
"325 424 CURVE SMOOTH",
"325 572 OFFCURVE",
"372 670 OFFCURVE",
"442 670 CURVE",
"442 700 LINE",
"20 700 LINE",
"20 670 LINE",
"84 670 OFFCURVE",
"126 557 OFFCURVE",
"126 387 CURVE SMOOTH",
"126 127 OFFCURVE",
"244 -20 OFFCURVE",
"455 -20 CURVE SMOOTH",
"659 -20 OFFCURVE",
"774 127 OFFCURVE",
"774 387 CURVE SMOOTH",
"774 557 OFFCURVE",
"820 670 OFFCURVE",
"889 670 CURVE",
"889 700 LINE",
"467 700 LINE"
);
}
);
width = 909;
},
{
associatedMasterId = "0BD328E4-CA8F-4CB2-8877-C1BF962BF784";
layerId = "6528B460-89C8-4777-9A7F-730CEAC4FF6B";
name = "Mar 19 18, 18:21";
paths = (
{
closed = 1;
nodes = (
"485 670 OFFCURVE",
"654 670 OFFCURVE",
"654 390 CURVE",
"654 199 OFFCURVE",
"579 118 OFFCURVE",
"472 118 CURVE",
"366 118 OFFCURVE",
"291 199 OFFCURVE",
"291 390 CURVE",
"291 670 OFFCURVE",
"460 670 OFFCURVE",
"460 670 CURVE",
"460 700 LINE",
"38 700 LINE",
"38 670 LINE",
"38 670 OFFCURVE",
"106 670 OFFCURVE",
"106 369 CURVE",
"106 87 OFFCURVE",
"271 -60 OFFCURVE",
"472 -60 CURVE",
"674 -60 OFFCURVE",
"839 87 OFFCURVE",
"839 369 CURVE",
"839 670 OFFCURVE",
"907 670 OFFCURVE",
"907 670 CURVE",
"907 700 LINE",
"485 700 LINE",
"485 670 LINE"
);
}
);
width = 945;
},
{
associatedMasterId = "0BD328E4-CA8F-4CB2-8877-C1BF962BF784";
layerId = "D36724E6-AF7E-4A88-80F1-7CED659DD090";
name = "Mar 13 18, 16:33";
paths = (
{
closed = 1;
nodes = (
"486 670 LINE",
"486 670 OFFCURVE",
"585 670 OFFCURVE",
"585 538 CURVE",
"585 537 OFFCURVE",
"585 390 OFFCURVE",
"585 390 CURVE",
"585 199 OFFCURVE",
"579 118 OFFCURVE",
"473 118 CURVE",
"367 118 OFFCURVE",
"361 199 OFFCURVE",
"361 390 CURVE",
"361 390 OFFCURVE",
"361 537 OFFCURVE",
"361 538 CURVE",
"361 670 OFFCURVE",
"460 670 OFFCURVE",
"460 670 CURVE",
"460 700 LINE",
"38 700 LINE",
"38 670 LINE",
"38 670 OFFCURVE",
"188 618 OFFCURVE",
"188 320 CURVE",
"188 38 OFFCURVE",
"271 -60 OFFCURVE",
"473 -60 CURVE",
"675 -60 OFFCURVE",
"758 38 OFFCURVE",
"758 320 CURVE",
"758 618 OFFCURVE",
"907 670 OFFCURVE",
"907 670 CURVE",
"907 700 LINE",
"486 700 LINE"
);
}
);
width = 945;
},
{
associatedMasterId = "0BD328E4-CA8F-4CB2-8877-C1BF962BF784";
layerId = "70170FCB-8D24-4E48-B3D2-A23CB57C6142";
name = "Mar 22 18, 01:13";
paths = (
{
closed = 1;
nodes = (
"486 670 LINE",
"486 670 OFFCURVE",
"619 670 OFFCURVE",
"619 394 CURVE",
"619 203 OFFCURVE",
"579 118 OFFCURVE",
"473 118 CURVE",
"367 118 OFFCURVE",
"327 203 OFFCURVE",
"327 394 CURVE",
"327 670 OFFCURVE",
"460 670 OFFCURVE",
"460 670 CURVE",
"460 700 LINE",
"38 700 LINE",
"38 670 LINE",
"38 670 OFFCURVE",
"154 670 OFFCURVE",
"154 337 CURVE",
"154 76 OFFCURVE",
"275 -60 OFFCURVE",
"473 -60 CURVE",
"670 -60 OFFCURVE",
"792 76 OFFCURVE",
"792 337 CURVE",
"792 670 OFFCURVE",
"907 670 OFFCURVE",
"907 670 CURVE",
"907 700 LINE",
"485 700 LINE"
);
}
);
width = 945;
},
{
associatedMasterId = "0BD328E4-CA8F-4CB2-8877-C1BF962BF784";
layerId = "60592813-E2E5-404E-8957-E0AA1581B9FE";
name = "May 4 18, 21:28";
paths = (
{
closed = 1;
nodes = (
"488 670 LINE",
"488 670 OFFCURVE",
"621 670 OFFCURVE",
"621 424 CURVE",
"621 233 OFFCURVE",
"581 158 OFFCURVE",
"475 158 CURVE",
"369 158 OFFCURVE",
"329 233 OFFCURVE",
"329 424 CURVE",
"329 670 OFFCURVE",
"462 670 OFFCURVE",
"462 670 CURVE",
"462 700 LINE",
"40 700 LINE",
"40 670 LINE",
"40 670 OFFCURVE",
"156 670 OFFCURVE",
"156 367 CURVE",
"156 106 OFFCURVE",
"277 -20 OFFCURVE",
"475 -20 CURVE",
"672 -20 OFFCURVE",
"794 106 OFFCURVE",
"794 367 CURVE",
"794 670 OFFCURVE",
"909 670 OFFCURVE",
"909 670 CURVE",
"909 700 LINE",
"487 700 LINE"
);
}
);
width = 949;
}
);
leftKerningGroup = U;
rightKerningGroup = U;
unicode = 0055;
},
{
glyphname = V;
lastChange = "2019-10-22 11:51:42 +0000";
layers = (
{
anchors = (
{
name = bottom;
position = "{515, 0}";
},
{
name = top;
position = "{515, 700}";
}
);
layerId = "0BD328E4-CA8F-4CB2-8877-C1BF962BF784";
paths = (
{
closed = 1;
nodes = (
"502 671 LINE",
"502 671 OFFCURVE",
"417 671 OFFCURVE",
"417 571 CURVE",
"417 466 OFFCURVE",
"509 228 OFFCURVE",
"509 160 CURVE",
"519 160 LINE",
"519 228 OFFCURVE",
"611 466 OFFCURVE",
"611 571 CURVE",
"611 671 OFFCURVE",
"527 671 OFFCURVE",
"527 671 CURVE",
"527 700 LINE",
"989 700 LINE",
"989 671 LINE",
"989 671 OFFCURVE",
"718 671 OFFCURVE",
"718 204 CURVE",
"718 29 OFFCURVE",
"808 29 OFFCURVE",
"808 29 CURVE",
"808 0 LINE",
"201 0 LINE",
"200 0 LINE",
"200 29 LINE",
"200 29 OFFCURVE",
"291 29 OFFCURVE",
"291 204 CURVE",
"291 671 OFFCURVE",
"20 671 OFFCURVE",
"20 671 CURVE",
"20 700 LINE",
"502 700 LINE"
);
}
);
width = 1009;
}
);
leftKerningGroup = Y;
rightKerningGroup = Y;
unicode = 0056;
},
{
glyphname = W;
lastChange = "2019-06-27 21:27:45 +0000";
layers = (
{
anchors = (
{
name = bottom;
position = "{773, 0}";
},
{
name = top;
position = "{773, 700}";
}
);
layerId = "0BD328E4-CA8F-4CB2-8877-C1BF962BF784";
paths = (
{
closed = 1;
nodes = (
"20 700 LINE",
"20 671 LINE",
"20 671 OFFCURVE",
"291 671 OFFCURVE",
"291 205 CURVE",
"291 29 OFFCURVE",
"221 29 OFFCURVE",
"221 29 CURVE",
"221 0 LINE",
"761 0 LINE",
"761 29 LINE",
"761 29 OFFCURVE",
"717 29 OFFCURVE",
"717 205 CURVE",
"717 338 OFFCURVE",
"740 433 OFFCURVE",
"773 501 CURVE",
"806 433 OFFCURVE",
"829 338 OFFCURVE",
"829 205 CURVE",
"829 29 OFFCURVE",
"785 29 OFFCURVE",
"785 29 CURVE",
"785 0 LINE",
"1325 0 LINE",
"1325 29 LINE",
"1325 29 OFFCURVE",
"1255 29 OFFCURVE",
"1255 205 CURVE",
"1255 671 OFFCURVE",
"1526 671 OFFCURVE",
"1526 671 CURVE",
"1526 700 LINE",
"1053 700 LINE",
"1053 671 LINE",
"1053 671 OFFCURVE",
"1138 671 OFFCURVE",
"1138 572 CURVE",
"1138 466 OFFCURVE",
"1046 229 OFFCURVE",
"1046 160 CURVE",
"1046 160 OFFCURVE",
"1041 160 OFFCURVE",
"1041 160 CURVE",
"1041 160 OFFCURVE",
"1036 160 OFFCURVE",
"1036 160 CURVE",
"1036 229 OFFCURVE",
"944 466 OFFCURVE",
"944 572 CURVE",
"944 671 OFFCURVE",
"1029 671 OFFCURVE",
"1029 671 CURVE",
"1029 700 LINE",
"527 700 LINE",
"527 671 LINE",
"527 671 OFFCURVE",
"612 671 OFFCURVE",
"612 572 CURVE",
"612 466 OFFCURVE",
"520 229 OFFCURVE",
"519 160 CURVE",
"519 160 OFFCURVE",
"515 160 OFFCURVE",
"515 160 CURVE",
"515 160 OFFCURVE",
"510 160 OFFCURVE",
"510 160 CURVE",
"510 229 OFFCURVE",
"417 466 OFFCURVE",
"417 572 CURVE",
"417 671 OFFCURVE",
"502 671 OFFCURVE",
"502 671 CURVE",
"502 700 LINE"
);
}
);
width = 1546;
},
{
anchors = (
{
name = bottom;
position = "{763, 0}";
},
{
name = top;
position = "{763, 700}";
}
);
associatedMasterId = "0BD328E4-CA8F-4CB2-8877-C1BF962BF784";
layerId = "91DCA5C0-DBCC-4C36-8680-0F9CF63D359B";
name = "Oct 16 18, 21:04";
paths = (
{
closed = 1;
nodes = (
"492 671 LINE",
"492 671 OFFCURVE",
"407 671 OFFCURVE",
"407 572 CURVE",
"407 466 OFFCURVE",
"500 229 OFFCURVE",
"500 160 CURVE",
"500 160 OFFCURVE",
"505 160 OFFCURVE",
"505 160 CURVE",
"505 160 OFFCURVE",
"509 160 OFFCURVE",
"509 160 CURVE",
"510 229 OFFCURVE",
"602 466 OFFCURVE",
"602 572 CURVE",
"602 671 OFFCURVE",
"517 671 OFFCURVE",
"517 671 CURVE",
"517 700 LINE",
"1009 700 LINE",
"1009 671 LINE",
"1009 671 OFFCURVE",
"924 671 OFFCURVE",
"924 572 CURVE",
"924 466 OFFCURVE",
"1016 229 OFFCURVE",
"1016 160 CURVE",
"1016 160 OFFCURVE",
"1021 160 OFFCURVE",
"1021 160 CURVE",
"1021 160 OFFCURVE",
"1026 160 OFFCURVE",
"1026 160 CURVE",
"1026 229 OFFCURVE",
"1118 466 OFFCURVE",
"1118 572 CURVE",
"1118 671 OFFCURVE",
"1033 671 OFFCURVE",
"1033 671 CURVE",
"1033 700 LINE",
"1506 700 LINE",
"1506 671 LINE",
"1506 671 OFFCURVE",
"1235 671 OFFCURVE",
"1235 205 CURVE",
"1235 29 OFFCURVE",
"1305 29 OFFCURVE",
"1305 29 CURVE",
"1305 0 LINE",
"775 0 LINE",
"775 29 LINE",
"775 29 OFFCURVE",
"819 29 OFFCURVE",
"819 205 CURVE",
"819 338 OFFCURVE",
"796 433 OFFCURVE",
"763 501 CURVE",
"730 433 OFFCURVE",
"707 338 OFFCURVE",
"707 205 CURVE",
"707 29 OFFCURVE",
"751 29 OFFCURVE",
"751 29 CURVE",
"751 0 LINE",
"221 0 LINE",
"221 29 LINE",
"221 29 OFFCURVE",
"291 29 OFFCURVE",
"291 205 CURVE",
"291 671 OFFCURVE",
"20 671 OFFCURVE",
"20 671 CURVE",
"20 700 LINE",
"492 700 LINE"
);
}
);
width = 1526;
}
);
leftKerningGroup = Y;
rightKerningGroup = Y;
unicode = 0057;
},
{
glyphname = X;
lastChange = "2019-07-23 07:38:01 +0000";
layers = (
{
associatedMasterId = "0BD328E4-CA8F-4CB2-8877-C1BF962BF784";
layerId = "7F17C801-C96B-47DF-B5A7-FA61C7332E86";
name = "Mar 28 18, 00:03";
paths = (
{
closed = 1;
nodes = (
"853 700 OFFCURVE",
"853 700 OFFCURVE",
"853 700 CURVE",
"458 700 LINE",
"458 671 LINE",
"458 671 OFFCURVE",
"514 671 OFFCURVE",
"514 600 CURVE",
"514 540 OFFCURVE",
"446 446 OFFCURVE",
"446 446 CURVE",
"446 446 OFFCURVE",
"378 540 OFFCURVE",
"378 600 CURVE",
"378 671 OFFCURVE",
"434 671 OFFCURVE",
"434 671 CURVE",
"434 700 LINE",
"433 700 LINE",
"38 700 LINE",
"38 700 OFFCURVE",
"38 700 OFFCURVE",
"38 671 CURVE",
"159 671 OFFCURVE",
"257 511 OFFCURVE",
"371 352 CURVE",
"258 193 OFFCURVE",
"159 33 OFFCURVE",
"38 33 CURVE",
"38 4 OFFCURVE",
"38 4 OFFCURVE",
"38 4 CURVE",
"433 4 LINE",
"433 33 LINE",
"433 33 OFFCURVE",
"377 33 OFFCURVE",
"377 104 CURVE",
"377 164 OFFCURVE",
"445 258 OFFCURVE",
"445 258 CURVE",
"445 258 OFFCURVE",
"513 164 OFFCURVE",
"513 104 CURVE",
"513 33 OFFCURVE",
"457 33 OFFCURVE",
"457 33 CURVE",
"457 4 LINE",
"458 4 LINE",
"853 4 LINE",
"853 4 OFFCURVE",
"853 4 OFFCURVE",
"853 33 CURVE",
"732 33 OFFCURVE",
"634 193 OFFCURVE",
"520 352 CURVE",
"633 511 OFFCURVE",
"732 671 OFFCURVE",
"853 671 CURVE"
);
}
);
width = 891;
},
{
annotations = (
{
position = "{88, -43}";
type = Plus;
}
);
associatedMasterId = "0BD328E4-CA8F-4CB2-8877-C1BF962BF784";
layerId = "0D255EEA-6AC7-4DF2-8E8E-3E48A5C2EB9A";
name = "Mar 28 18, 00:04";
paths = (
{
closed = 1;
nodes = (
"953 700 OFFCURVE",
"953 700 OFFCURVE",
"953 700 CURVE",
"508 700 LINE",
"508 671 LINE",
"508 671 OFFCURVE",
"565 671 OFFCURVE",
"565 618 CURVE",
"565 578 OFFCURVE",
"538 519 OFFCURVE",
"495 454 CURVE",
"453 519 OFFCURVE",
"426 578 OFFCURVE",
"426 618 CURVE",
"426 671 OFFCURVE",
"483 671 OFFCURVE",
"483 671 CURVE",
"483 700 LINE",
"38 700 LINE",
"38 700 OFFCURVE",
"38 700 OFFCURVE",
"38 671 CURVE",
"159 671 OFFCURVE",
"307 511 OFFCURVE",
"421 352 CURVE",
"291 191 OFFCURVE",
"117 29 OFFCURVE",
"38 29 CURVE",
"38 0 OFFCURVE",
"38 0 OFFCURVE",
"38 0 CURVE",
"483 0 LINE",
"483 29 LINE",
"483 29 OFFCURVE",
"426 34 OFFCURVE",
"426 70 CURVE",
"426 102 OFFCURVE",
"452 165 OFFCURVE",
"495 239 CURVE",
"538 165 OFFCURVE",
"565 102 OFFCURVE",
"565 70 CURVE",
"565 34 OFFCURVE",
"507 29 OFFCURVE",
"507 29 CURVE",
"507 0 LINE",
"953 0 LINE",
"953 0 OFFCURVE",
"953 0 OFFCURVE",
"953 29 CURVE",
"873 29 OFFCURVE",
"700 191 OFFCURVE",
"570 352 CURVE",
"683 511 OFFCURVE",
"832 671 OFFCURVE",
"953 671 CURVE"
);
}
);
width = 991;
},
{
anchors = (
{
name = bottom;
position = "{491, 0}";
},
{
name = top;
position = "{491, 700}";
}
);
guideLines = (
{
position = "{582, 447}";
},
{
position = "{593, 247}";
},
{
position = "{593, 295}";
},
{
position = "{594, 410}";
}
);
layerId = "0BD328E4-CA8F-4CB2-8877-C1BF962BF784";
paths = (
{
closed = 1;
nodes = (
"503 700 LINE",
"503 671 LINE",
"503 671 OFFCURVE",
"550 671 OFFCURVE",
"550 619 CURVE",
"550 577 OFFCURVE",
"526 515 OFFCURVE",
"482 447 CURVE",
"435 410 LINE",
"310 232 OFFCURVE",
"107 29 OFFCURVE",
"25 29 CURVE",
"25 0 OFFCURVE",
"25 0 OFFCURVE",
"25 0 CURVE",
"479 0 LINE",
"479 29 LINE",
"479 29 OFFCURVE",
"430 34 OFFCURVE",
"430 70 CURVE",
"430 103 OFFCURVE",
"454 170 OFFCURVE",
"499 247 CURVE",
"547 296 LINE",
"660 470 OFFCURVE",
"827 671 OFFCURVE",
"956 671 CURVE",
"956 700 OFFCURVE",
"956 700 OFFCURVE",
"956 700 CURVE"
);
},
{
closed = 1;
nodes = (
"25 700 OFFCURVE",
"25 700 OFFCURVE",
"25 671 CURVE",
"75 671 OFFCURVE",
"323 469 OFFCURVE",
"435 295 CURVE",
"483 246 LINE",
"528 169 OFFCURVE",
"550 103 OFFCURVE",
"550 70 CURVE",
"550 34 OFFCURVE",
"503 29 OFFCURVE",
"503 29 CURVE",
"503 0 LINE",
"956 0 LINE",
"956 0 OFFCURVE",
"956 0 OFFCURVE",
"956 29 CURVE",
"905 29 OFFCURVE",
"671 232 OFFCURVE",
"547 410 CURVE",
"499 447 LINE",
"455 515 OFFCURVE",
"430 577 OFFCURVE",
"430 619 CURVE",
"430 671 OFFCURVE",
"478 671 OFFCURVE",
"478 671 CURVE",
"478 700 LINE",
"25 700 LINE"
);
}
);
width = 981;
},
{
associatedMasterId = "0BD328E4-CA8F-4CB2-8877-C1BF962BF784";
layerId = "0A7610C7-D0FD-4D3F-8335-AB981F23383E";
name = "Mar 30 18, 22:20";
paths = (
{
closed = 1;
nodes = (
"973 700 OFFCURVE",
"973 700 OFFCURVE",
"973 700 CURVE",
"518 700 LINE",
"518 671 LINE",
"518 671 OFFCURVE",
"575 671 OFFCURVE",
"575 618 CURVE",
"575 578 OFFCURVE",
"548 519 OFFCURVE",
"505 454 CURVE",
"463 519 OFFCURVE",
"436 578 OFFCURVE",
"436 618 CURVE",
"436 671 OFFCURVE",
"493 671 OFFCURVE",
"493 671 CURVE",
"493 700 LINE",
"38 700 LINE",
"38 700 OFFCURVE",
"38 700 OFFCURVE",
"38 671 CURVE",
"159 671 OFFCURVE",
"317 511 OFFCURVE",
"431 352 CURVE",
"301 191 OFFCURVE",
"117 29 OFFCURVE",
"38 29 CURVE",
"38 0 OFFCURVE",
"38 0 OFFCURVE",
"38 0 CURVE",
"493 0 LINE",
"493 29 LINE",
"493 29 OFFCURVE",
"436 34 OFFCURVE",
"436 70 CURVE",
"436 102 OFFCURVE",
"462 165 OFFCURVE",
"505 239 CURVE",
"548 165 OFFCURVE",
"575 102 OFFCURVE",
"575 70 CURVE",
"575 34 OFFCURVE",
"517 29 OFFCURVE",
"517 29 CURVE",
"517 0 LINE",
"973 0 LINE",
"973 0 OFFCURVE",
"973 0 OFFCURVE",
"973 29 CURVE",
"893 29 OFFCURVE",
"710 191 OFFCURVE",
"580 352 CURVE",
"693 511 OFFCURVE",
"852 671 OFFCURVE",
"973 671 CURVE"
);
}
);
width = 1011;
},
{
anchors = (
{
name = bottom;
position = "{495, 0}";
},
{
name = top;
position = "{495, 700}";
}
);
associatedMasterId = "0BD328E4-CA8F-4CB2-8877-C1BF962BF784";
layerId = "B2F5992B-85BB-4A83-9437-01CC5CEFFC7C";
name = "Oct 15 18, 15:46";
paths = (
{
closed = 1;
nodes = (
"507 700 LINE",
"507 671 LINE",
"507 671 OFFCURVE",
"554 671 OFFCURVE",
"554 619 CURVE",
"554 462 OFFCURVE",
"150 29 OFFCURVE",
"20 29 CURVE",
"20 0 OFFCURVE",
"20 0 OFFCURVE",
"20 0 CURVE",
"483 0 LINE",
"483 29 LINE",
"483 29 OFFCURVE",
"435 34 OFFCURVE",
"435 70 CURVE",
"435 183 OFFCURVE",
"759 671 OFFCURVE",
"969 671 CURVE",
"969 700 OFFCURVE",
"969 700 OFFCURVE",
"969 700 CURVE"
);
},
{
closed = 1;
nodes = (
"20 700 OFFCURVE",
"20 700 OFFCURVE",
"20 671 CURVE",
"231 671 OFFCURVE",
"554 183 OFFCURVE",
"554 70 CURVE",
"554 34 OFFCURVE",
"507 29 OFFCURVE",
"507 29 CURVE",
"507 0 LINE",
"969 0 LINE",
"969 0 OFFCURVE",
"969 0 OFFCURVE",
"969 29 CURVE",
"840 29 OFFCURVE",
"435 462 OFFCURVE",
"435 619 CURVE",
"435 671 OFFCURVE",
"482 671 OFFCURVE",
"482 671 CURVE",
"482 700 LINE",
"20 700 LINE"
);
}
);
width = 989;
},
{
anchors = (
{
name = bottom;
position = "{486, 0}";
},
{
name = top;
position = "{486, 700}";
}
);
associatedMasterId = "0BD328E4-CA8F-4CB2-8877-C1BF962BF784";
layerId = "66EEB419-F088-42C4-B049-0AE1BA8E2A02";
name = "Oct 16 18, 21:12";
paths = (
{
closed = 1;
nodes = (
"474 0 LINE",
"474 29 LINE",
"474 29 OFFCURVE",
"426 34 OFFCURVE",
"426 70 CURVE SMOOTH",
"426 100 OFFCURVE",
"449 156 OFFCURVE",
"486 222 CURVE",
"523 156 OFFCURVE",
"545 100 OFFCURVE",
"545 70 CURVE SMOOTH",
"545 34 OFFCURVE",
"498 29 OFFCURVE",
"498 29 CURVE",
"498 0 LINE",
"951 0 LINE",
"951 29 LINE",
"872 29 OFFCURVE",
"699 191 OFFCURVE",
"569 353 CURVE",
"682 511 OFFCURVE",
"831 671 OFFCURVE",
"951 671 CURVE",
"951 700 LINE",
"498 700 LINE",
"498 671 LINE",
"498 671 OFFCURVE",
"545 671 OFFCURVE",
"545 619 CURVE SMOOTH",
"545 582 OFFCURVE",
"522 529 OFFCURVE",
"486 470 CURVE",
"449 529 OFFCURVE",
"426 582 OFFCURVE",
"426 619 CURVE SMOOTH",
"426 671 OFFCURVE",
"473 671 OFFCURVE",
"473 671 CURVE",
"473 700 LINE",
"20 700 LINE",
"20 671 LINE",
"141 671 OFFCURVE",
"289 511 OFFCURVE",
"402 353 CURVE",
"273 191 OFFCURVE",
"100 29 OFFCURVE",
"20 29 CURVE",
"20 0 LINE"
);
}
);
width = 971;
},
{
anchors = (
{
name = bottom;
position = "{486, 0}";
},
{
name = top;
position = "{486, 700}";
}
);
associatedMasterId = "0BD328E4-CA8F-4CB2-8877-C1BF962BF784";
layerId = "7D53951D-2299-4863-9D67-750EA7C52563";
name = "Oct 16 18, 23:32";
paths = (
{
closed = 1;
nodes = (
"498 700 LINE",
"498 671 LINE",
"498 671 OFFCURVE",
"545 671 OFFCURVE",
"545 619 CURVE",
"545 462 OFFCURVE",
"140 29 OFFCURVE",
"20 29 CURVE",
"20 0 OFFCURVE",
"20 0 OFFCURVE",
"20 0 CURVE",
"474 0 LINE",
"474 29 LINE",
"474 29 OFFCURVE",
"426 34 OFFCURVE",
"426 70 CURVE",
"426 183 OFFCURVE",
"751 671 OFFCURVE",
"951 671 CURVE",
"951 700 OFFCURVE",
"951 700 OFFCURVE",
"951 700 CURVE"
);
},
{
closed = 1;
nodes = (
"20 700 OFFCURVE",
"20 700 OFFCURVE",
"20 671 CURVE",
"221 671 OFFCURVE",
"535 183 OFFCURVE",
"535 70 CURVE",
"535 34 OFFCURVE",
"498 29 OFFCURVE",
"498 29 CURVE",
"498 0 LINE",
"951 0 LINE",
"951 0 OFFCURVE",
"951 0 OFFCURVE",
"951 29 CURVE",
"832 29 OFFCURVE",
"436 462 OFFCURVE",
"436 619 CURVE",
"436 671 OFFCURVE",
"473 671 OFFCURVE",
"473 671 CURVE",
"473 700 LINE",
"20 700 LINE"
);
}
);
width = 971;
},
{
anchors = (
{
name = bottom;
position = "{486, 0}";
},
{
name = top;
position = "{486, 700}";
}
);
associatedMasterId = "0BD328E4-CA8F-4CB2-8877-C1BF962BF784";
layerId = "0DB3D92E-A803-4B84-B078-DBCFA45024A8";
name = "Oct 17 18, 11:17";
paths = (
{
closed = 1;
nodes = (
"498 700 LINE",
"498 671 LINE",
"498 671 OFFCURVE",
"540 671 OFFCURVE",
"540 619 CURVE",
"540 462 OFFCURVE",
"140 29 OFFCURVE",
"20 29 CURVE",
"20 0 OFFCURVE",
"20 0 OFFCURVE",
"20 0 CURVE",
"474 0 LINE",
"474 29 LINE",
"474 29 OFFCURVE",
"431 34 OFFCURVE",
"431 70 CURVE",
"431 183 OFFCURVE",
"751 671 OFFCURVE",
"951 671 CURVE",
"951 700 OFFCURVE",
"951 700 OFFCURVE",
"951 700 CURVE"
);
},
{
closed = 1;
nodes = (
"20 700 OFFCURVE",
"20 700 OFFCURVE",
"20 671 CURVE",
"221 671 OFFCURVE",
"540 183 OFFCURVE",
"540 70 CURVE",
"540 34 OFFCURVE",
"498 29 OFFCURVE",
"498 29 CURVE",
"498 0 LINE",
"951 0 LINE",
"951 0 OFFCURVE",
"951 0 OFFCURVE",
"951 29 CURVE",
"832 29 OFFCURVE",
"431 462 OFFCURVE",
"431 619 CURVE",
"431 671 OFFCURVE",
"473 671 OFFCURVE",
"473 671 CURVE",
"473 700 LINE",
"20 700 LINE"
);
}
);
width = 971;
},
{
anchors = (
{
name = bottom;
position = "{491, 0}";
},
{
name = top;
position = "{491, 700}";
}
);
associatedMasterId = "0BD328E4-CA8F-4CB2-8877-C1BF962BF784";
layerId = "92C1D038-108B-4047-B36C-1B5AFA51040E";
name = "Jul 23 19, 09:32";
paths = (
{
closed = 1;
nodes = (
"503 700 LINE",
"503 671 LINE",
"503 671 OFFCURVE",
"545 671 OFFCURVE",
"545 619 CURVE",
"545 462 OFFCURVE",
"145 29 OFFCURVE",
"25 29 CURVE",
"25 0 OFFCURVE",
"25 0 OFFCURVE",
"25 0 CURVE",
"479 0 LINE",
"479 29 LINE",
"479 29 OFFCURVE",
"436 34 OFFCURVE",
"436 70 CURVE",
"436 183 OFFCURVE",
"756 671 OFFCURVE",
"956 671 CURVE",
"956 700 OFFCURVE",
"956 700 OFFCURVE",
"956 700 CURVE"
);
},
{
closed = 1;
nodes = (
"25 700 OFFCURVE",
"25 700 OFFCURVE",
"25 671 CURVE",
"75 671 OFFCURVE",
"333 469 OFFCURVE",
"443 295 CURVE SMOOTH",
"505 198 OFFCURVE",
"545 110 OFFCURVE",
"545 70 CURVE",
"545 34 OFFCURVE",
"503 29 OFFCURVE",
"503 29 CURVE",
"503 0 LINE",
"956 0 LINE",
"956 0 OFFCURVE",
"956 0 OFFCURVE",
"956 29 CURVE",
"905 29 OFFCURVE",
"661 232 OFFCURVE",
"534 410 CURVE SMOOTH",
"476 492 OFFCURVE",
"436 569 OFFCURVE",
"436 619 CURVE",
"436 671 OFFCURVE",
"478 671 OFFCURVE",
"478 671 CURVE",
"478 700 LINE",
"25 700 LINE"
);
}
);
width = 981;
}
);
leftKerningGroup = X;
rightKerningGroup = X;
unicode = 0058;
},
{
glyphname = Y;
lastChange = "2021-02-15 15:06:55 +0000";
layers = (
{
anchors = (
{
name = bottom;
position = "{471, 0}";
},
{
name = top;
position = "{471, 700}";
},
{
name = topleft;
position = "{20, 700}";
}
);
layerId = "0BD328E4-CA8F-4CB2-8877-C1BF962BF784";
paths = (
{
closed = 1;
nodes = (
"483 671 OFFCURVE",
"531 671 OFFCURVE",
"531 617 CURVE SMOOTH",
"531 590 OFFCURVE",
"496 500 OFFCURVE",
"475 394 CURVE SMOOTH",
"475 394 OFFCURVE",
"465 394 OFFCURVE",
"465 394 CURVE",
"444 500 OFFCURVE",
"411 590 OFFCURVE",
"411 617 CURVE SMOOTH",
"411 671 OFFCURVE",
"458 671 OFFCURVE",
"458 671 CURVE",
"458 700 LINE",
"20 700 LINE",
"20 671 LINE",
"107 671 OFFCURVE",
"340 527 OFFCURVE",
"340 287 CURVE",
"340 33 OFFCURVE",
"203 29 OFFCURVE",
"203 29 CURVE",
"203 0 LINE",
"737 0 LINE",
"737 29 LINE",
"737 29 OFFCURVE",
"600 33 OFFCURVE",
"600 287 CURVE",
"600 527 OFFCURVE",
"833 671 OFFCURVE",
"921 671 CURVE",
"921 700 LINE",
"483 700 LINE",
"483 671 LINE"
);
}
);
width = 941;
},
{
associatedMasterId = "0BD328E4-CA8F-4CB2-8877-C1BF962BF784";
layerId = "5BAB1095-D819-4E0A-B5C9-89FBDB6B1A73";
name = "Mar 20 18, 10:42";
paths = (
{
closed = 1;
nodes = (
"460 671 OFFCURVE",
"514 671 OFFCURVE",
"514 608 CURVE",
"514 542 OFFCURVE",
"448 465 OFFCURVE",
"448 465 CURVE",
"448 465 OFFCURVE",
"382 542 OFFCURVE",
"382 608 CURVE",
"382 671 OFFCURVE",
"435 671 OFFCURVE",
"435 671 CURVE",
"435 700 LINE",
"38 700 LINE",
"38 700 OFFCURVE",
"38 685 OFFCURVE",
"38 671 CURVE",
"125 671 OFFCURVE",
"339 527 OFFCURVE",
"339 287 CURVE",
"339 33 OFFCURVE",
"176 29 OFFCURVE",
"176 29 CURVE",
"176 0 LINE",
"720 0 LINE",
"720 29 LINE",
"720 29 OFFCURVE",
"556 33 OFFCURVE",
"556 287 CURVE",
"556 527 OFFCURVE",
"770 671 OFFCURVE",
"857 671 CURVE",
"857 685 OFFCURVE",
"857 700 OFFCURVE",
"857 700 CURVE",
"460 700 LINE",
"460 671 LINE"
);
}
);
width = 895;
},
{
anchors = (
{
name = bottom;
position = "{495, 0}";
},
{
name = top;
position = "{495, 700}";
},
{
name = topleft;
position = "{30, 700}";
}
);
associatedMasterId = "0BD328E4-CA8F-4CB2-8877-C1BF962BF784";
layerId = "68B5213C-5376-42E2-B66A-C6C51E35F0F0";
name = "Oct 15 18, 15:46";
paths = (
{
closed = 1;
nodes = (
"507 671 OFFCURVE",
"554 671 OFFCURVE",
"554 617 CURVE",
"554 577 OFFCURVE",
"494 454 OFFCURVE",
"494 454 CURVE",
"494 454 OFFCURVE",
"435 577 OFFCURVE",
"435 617 CURVE",
"435 671 OFFCURVE",
"482 671 OFFCURVE",
"482 671 CURVE",
"482 700 LINE",
"20 700 LINE",
"20 700 OFFCURVE",
"20 685 OFFCURVE",
"20 671 CURVE",
"107 671 OFFCURVE",
"384 527 OFFCURVE",
"384 287 CURVE",
"384 33 OFFCURVE",
"222 29 OFFCURVE",
"222 29 CURVE",
"222 0 LINE",
"766 0 LINE",
"766 29 LINE",
"766 29 OFFCURVE",
"604 33 OFFCURVE",
"604 287 CURVE",
"604 527 OFFCURVE",
"881 671 OFFCURVE",
"969 671 CURVE",
"969 685 OFFCURVE",
"969 700 OFFCURVE",
"969 700 CURVE",
"507 700 LINE",
"507 671 LINE"
);
}
);
width = 989;
},
{
anchors = (
{
name = bottom;
position = "{486, 0}";
},
{
name = top;
position = "{486, 700}";
},
{
name = topleft;
position = "{21, 700}";
}
);
annotations = (
{
position = "{-20, 750}";
type = Plus;
}
);
associatedMasterId = "0BD328E4-CA8F-4CB2-8877-C1BF962BF784";
layerId = "68946C93-74BE-44B3-A6BB-4499F24BA27F";
name = "Oct 15 18, 15:48";
paths = (
{
closed = 1;
nodes = (
"498 671 OFFCURVE",
"545 671 OFFCURVE",
"545 617 CURVE",
"545 577 OFFCURVE",
"485 454 OFFCURVE",
"485 454 CURVE",
"485 454 OFFCURVE",
"426 577 OFFCURVE",
"426 617 CURVE",
"426 671 OFFCURVE",
"473 671 OFFCURVE",
"473 671 CURVE",
"473 700 LINE",
"20 700 LINE",
"20 700 OFFCURVE",
"20 685 OFFCURVE",
"20 671 CURVE",
"107 671 OFFCURVE",
"375 527 OFFCURVE",
"375 287 CURVE",
"375 33 OFFCURVE",
"213 29 OFFCURVE",
"213 29 CURVE",
"213 0 LINE",
"757 0 LINE",
"757 29 LINE",
"757 29 OFFCURVE",
"595 33 OFFCURVE",
"595 287 CURVE",
"595 527 OFFCURVE",
"863 671 OFFCURVE",
"951 671 CURVE",
"951 685 OFFCURVE",
"951 700 OFFCURVE",
"951 700 CURVE",
"498 700 LINE",
"498 671 LINE"
);
}
);
width = 971;
},
{
anchors = (
{
name = bottom;
position = "{476, 0}";
},
{
name = top;
position = "{476, 700}";
},
{
name = topleft;
position = "{31, 700}";
}
);
associatedMasterId = "0BD328E4-CA8F-4CB2-8877-C1BF962BF784";
layerId = "B3F5A4EF-CF89-474D-A5F9-EC6E92E57103";
name = "Oct 18 18, 16:12";
paths = (
{
closed = 1;
nodes = (
"488 671 OFFCURVE",
"535 671 OFFCURVE",
"535 617 CURVE",
"535 577 OFFCURVE",
"475 454 OFFCURVE",
"475 454 CURVE",
"475 454 OFFCURVE",
"416 577 OFFCURVE",
"416 617 CURVE",
"416 671 OFFCURVE",
"463 671 OFFCURVE",
"463 671 CURVE",
"463 700 LINE",
"20 700 LINE",
"20 700 OFFCURVE",
"20 685 OFFCURVE",
"20 671 CURVE",
"107 671 OFFCURVE",
"355 527 OFFCURVE",
"355 287 CURVE",
"355 33 OFFCURVE",
"203 29 OFFCURVE",
"203 29 CURVE",
"203 0 LINE",
"737 0 LINE",
"737 29 LINE",
"737 29 OFFCURVE",
"585 33 OFFCURVE",
"585 287 CURVE",
"585 527 OFFCURVE",
"833 671 OFFCURVE",
"921 671 CURVE",
"921 685 OFFCURVE",
"921 700 OFFCURVE",
"921 700 CURVE",
"488 700 LINE",
"488 671 LINE"
);
}
);
width = 941;
}
);
leftKerningGroup = Y;
rightKerningGroup = Y;
unicode = 0059;
},
{
glyphname = Z;
lastChange = "2019-07-15 19:23:58 +0000";
layers = (
{
anchors = (
{
name = bottom;
position = "{396, 0}";
},
{
name = center;
position = "{396, 350}";
},
{
name = top;
position = "{411, 700}";
}
);
layerId = "0BD328E4-CA8F-4CB2-8877-C1BF962BF784";
paths = (
{
closed = 1;
nodes = (
"380 0 LINE",
"766 0 LINE",
"721 338 LINE",
"692 338 LINE",
"692 338 OFFCURVE",
"692 88 OFFCURVE",
"547 88 CURVE",
"512 88 OFFCURVE",
"462 111 OFFCURVE",
"462 201 CURVE SMOOTH",
"462 214 OFFCURVE",
"468 294 OFFCURVE",
"503 379 CURVE SMOOTH",
"586 581 OFFCURVE",
"705 671 OFFCURVE",
"764 671 CURVE",
"764 700 LINE",
"380 700 LINE"
);
},
{
closed = 1;
nodes = (
"441 700 LINE",
"25 700 LINE",
"70 362 LINE",
"99 362 LINE",
"99 362 OFFCURVE",
"99 612 OFFCURVE",
"244 612 CURVE",
"279 612 OFFCURVE",
"329 589 OFFCURVE",
"329 499 CURVE SMOOTH",
"329 486 OFFCURVE",
"323 406 OFFCURVE",
"288 321 CURVE SMOOTH",
"205 119 OFFCURVE",
"86 29 OFFCURVE",
"27 29 CURVE",
"27 0 LINE",
"441 0 LINE"
);
}
);
width = 791;
},
{
associatedMasterId = "0BD328E4-CA8F-4CB2-8877-C1BF962BF784";
layerId = "EC5F2F74-B978-4621-A3A9-7E298EBD6886";
name = "Mar 31 18, 00:11";
paths = (
{
closed = 1;
nodes = (
"807 686 OFFCURVE",
"807 700 OFFCURVE",
"807 700 CURVE",
"38 700 LINE",
"83 362 LINE",
"112 362 LINE",
"112 362 OFFCURVE",
"112 613 OFFCURVE",
"257 613 CURVE",
"302 613 OFFCURVE",
"348 560 OFFCURVE",
"348 476 CURVE",
"348 233 OFFCURVE",
"117 29 OFFCURVE",
"40 29 CURVE",
"40 14 OFFCURVE",
"40 0 OFFCURVE",
"40 0 CURVE",
"809 0 LINE",
"764 338 LINE",
"735 338 LINE",
"735 338 OFFCURVE",
"735 88 OFFCURVE",
"590 88 CURVE",
"545 88 OFFCURVE",
"499 140 OFFCURVE",
"499 225 CURVE",
"499 467 OFFCURVE",
"730 671 OFFCURVE",
"807 671 CURVE"
);
}
);
width = 847;
},
{
anchors = (
{
name = bottom;
position = "{411, 0}";
},
{
name = top;
position = "{411, 700}";
}
);
associatedMasterId = "0BD328E4-CA8F-4CB2-8877-C1BF962BF784";
layerId = "525D89C4-AFE3-4E1B-A2AF-47A852D5B457";
name = "Jul 15 19, 21:15";
paths = (
{
closed = 1;
nodes = (
"794 686 OFFCURVE",
"794 700 OFFCURVE",
"794 700 CURVE",
"25 700 LINE",
"70 362 LINE",
"99 362 LINE",
"99 362 OFFCURVE",
"99 613 OFFCURVE",
"244 613 CURVE",
"289 613 OFFCURVE",
"335 560 OFFCURVE",
"335 476 CURVE",
"335 233 OFFCURVE",
"104 29 OFFCURVE",
"27 29 CURVE",
"27 14 OFFCURVE",
"27 0 OFFCURVE",
"27 0 CURVE",
"796 0 LINE",
"751 338 LINE",
"722 338 LINE",
"722 338 OFFCURVE",
"722 88 OFFCURVE",
"577 88 CURVE",
"532 88 OFFCURVE",
"486 140 OFFCURVE",
"486 225 CURVE",
"486 467 OFFCURVE",
"717 671 OFFCURVE",
"794 671 CURVE"
);
}
);
width = 821;
},
{
anchors = (
{
name = bottom;
position = "{411, 0}";
},
{
name = top;
position = "{411, 700}";
}
);
associatedMasterId = "0BD328E4-CA8F-4CB2-8877-C1BF962BF784";
layerId = "C6E450B3-E6B0-488D-A0C7-3202A0CF202B";
name = "Jul 15 19, 21:15";
paths = (
{
closed = 1;
nodes = (
"794 700 LINE",
"25 700 LINE",
"70 362 LINE",
"99 362 LINE",
"99 362 OFFCURVE",
"99 613 OFFCURVE",
"244 613 CURVE",
"289 613 OFFCURVE",
"335 560 OFFCURVE",
"335 476 CURVE",
"335 233 OFFCURVE",
"104 29 OFFCURVE",
"27 29 CURVE",
"27 0 LINE",
"796 0 LINE",
"751 338 LINE",
"722 338 LINE",
"722 338 OFFCURVE",
"722 88 OFFCURVE",
"577 88 CURVE",
"532 88 OFFCURVE",
"486 140 OFFCURVE",
"486 225 CURVE",
"486 467 OFFCURVE",
"717 671 OFFCURVE",
"794 671 CURVE"
);
}
);
width = 821;
},
{
associatedMasterId = "0BD328E4-CA8F-4CB2-8877-C1BF962BF784";
layerId = "C74DD655-CAF3-424A-A20F-0133A982C67B";
name = "Jul 15 19, 21:19";
paths = (
{
closed = 1;
nodes = (
"410 0 LINE",
"796 0 LINE",
"751 338 LINE",
"722 338 LINE",
"722 338 OFFCURVE",
"722 88 OFFCURVE",
"577 88 CURVE",
"542 88 OFFCURVE",
"492 111 OFFCURVE",
"492 201 CURVE SMOOTH",
"492 214 OFFCURVE",
"498 294 OFFCURVE",
"533 379 CURVE SMOOTH",
"616 581 OFFCURVE",
"735 671 OFFCURVE",
"794 671 CURVE",
"794 700 LINE",
"410 700 LINE"
);
},
{
closed = 1;
nodes = (
"441 700 LINE",
"25 700 LINE",
"70 362 LINE",
"99 362 LINE",
"99 362 OFFCURVE",
"99 612 OFFCURVE",
"244 612 CURVE",
"279 612 OFFCURVE",
"329 589 OFFCURVE",
"329 499 CURVE SMOOTH",
"329 486 OFFCURVE",
"323 406 OFFCURVE",
"288 321 CURVE SMOOTH",
"205 119 OFFCURVE",
"86 29 OFFCURVE",
"27 29 CURVE",
"27 0 LINE",
"441 0 LINE"
);
}
);
width = 821;
}
);
leftKerningGroup = Z;
unicode = 005A;
},
{
glyphname = IJ.ss01;
lastChange = "2019-06-27 21:32:47 +0000";
layers = (
{
anchors = (
{
name = bottom;
position = "{902, 0}";
},
{
name = ogonek;
position = "{531, 10}";
},
{
name = top;
position = "{902, 700}";
},
{
name = topleft;
position = "{25, 700}";
}
);
associatedMasterId = "0BD328E4-CA8F-4CB2-8877-C1BF962BF784";
layerId = "9A020019-C26B-4AAB-9DB8-0A95AF48568D";
name = "Apr 25 19, 18:08";
paths = (
{
closed = 1;
nodes = (
"403 671 OFFCURVE",
"527 671 OFFCURVE",
"527 515 CURVE",
"527 368 OFFCURVE",
"383 368 OFFCURVE",
"383 368 CURVE",
"383 339 LINE",
"837 339 LINE",
"837 368 LINE",
"837 368 OFFCURVE",
"693 368 OFFCURVE",
"693 515 CURVE",
"693 671 OFFCURVE",
"807 671 OFFCURVE",
"837 671 CURVE",
"837 700 LINE",
"383 700 LINE",
"383 671 LINE"
);
},
{
closed = 1;
nodes = (
"857 670 LINE",
"857 670 OFFCURVE",
"998 670 OFFCURVE",
"998 416 CURVE",
"998 268 OFFCURVE",
"915 155 OFFCURVE",
"828 155 CURVE",
"738 155 OFFCURVE",
"727 192 OFFCURVE",
"727 221 CURVE",
"554 171 LINE",
"554 23 OFFCURVE",
"682 -50 OFFCURVE",
"828 -50 CURVE",
"970 -50 OFFCURVE",
"1190 39 OFFCURVE",
"1190 371 CURVE",
"1190 392 OFFCURVE",
"1190 414 OFFCURVE",
"1190 436 CURVE",
"1190 630 OFFCURVE",
"1237 670 OFFCURVE",
"1279 670 CURVE",
"1279 700 LINE",
"857 700 LINE"
);
},
{
closed = 1;
nodes = (
"727 221 LINE",
"727 290 OFFCURVE",
"795 290 OFFCURVE",
"837 290 CURVE",
"837 320 LINE",
"383 320 LINE",
"383 290 LINE",
"383 290 OFFCURVE",
"554 260 OFFCURVE",
"554 171 CURVE"
);
}
);
width = 1299;
},
{
anchors = (
{
name = bottom;
position = "{902, 0}";
},
{
name = ogonek;
position = "{531, 10}";
},
{
name = top;
position = "{902, 700}";
},
{
name = topleft;
position = "{385, 700}";
}
);
associatedMasterId = "0BD328E4-CA8F-4CB2-8877-C1BF962BF784";
layerId = "0C83A023-EE01-4E7D-AF2E-C5AF0DF93713";
name = "Apr 25 19, 18:13";
paths = (
{
closed = 1;
nodes = (
"408 671 OFFCURVE",
"522 671 OFFCURVE",
"522 515 CURVE",
"522 378 OFFCURVE",
"388 378 OFFCURVE",
"388 378 CURVE",
"388 349 LINE",
"832 349 LINE",
"832 378 LINE",
"832 378 OFFCURVE",
"688 378 OFFCURVE",
"688 515 CURVE",
"688 671 OFFCURVE",
"802 671 OFFCURVE",
"832 671 CURVE",
"832 700 LINE",
"388 700 LINE",
"388 671 LINE"
);
},
{
closed = 1;
nodes = (
"388 290 OFFCURVE",
"522 290 OFFCURVE",
"522 155 CURVE SMOOTH",
"522 27 OFFCURVE",
"682 -50 OFFCURVE",
"828 -50 CURVE SMOOTH",
"970 -50 OFFCURVE",
"1190 39 OFFCURVE",
"1190 371 CURVE SMOOTH",
"1190 436 LINE SMOOTH",
"1190 630 OFFCURVE",
"1237 670 OFFCURVE",
"1279 670 CURVE",
"1279 700 LINE",
"857 700 LINE",
"857 670 LINE",
"857 670 OFFCURVE",
"998 670 OFFCURVE",
"998 416 CURVE SMOOTH",
"998 268 OFFCURVE",
"955 155 OFFCURVE",
"828 155 CURVE SMOOTH",
"748 155 OFFCURVE",
"727 192 OFFCURVE",
"727 221 CURVE SMOOTH",
"727 290 OFFCURVE",
"832 290 OFFCURVE",
"832 290 CURVE",
"832 320 LINE",
"388 320 LINE",
"388 290 LINE"
);
}
);
width = 1299;
},
{
anchors = (
{
name = bottom;
position = "{534, 0}";
},
{
name = ogonek;
position = "{163, 10}";
},
{
name = top;
position = "{534, 700}";
},
{
name = topleft;
position = "{17, 700}";
}
);
associatedMasterId = "0BD328E4-CA8F-4CB2-8877-C1BF962BF784";
layerId = "D254379B-7461-4D0A-8569-7B81586FB9C3";
name = "Apr 25 19, 18:34";
paths = (
{
closed = 1;
nodes = (
"40 671 OFFCURVE",
"154 671 OFFCURVE",
"154 515 CURVE",
"154 378 OFFCURVE",
"20 378 OFFCURVE",
"20 378 CURVE",
"20 349 LINE",
"464 349 LINE",
"464 378 LINE",
"464 378 OFFCURVE",
"320 378 OFFCURVE",
"320 515 CURVE",
"320 671 OFFCURVE",
"434 671 OFFCURVE",
"464 671 CURVE",
"464 700 LINE",
"20 700 LINE",
"20 671 LINE"
);
},
{
closed = 1;
nodes = (
"331 320 OFFCURVE",
"154 303 OFFCURVE",
"154 155 CURVE",
"154 27 OFFCURVE",
"274 -50 OFFCURVE",
"430 -50 CURVE SMOOTH",
"572 -50 OFFCURVE",
"822 39 OFFCURVE",
"822 371 CURVE SMOOTH",
"822 436 LINE SMOOTH",
"822 630 OFFCURVE",
"869 670 OFFCURVE",
"911 670 CURVE",
"911 700 LINE",
"489 700 LINE",
"489 670 LINE",
"489 670 OFFCURVE",
"630 670 OFFCURVE",
"630 416 CURVE SMOOTH",
"630 268 OFFCURVE",
"587 155 OFFCURVE",
"460 155 CURVE SMOOTH",
"380 155 OFFCURVE",
"359 192 OFFCURVE",
"359 221 CURVE SMOOTH",
"359 290 OFFCURVE",
"464 290 OFFCURVE",
"464 290 CURVE",
"464 320 LINE"
);
}
);
width = 931;
},
{
components = (
{
name = I;
},
{
name = J;
transform = "{1, 0, 0, 1, 554, 0}";
}
);
layerId = "0BD328E4-CA8F-4CB2-8877-C1BF962BF784";
width = 1319;
}
);
leftKerningGroup = IJ;
rightKerningGroup = J;
},
{
glyphname = A.ss02;
lastChange = "2019-06-27 22:38:16 +0000";
layers = (
{
anchors = (
{
name = bottom;
position = "{465, 0}";
},
{
name = ogonek;
position = "{852, 10}";
},
{
name = top;
position = "{465, 700}";
}
);
layerId = "0BD328E4-CA8F-4CB2-8877-C1BF962BF784";
paths = (
{
closed = 1;
nodes = (
"716 671 OFFCURVE",
"853 671 OFFCURVE",
"853 671 CURVE",
"853 700 LINE",
"86 700 LINE",
"86 671 LINE",
"86 671 OFFCURVE",
"223 671 OFFCURVE",
"223 495 CURVE",
"223 29 OFFCURVE",
"25 29 OFFCURVE",
"25 29 CURVE",
"25 0 LINE",
"452 0 LINE",
"452 29 LINE",
"452 29 OFFCURVE",
"357 29 OFFCURVE",
"357 128 CURVE",
"357 189 OFFCURVE",
"425 207 OFFCURVE",
"465 207 CURVE",
"504 207 OFFCURVE",
"572 189 OFFCURVE",
"572 128 CURVE",
"572 29 OFFCURVE",
"477 29 OFFCURVE",
"477 29 CURVE",
"477 0 LINE",
"914 0 LINE",
"914 29 LINE",
"914 29 OFFCURVE",
"716 29 OFFCURVE",
"716 495 CURVE"
);
},
{
closed = 1;
nodes = (
"426 289 OFFCURVE",
"385 309 OFFCURVE",
"385 396 CURVE",
"385 480 OFFCURVE",
"396 572 OFFCURVE",
"465 572 CURVE",
"534 572 OFFCURVE",
"545 480 OFFCURVE",
"545 396 CURVE",
"545 309 OFFCURVE",
"504 289 OFFCURVE",
"465 289 CURVE"
);
}
);
width = 939;
},
{
associatedMasterId = "0BD328E4-CA8F-4CB2-8877-C1BF962BF784";
layerId = "474357AA-DFBD-4A68-AA60-E159F9E3A9C9";
name = "Sep 30 18, 19:07";
paths = (
{
closed = 1;
nodes = (
"631 671 OFFCURVE",
"688 671 OFFCURVE",
"688 671 CURVE",
"688 700 LINE",
"171 700 LINE",
"171 671 LINE",
"171 671 OFFCURVE",
"228 671 OFFCURVE",
"228 495 CURVE",
"228 29 OFFCURVE",
"20 29 OFFCURVE",
"20 29 CURVE",
"20 0 LINE",
"417 0 LINE",
"417 29 LINE",
"417 29 OFFCURVE",
"332 29 OFFCURVE",
"332 128 CURVE",
"332 189 OFFCURVE",
"390 207 OFFCURVE",
"430 207 CURVE",
"469 207 OFFCURVE",
"527 189 OFFCURVE",
"527 128 CURVE",
"527 29 OFFCURVE",
"442 29 OFFCURVE",
"442 29 CURVE",
"442 0 LINE",
"839 0 LINE",
"839 29 LINE",
"839 29 OFFCURVE",
"631 29 OFFCURVE",
"631 495 CURVE"
);
},
{
closed = 1;
nodes = (
"391 289 OFFCURVE",
"360 359 OFFCURVE",
"360 446 CURVE",
"360 570 OFFCURVE",
"391 602 OFFCURVE",
"430 602 CURVE",
"469 602 OFFCURVE",
"500 570 OFFCURVE",
"500 446 CURVE",
"500 359 OFFCURVE",
"469 289 OFFCURVE",
"430 289 CURVE"
);
}
);
width = 859;
},
{
associatedMasterId = "0BD328E4-CA8F-4CB2-8877-C1BF962BF784";
layerId = "891DC775-78A8-4BE1-B6E6-E5A1701BC45E";
name = "Sep 30 18, 19:09";
paths = (
{
closed = 1;
nodes = (
"641 671 OFFCURVE",
"758 671 OFFCURVE",
"758 671 CURVE",
"758 700 LINE",
"101 700 LINE",
"101 671 LINE",
"101 671 OFFCURVE",
"218 671 OFFCURVE",
"218 495 CURVE",
"218 29 OFFCURVE",
"20 29 OFFCURVE",
"20 29 CURVE",
"20 0 LINE",
"417 0 LINE",
"417 29 LINE",
"417 29 OFFCURVE",
"332 29 OFFCURVE",
"332 128 CURVE",
"332 189 OFFCURVE",
"390 207 OFFCURVE",
"430 207 CURVE",
"469 207 OFFCURVE",
"527 189 OFFCURVE",
"527 128 CURVE",
"527 29 OFFCURVE",
"442 29 OFFCURVE",
"442 29 CURVE",
"442 0 LINE",
"839 0 LINE",
"839 29 LINE",
"839 29 OFFCURVE",
"641 29 OFFCURVE",
"641 495 CURVE"
);
},
{
closed = 1;
nodes = (
"391 289 OFFCURVE",
"360 359 OFFCURVE",
"360 446 CURVE",
"360 570 OFFCURVE",
"391 602 OFFCURVE",
"430 602 CURVE",
"469 602 OFFCURVE",
"500 570 OFFCURVE",
"500 446 CURVE",
"500 359 OFFCURVE",
"469 289 OFFCURVE",
"430 289 CURVE"
);
}
);
width = 859;
},
{
associatedMasterId = "0BD328E4-CA8F-4CB2-8877-C1BF962BF784";
layerId = "44D88A2D-7BDA-4387-86DF-43D6891CBCA0";
name = "Sep 30 18, 19:12";
paths = (
{
closed = 1;
nodes = (
"641 671 OFFCURVE",
"778 671 OFFCURVE",
"778 671 CURVE",
"778 700 LINE",
"81 700 LINE",
"81 671 LINE",
"81 671 OFFCURVE",
"218 671 OFFCURVE",
"218 495 CURVE",
"218 29 OFFCURVE",
"20 29 OFFCURVE",
"20 29 CURVE",
"20 0 LINE",
"417 0 LINE",
"417 29 LINE",
"417 29 OFFCURVE",
"332 29 OFFCURVE",
"332 128 CURVE",
"332 189 OFFCURVE",
"390 207 OFFCURVE",
"430 207 CURVE",
"469 207 OFFCURVE",
"527 189 OFFCURVE",
"527 128 CURVE",
"527 29 OFFCURVE",
"442 29 OFFCURVE",
"442 29 CURVE",
"442 0 LINE",
"839 0 LINE",
"839 29 LINE",
"839 29 OFFCURVE",
"641 29 OFFCURVE",
"641 495 CURVE"
);
},
{
closed = 1;
nodes = (
"391 289 OFFCURVE",
"360 309 OFFCURVE",
"360 396 CURVE",
"360 500 OFFCURVE",
"391 572 OFFCURVE",
"430 572 CURVE",
"469 572 OFFCURVE",
"500 500 OFFCURVE",
"500 396 CURVE",
"500 309 OFFCURVE",
"469 289 OFFCURVE",
"430 289 CURVE"
);
}
);
width = 859;
},
{
associatedMasterId = "0BD328E4-CA8F-4CB2-8877-C1BF962BF784";
layerId = "3F00E824-D0C1-44B8-9B5E-E8A1A8761B82";
name = "Sep 30 18, 19:15";
paths = (
{
closed = 1;
nodes = (
"391 289 OFFCURVE",
"360 309 OFFCURVE",
"360 396 CURVE",
"360 540 OFFCURVE",
"391 572 OFFCURVE",
"430 572 CURVE",
"469 572 OFFCURVE",
"500 540 OFFCURVE",
"500 396 CURVE",
"500 309 OFFCURVE",
"469 289 OFFCURVE",
"430 289 CURVE"
);
},
{
closed = 1;
nodes = (
"641 701 OFFCURVE",
"500 730 OFFCURVE",
"430 730 CURVE",
"360 730 OFFCURVE",
"218 701 OFFCURVE",
"218 525 CURVE",
"218 29 OFFCURVE",
"20 29 OFFCURVE",
"20 29 CURVE",
"20 0 LINE",
"417 0 LINE",
"417 29 LINE",
"417 29 OFFCURVE",
"332 29 OFFCURVE",
"332 128 CURVE",
"332 189 OFFCURVE",
"390 207 OFFCURVE",
"430 207 CURVE",
"469 207 OFFCURVE",
"527 189 OFFCURVE",
"527 128 CURVE",
"527 29 OFFCURVE",
"442 29 OFFCURVE",
"442 29 CURVE",
"442 0 LINE",
"839 0 LINE",
"839 29 LINE",
"839 29 OFFCURVE",
"641 29 OFFCURVE",
"641 525 CURVE"
);
}
);
width = 859;
},
{
associatedMasterId = "0BD328E4-CA8F-4CB2-8877-C1BF962BF784";
layerId = "0A95AE4C-9494-44E3-A0EA-70F61C09DE64";
name = "Oct 5 18, 15:23";
paths = (
{
closed = 1;
nodes = (
"701 671 OFFCURVE",
"838 671 OFFCURVE",
"838 671 CURVE",
"838 700 LINE",
"81 700 LINE",
"81 671 LINE",
"81 671 OFFCURVE",
"218 671 OFFCURVE",
"218 495 CURVE",
"218 29 OFFCURVE",
"20 29 OFFCURVE",
"20 29 CURVE",
"20 0 LINE",
"447 0 LINE",
"447 29 LINE",
"447 29 OFFCURVE",
"352 29 OFFCURVE",
"352 128 CURVE",
"352 189 OFFCURVE",
"420 207 OFFCURVE",
"460 207 CURVE",
"499 207 OFFCURVE",
"567 189 OFFCURVE",
"567 128 CURVE",
"567 29 OFFCURVE",
"472 29 OFFCURVE",
"472 29 CURVE",
"472 0 LINE",
"899 0 LINE",
"899 29 LINE",
"899 29 OFFCURVE",
"701 29 OFFCURVE",
"701 495 CURVE"
);
},
{
closed = 1;
nodes = (
"421 289 OFFCURVE",
"380 309 OFFCURVE",
"380 396 CURVE",
"380 480 OFFCURVE",
"411 572 OFFCURVE",
"460 572 CURVE",
"509 572 OFFCURVE",
"540 480 OFFCURVE",
"540 396 CURVE",
"540 309 OFFCURVE",
"499 289 OFFCURVE",
"460 289 CURVE"
);
}
);
width = 919;
}
);
leftKerningGroup = ALARGE;
rightKerningGroup = ALARGE;
},
{
glyphname = G.ss02;
lastChange = "2019-06-27 22:38:36 +0000";
layers = (
{
anchors = (
{
name = bottom;
position = "{420, 0}";
},
{
name = top;
position = "{420, 700}";
}
);
layerId = "0BD328E4-CA8F-4CB2-8877-C1BF962BF784";
paths = (
{
closed = 1;
nodes = (
"815 473 LINE",
"416 473 LINE",
"416 444 LINE",
"416 444 OFFCURVE",
"589 444 OFFCURVE",
"589 334 CURVE",
"589 246 OFFCURVE",
"527 178 OFFCURVE",
"431 178 CURVE",
"315 178 OFFCURVE",
"233 276 OFFCURVE",
"233 403 CURVE",
"233 512 OFFCURVE",
"309 591 OFFCURVE",
"440 591 CURVE",
"564 591 OFFCURVE",
"591 548 OFFCURVE",
"591 502 CURVE",
"620 502 LINE",
"664 700 LINE",
"664 700 OFFCURVE",
"541 700 OFFCURVE",
"492 700 CURVE",
"297 700 OFFCURVE",
"25 625 OFFCURVE",
"25 337 CURVE",
"25 192 OFFCURVE",
"133 0 OFFCURVE",
"419 0 CURVE",
"539 0 OFFCURVE",
"815 1 OFFCURVE",
"815 1 CURVE",
"815 31 LINE",
"815 31 OFFCURVE",
"732 31 OFFCURVE",
"731 231 CURVE",
"730 444 OFFCURVE",
"815 444 OFFCURVE",
"815 444 CURVE"
);
}
);
width = 840;
},
{
associatedMasterId = "0BD328E4-CA8F-4CB2-8877-C1BF962BF784";
layerId = "8A84705A-CC05-4E93-834C-70AD3B87060C";
name = "Mar 13 18, 16:57";
paths = (
{
closed = 1;
nodes = (
"769 473 LINE",
"391 473 LINE",
"391 444 LINE",
"391 444 OFFCURVE",
"564 444 OFFCURVE",
"564 334 CURVE",
"564 236 OFFCURVE",
"442 222 OFFCURVE",
"406 222 CURVE",
"280 222 OFFCURVE",
"208 296 OFFCURVE",
"208 403 CURVE",
"208 512 OFFCURVE",
"284 591 OFFCURVE",
"415 591 CURVE",
"539 591 OFFCURVE",
"566 548 OFFCURVE",
"566 502 CURVE",
"595 502 LINE",
"639 700 LINE",
"639 700 OFFCURVE",
"626 700 OFFCURVE",
"577 700 CURVE",
"302 700 OFFCURVE",
"38 598 OFFCURVE",
"38 340 CURVE",
"38 155 OFFCURVE",
"188 0 OFFCURVE",
"374 0 CURVE",
"494 0 OFFCURVE",
"769 1 OFFCURVE",
"769 1 CURVE",
"769 31 LINE",
"769 31 OFFCURVE",
"686 31 OFFCURVE",
"685 231 CURVE",
"684 444 OFFCURVE",
"769 444 OFFCURVE",
"769 444 CURVE"
);
}
);
width = 807;
},
{
associatedMasterId = "0BD328E4-CA8F-4CB2-8877-C1BF962BF784";
layerId = "CFAC0A6F-6FA5-4E34-BF51-ECCD145363FB";
name = "Mar 14 18, 14:22";
paths = (
{
closed = 1;
nodes = (
"287 434 LINE",
"287 434 OFFCURVE",
"560 434 OFFCURVE",
"560 320 CURVE",
"560 234 OFFCURVE",
"492 204 OFFCURVE",
"419 204 CURVE",
"289 204 OFFCURVE",
"203 289 OFFCURVE",
"203 408 CURVE",
"203 488 OFFCURVE",
"265 586 OFFCURVE",
"398 586 CURVE",
"687 586 OFFCURVE",
"687 350 OFFCURVE",
"687 350 CURVE",
"717 350 LINE",
"763 700 LINE",
"763 700 OFFCURVE",
"753 700 OFFCURVE",
"647 700 CURVE",
"287 700 OFFCURVE",
"38 626 OFFCURVE",
"38 337 CURVE",
"38 0 OFFCURVE",
"337 -60 OFFCURVE",
"457 -60 CURVE",
"583 -60 OFFCURVE",
"719 -23 OFFCURVE",
"719 149 CURVE",
"719 321 OFFCURVE",
"578 464 OFFCURVE",
"578 464 CURVE",
"287 464 LINE"
);
}
);
width = 801;
},
{
associatedMasterId = "0BD328E4-CA8F-4CB2-8877-C1BF962BF784";
layerId = "8AD5D374-9C81-4126-8888-1CBB522E82AA";
name = "Mar 30 18, 22:58";
paths = (
{
closed = 1;
nodes = (
"317 464 OFFCURVE",
"293 464 OFFCURVE",
"287 464 CURVE",
"316 250 LINE",
"335 250 LINE",
"335 309 OFFCURVE",
"370 387 OFFCURVE",
"465 387 CURVE",
"515 387 OFFCURVE",
"569 351 OFFCURVE",
"569 290 CURVE",
"569 229 OFFCURVE",
"536 155 OFFCURVE",
"426 155 CURVE",
"267 155 OFFCURVE",
"202 289 OFFCURVE",
"202 408 CURVE",
"202 488 OFFCURVE",
"264 586 OFFCURVE",
"397 586 CURVE",
"609 586 OFFCURVE",
"687 452 OFFCURVE",
"687 351 CURVE",
"717 351 LINE",
"753 700 LINE",
"741 700 OFFCURVE",
"703 700 OFFCURVE",
"647 700 CURVE",
"287 700 OFFCURVE",
"38 626 OFFCURVE",
"38 338 CURVE",
"38 40 OFFCURVE",
"267 -22 OFFCURVE",
"406 -22 CURVE",
"590 -22 OFFCURVE",
"702 60 OFFCURVE",
"702 199 CURVE",
"702 371 OFFCURVE",
"590 464 OFFCURVE",
"361 464 CURVE"
);
}
);
width = 791;
}
);
leftKerningGroup = O;
rightKerningGroup = i;
},
{
glyphname = L.ss02;
lastChange = "2019-06-27 22:38:53 +0000";
layers = (
{
anchors = (
{
name = bottom;
position = "{299, 0}";
},
{
name = center;
position = "{299, 350}";
},
{
name = top;
position = "{299, 700}";
},
{
name = topright;
position = "{698, 700}";
}
);
layerId = "0BD328E4-CA8F-4CB2-8877-C1BF962BF784";
paths = (
{
closed = 1;
nodes = (
"760 451 LINE",
"760 451 OFFCURVE",
"780 88 OFFCURVE",
"554 88 CURVE",
"434 88 OFFCURVE",
"391 255 OFFCURVE",
"391 350 CURVE",
"391 665 OFFCURVE",
"578 671 OFFCURVE",
"578 671 CURVE",
"578 700 LINE",
"25 700 LINE",
"25 671 LINE",
"25 671 OFFCURVE",
"214 665 OFFCURVE",
"214 350 CURVE",
"214 34 OFFCURVE",
"25 29 OFFCURVE",
"25 29 CURVE",
"25 0 LINE",
"823 0 LINE",
"789 451 LINE"
);
}
);
width = 848;
}
);
leftKerningGroup = H;
rightKerningGroup = L;
},
{
glyphname = Lslash.ss02;
lastChange = "2018-10-21 12:01:15 +0000";
layers = (
{
anchors = (
{
name = bottom;
position = "{284, 0}";
},
{
name = center;
position = "{284, 350}";
},
{
name = top;
position = "{284, 700}";
},
{
name = topright;
position = "{563, 700}";
}
);
layerId = "0BD328E4-CA8F-4CB2-8877-C1BF962BF784";
paths = (
{
closed = 1;
nodes = (
"745 451 LINE",
"745 451 OFFCURVE",
"765 88 OFFCURVE",
"539 88 CURVE",
"419 88 OFFCURVE",
"376 255 OFFCURVE",
"376 350 CURVE",
"376 665 OFFCURVE",
"563 671 OFFCURVE",
"563 671 CURVE",
"563 700 LINE",
"20 700 LINE",
"20 671 LINE",
"20 671 OFFCURVE",
"209 665 OFFCURVE",
"209 350 CURVE",
"209 34 OFFCURVE",
"20 29 OFFCURVE",
"20 29 CURVE",
"20 0 LINE",
"808 0 LINE",
"774 451 LINE"
);
},
{
closed = 1;
nodes = (
"7 291 LINE",
"67 159 LINE",
"94 172 LINE",
"94 172 OFFCURVE",
"81 197 OFFCURVE",
"316 307 CURVE",
"551 416 OFFCURVE",
"563 391 OFFCURVE",
"563 391 CURVE",
"590 402 LINE",
"529 534 LINE",
"502 521 LINE",
"502 521 OFFCURVE",
"514 496 OFFCURVE",
"279 386 CURVE",
"45 277 OFFCURVE",
"32 302 OFFCURVE",
"32 302 CURVE"
);
}
);
width = 828;
}
);
rightKerningGroup = L;
},
{
glyphname = Q.ss02;
lastChange = "2019-06-27 22:38:04 +0000";
layers = (
{
associatedMasterId = "0BD328E4-CA8F-4CB2-8877-C1BF962BF784";
layerId = "D719B23E-3F6C-4F49-810F-765CCC1ACCC9";
name = "Oct 14 18, 23:29";
paths = (
{
closed = 1;
nodes = (
"1752 -99 OFFCURVE",
"1475 -268 OFFCURVE",
"1102 -268 CURVE",
"743 -268 OFFCURVE",
"466 -96 OFFCURVE",
"315 -21 CURVE",
"291 -9 OFFCURVE",
"241 12 OFFCURVE",
"202 12 CURVE",
"171 12 OFFCURVE",
"147 -10 OFFCURVE",
"147 -43 CURVE",
"147 -94 OFFCURVE",
"198 -99 OFFCURVE",
"198 -99 CURVE",
"198 -128 LINE",
"198 -128 OFFCURVE",
"41 -128 OFFCURVE",
"41 10 CURVE",
"41 96 OFFCURVE",
"103 138 OFFCURVE",
"207 138 CURVE",
"425 138 OFFCURVE",
"716 -179 OFFCURVE",
"1142 -179 CURVE",
"1495 -179 OFFCURVE",
"1739 -74 OFFCURVE",
"1739 -74 CURVE",
"1752 -99 LINE"
);
},
{
closed = 1;
nodes = (
"552 138 OFFCURVE",
"638 233 OFFCURVE",
"638 331 CURVE",
"638 423 OFFCURVE",
"578 499 OFFCURVE",
"480 499 CURVE",
"408 499 OFFCURVE",
"349 448 OFFCURVE",
"349 370 CURVE",
"349 320 OFFCURVE",
"387 311 OFFCURVE",
"387 311 CURVE",
"374 286 LINE",
"374 286 OFFCURVE",
"232 320 OFFCURVE",
"232 479 CURVE",
"232 574 OFFCURVE",
"322 700 OFFCURVE",
"506 700 CURVE",
"710 700 OFFCURVE",
"861 535 OFFCURVE",
"861 353 CURVE",
"861 129 OFFCURVE",
"674 -29 OFFCURVE",
"435 -29 CURVE",
"213 -29 OFFCURVE",
"30 133 OFFCURVE",
"30 336 CURVE",
"30 535 OFFCURVE",
"185 729 OFFCURVE",
"416 729 CURVE",
"416 719 OFFCURVE",
"416 711 OFFCURVE",
"416 700 CURVE",
"277 700 OFFCURVE",
"146 584 OFFCURVE",
"146 408 CURVE",
"146 246 OFFCURVE",
"268 138 OFFCURVE",
"424 138 CURVE"
);
}
);
width = 891;
},
{
associatedMasterId = "0BD328E4-CA8F-4CB2-8877-C1BF962BF784";
layerId = "49E51A30-EAE4-4EE6-ADDE-DAFE0247B97D";
name = "Oct 14 18, 23:32";
paths = (
{
closed = 1;
nodes = (
"1752 -99 OFFCURVE",
"1475 -268 OFFCURVE",
"1102 -268 CURVE",
"743 -268 OFFCURVE",
"466 -96 OFFCURVE",
"315 -21 CURVE",
"291 -9 OFFCURVE",
"241 12 OFFCURVE",
"202 12 CURVE",
"171 12 OFFCURVE",
"147 -10 OFFCURVE",
"147 -43 CURVE",
"147 -94 OFFCURVE",
"198 -99 OFFCURVE",
"198 -99 CURVE",
"198 -128 LINE",
"198 -128 OFFCURVE",
"41 -128 OFFCURVE",
"41 10 CURVE",
"41 96 OFFCURVE",
"103 138 OFFCURVE",
"167 138 CURVE",
"385 138 OFFCURVE",
"743 -179 OFFCURVE",
"1202 -179 CURVE",
"1555 -179 OFFCURVE",
"1739 -74 OFFCURVE",
"1739 -74 CURVE",
"1752 -99 LINE"
);
},
{
closed = 1;
nodes = (
"552 138 OFFCURVE",
"638 233 OFFCURVE",
"638 331 CURVE",
"638 423 OFFCURVE",
"578 499 OFFCURVE",
"480 499 CURVE",
"408 499 OFFCURVE",
"349 448 OFFCURVE",
"349 370 CURVE",
"349 320 OFFCURVE",
"387 311 OFFCURVE",
"387 311 CURVE",
"374 286 LINE",
"374 286 OFFCURVE",
"232 320 OFFCURVE",
"232 479 CURVE",
"232 574 OFFCURVE",
"322 700 OFFCURVE",
"506 700 CURVE",
"710 700 OFFCURVE",
"861 535 OFFCURVE",
"861 353 CURVE",
"861 129 OFFCURVE",
"674 -29 OFFCURVE",
"435 -29 CURVE",
"213 -29 OFFCURVE",
"30 133 OFFCURVE",
"30 336 CURVE",
"30 535 OFFCURVE",
"185 729 OFFCURVE",
"416 729 CURVE",
"416 719 OFFCURVE",
"416 711 OFFCURVE",
"416 700 CURVE",
"277 700 OFFCURVE",
"146 584 OFFCURVE",
"146 408 CURVE",
"146 246 OFFCURVE",
"268 138 OFFCURVE",
"424 138 CURVE"
);
}
);
width = 891;
},
{
associatedMasterId = "0BD328E4-CA8F-4CB2-8877-C1BF962BF784";
layerId = "BF2B5540-7607-4819-815B-BC13D739F688";
name = "Oct 14 18, 23:43";
paths = (
{
closed = 1;
nodes = (
"1752 -99 OFFCURVE",
"1475 -268 OFFCURVE",
"1102 -268 CURVE",
"743 -268 OFFCURVE",
"466 -96 OFFCURVE",
"315 -21 CURVE",
"291 -9 OFFCURVE",
"241 12 OFFCURVE",
"202 12 CURVE",
"171 12 OFFCURVE",
"147 -10 OFFCURVE",
"147 -43 CURVE",
"147 -94 OFFCURVE",
"198 -99 OFFCURVE",
"198 -99 CURVE",
"198 -128 LINE",
"198 -128 OFFCURVE",
"41 -128 OFFCURVE",
"41 10 CURVE",
"41 86 OFFCURVE",
"103 138 OFFCURVE",
"167 138 CURVE",
"385 138 OFFCURVE",
"743 -179 OFFCURVE",
"1202 -179 CURVE",
"1555 -179 OFFCURVE",
"1739 -74 OFFCURVE",
"1739 -74 CURVE",
"1752 -99 LINE"
);
},
{
closed = 1;
nodes = (
"552 138 OFFCURVE",
"638 233 OFFCURVE",
"638 331 CURVE",
"638 423 OFFCURVE",
"578 499 OFFCURVE",
"480 499 CURVE",
"408 499 OFFCURVE",
"349 448 OFFCURVE",
"349 370 CURVE",
"349 320 OFFCURVE",
"387 311 OFFCURVE",
"387 311 CURVE",
"374 286 LINE",
"374 286 OFFCURVE",
"232 320 OFFCURVE",
"232 479 CURVE",
"232 574 OFFCURVE",
"322 700 OFFCURVE",
"506 700 CURVE",
"710 700 OFFCURVE",
"861 535 OFFCURVE",
"861 353 CURVE",
"861 129 OFFCURVE",
"674 -29 OFFCURVE",
"435 -29 CURVE",
"213 -29 OFFCURVE",
"30 133 OFFCURVE",
"30 336 CURVE",
"30 535 OFFCURVE",
"185 729 OFFCURVE",
"416 729 CURVE",
"416 719 OFFCURVE",
"416 711 OFFCURVE",
"416 700 CURVE",
"277 700 OFFCURVE",
"146 584 OFFCURVE",
"146 408 CURVE",
"146 246 OFFCURVE",
"268 138 OFFCURVE",
"424 138 CURVE"
);
}
);
width = 891;
},
{
associatedMasterId = "0BD328E4-CA8F-4CB2-8877-C1BF962BF784";
layerId = "390D7123-A536-4E25-A05F-61AC912CF42D";
name = "Oct 14 18, 23:53";
paths = (
{
closed = 1;
nodes = (
"1739 -74 LINE",
"1739 -74 OFFCURVE",
"1555 -179 OFFCURVE",
"1202 -179 CURVE",
"963 -179 OFFCURVE",
"751 -93 OFFCURVE",
"572 -10 CURVE",
"742 37 OFFCURVE",
"861 174 OFFCURVE",
"861 353 CURVE",
"861 535 OFFCURVE",
"710 700 OFFCURVE",
"506 700 CURVE",
"322 700 OFFCURVE",
"232 574 OFFCURVE",
"232 479 CURVE",
"232 320 OFFCURVE",
"374 286 OFFCURVE",
"374 286 CURVE",
"387 311 LINE",
"387 311 OFFCURVE",
"349 320 OFFCURVE",
"349 370 CURVE",
"349 448 OFFCURVE",
"408 499 OFFCURVE",
"480 499 CURVE",
"578 499 OFFCURVE",
"638 423 OFFCURVE",
"638 331 CURVE",
"638 233 OFFCURVE",
"552 138 OFFCURVE",
"424 138 CURVE",
"268 138 OFFCURVE",
"146 246 OFFCURVE",
"146 408 CURVE",
"146 584 OFFCURVE",
"277 700 OFFCURVE",
"416 700 CURVE",
"416 711 OFFCURVE",
"416 719 OFFCURVE",
"416 729 CURVE",
"185 729 OFFCURVE",
"30 535 OFFCURVE",
"30 336 CURVE",
"30 202 OFFCURVE",
"110 86 OFFCURVE",
"228 23 CURVE",
"184 -18 OFFCURVE",
"170 -69 OFFCURVE",
"170 -69 CURVE",
"196 -80 LINE",
"196 -80 OFFCURVE",
"218 -39 OFFCURVE",
"302 -39 CURVE",
"475 -39 OFFCURVE",
"588 -268 OFFCURVE",
"1102 -268 CURVE",
"1475 -268 OFFCURVE",
"1752 -99 OFFCURVE",
"1752 -99 CURVE"
);
}
);
width = 891;
},
{
associatedMasterId = "0BD328E4-CA8F-4CB2-8877-C1BF962BF784";
layerId = "884C9D56-0AF2-46C8-AB9E-42B0325BC8DB";
name = "Oct 15 18, 12:51";
paths = (
{
closed = 1;
nodes = (
"1739 -74 LINE",
"1739 -74 OFFCURVE",
"1555 -179 OFFCURVE",
"1202 -179 CURVE",
"963 -179 OFFCURVE",
"751 -93 OFFCURVE",
"572 -10 CURVE",
"742 37 OFFCURVE",
"861 174 OFFCURVE",
"861 353 CURVE",
"861 535 OFFCURVE",
"710 700 OFFCURVE",
"506 700 CURVE",
"322 700 OFFCURVE",
"232 574 OFFCURVE",
"232 479 CURVE",
"232 320 OFFCURVE",
"374 286 OFFCURVE",
"374 286 CURVE",
"387 311 LINE",
"387 311 OFFCURVE",
"349 320 OFFCURVE",
"349 370 CURVE",
"349 448 OFFCURVE",
"408 499 OFFCURVE",
"480 499 CURVE",
"578 499 OFFCURVE",
"638 423 OFFCURVE",
"638 331 CURVE",
"638 233 OFFCURVE",
"552 138 OFFCURVE",
"424 138 CURVE",
"268 138 OFFCURVE",
"146 246 OFFCURVE",
"146 408 CURVE",
"146 584 OFFCURVE",
"277 700 OFFCURVE",
"416 700 CURVE",
"416 711 OFFCURVE",
"416 719 OFFCURVE",
"416 729 CURVE",
"185 729 OFFCURVE",
"30 535 OFFCURVE",
"30 336 CURVE",
"30 202 OFFCURVE",
"110 86 OFFCURVE",
"228 23 CURVE",
"184 -18 OFFCURVE",
"170 -69 OFFCURVE",
"170 -69 CURVE",
"196 -80 LINE",
"196 -80 OFFCURVE",
"218 -39 OFFCURVE",
"302 -39 CURVE",
"475 -39 OFFCURVE",
"638 -268 OFFCURVE",
"1152 -268 CURVE",
"1525 -268 OFFCURVE",
"1752 -99 OFFCURVE",
"1752 -99 CURVE"
);
}
);
width = 891;
},
{
associatedMasterId = "0BD328E4-CA8F-4CB2-8877-C1BF962BF784";
layerId = "163B671D-4897-4E79-963F-6A102BECA96E";
name = "Oct 19 18, 19:33";
paths = (
{
closed = 1;
nodes = (
"1752 -99 OFFCURVE",
"1475 -268 OFFCURVE",
"1102 -268 CURVE",
"743 -268 OFFCURVE",
"466 -96 OFFCURVE",
"315 -21 CURVE",
"291 -9 OFFCURVE",
"241 12 OFFCURVE",
"202 12 CURVE",
"171 12 OFFCURVE",
"147 -10 OFFCURVE",
"147 -43 CURVE",
"147 -94 OFFCURVE",
"198 -99 OFFCURVE",
"198 -99 CURVE",
"198 -128 LINE",
"198 -128 OFFCURVE",
"41 -128 OFFCURVE",
"41 10 CURVE",
"41 86 OFFCURVE",
"103 138 OFFCURVE",
"167 138 CURVE",
"385 138 OFFCURVE",
"743 -179 OFFCURVE",
"1202 -179 CURVE",
"1555 -179 OFFCURVE",
"1739 -74 OFFCURVE",
"1739 -74 CURVE",
"1752 -99 LINE"
);
},
{
closed = 1;
nodes = (
"552 138 OFFCURVE",
"638 233 OFFCURVE",
"638 331 CURVE",
"638 423 OFFCURVE",
"578 499 OFFCURVE",
"480 499 CURVE",
"408 499 OFFCURVE",
"349 448 OFFCURVE",
"349 370 CURVE",
"349 320 OFFCURVE",
"387 311 OFFCURVE",
"387 311 CURVE",
"374 286 LINE",
"374 286 OFFCURVE",
"232 320 OFFCURVE",
"232 479 CURVE",
"232 574 OFFCURVE",
"322 700 OFFCURVE",
"506 700 CURVE",
"710 700 OFFCURVE",
"861 535 OFFCURVE",
"861 353 CURVE",
"861 129 OFFCURVE",
"674 -29 OFFCURVE",
"435 -29 CURVE",
"213 -29 OFFCURVE",
"30 133 OFFCURVE",
"30 336 CURVE",
"30 535 OFFCURVE",
"185 729 OFFCURVE",
"416 729 CURVE",
"416 719 OFFCURVE",
"416 711 OFFCURVE",
"416 700 CURVE",
"277 700 OFFCURVE",
"146 584 OFFCURVE",
"146 408 CURVE",
"146 246 OFFCURVE",
"268 138 OFFCURVE",
"424 138 CURVE"
);
}
);
width = 891;
},
{
layerId = "0BD328E4-CA8F-4CB2-8877-C1BF962BF784";
paths = (
{
closed = 1;
nodes = (
"1734 -74 LINE",
"1734 -74 OFFCURVE",
"1550 -179 OFFCURVE",
"1197 -179 CURVE",
"958 -179 OFFCURVE",
"746 -93 OFFCURVE",
"567 -10 CURVE",
"737 37 OFFCURVE",
"856 174 OFFCURVE",
"856 353 CURVE",
"856 535 OFFCURVE",
"705 700 OFFCURVE",
"501 700 CURVE",
"317 700 OFFCURVE",
"227 574 OFFCURVE",
"227 479 CURVE",
"227 320 OFFCURVE",
"369 286 OFFCURVE",
"369 286 CURVE",
"382 311 LINE",
"382 311 OFFCURVE",
"344 320 OFFCURVE",
"344 370 CURVE",
"344 448 OFFCURVE",
"403 499 OFFCURVE",
"475 499 CURVE",
"573 499 OFFCURVE",
"633 423 OFFCURVE",
"633 331 CURVE",
"633 233 OFFCURVE",
"547 138 OFFCURVE",
"419 138 CURVE",
"263 138 OFFCURVE",
"141 246 OFFCURVE",
"141 408 CURVE",
"141 584 OFFCURVE",
"272 700 OFFCURVE",
"411 700 CURVE",
"411 711 OFFCURVE",
"411 719 OFFCURVE",
"411 729 CURVE",
"180 729 OFFCURVE",
"25 535 OFFCURVE",
"25 336 CURVE",
"25 202 OFFCURVE",
"105 86 OFFCURVE",
"223 23 CURVE",
"179 -18 OFFCURVE",
"165 -69 OFFCURVE",
"165 -69 CURVE",
"191 -80 LINE",
"191 -80 OFFCURVE",
"213 -39 OFFCURVE",
"297 -39 CURVE",
"470 -39 OFFCURVE",
"633 -268 OFFCURVE",
"1147 -268 CURVE",
"1520 -268 OFFCURVE",
"1747 -99 OFFCURVE",
"1747 -99 CURVE"
);
}
);
width = 887;
}
);
leftKerningGroup = O;
rightKerningGroup = O;
},
{
glyphname = R.ss02;
lastChange = "2020-09-04 10:12:36 +0000";
layers = (
{
anchors = (
{
name = bottom;
position = "{455, 0}";
},
{
name = top;
position = "{455, 700}";
}
);
layerId = "0BD328E4-CA8F-4CB2-8877-C1BF962BF784";
paths = (
{
closed = 1;
nodes = (
"487 0 LINE",
"487 29 LINE",
"487 29 OFFCURVE",
"389 29 OFFCURVE",
"389 332 CURVE SMOOTH",
"389 525 OFFCURVE",
"454 612 OFFCURVE",
"479 612 CURVE SMOOTH",
"519 612 OFFCURVE",
"552 519 OFFCURVE",
"552 437 CURVE SMOOTH",
"552 286 OFFCURVE",
"425 248 OFFCURVE",
"425 248 CURVE",
"425 219 LINE",
"425 219 OFFCURVE",
"492 184 OFFCURVE",
"532 127 CURVE SMOOTH",
"620 0 OFFCURVE",
"572 -157 OFFCURVE",
"874 -157 CURVE",
"874 -128 LINE",
"838 -128 OFFCURVE",
"814 -118 OFFCURVE",
"797 -100 CURVE SMOOTH",
"747 -47 OFFCURVE",
"775 72 OFFCURVE",
"719 173 CURVE SMOOTH",
"701 204 OFFCURVE",
"674 234 OFFCURVE",
"640 263 CURVE",
"742 316 OFFCURVE",
"774 415 OFFCURVE",
"774 475 CURVE SMOOTH",
"774 616 OFFCURVE",
"661 700 OFFCURVE",
"479 700 CURVE SMOOTH",
"25 700 LINE",
"25 671 LINE",
"151 671 OFFCURVE",
"214 511 OFFCURVE",
"214 350 CURVE SMOOTH",
"214 190 OFFCURVE",
"151 29 OFFCURVE",
"25 29 CURVE",
"25 0 LINE"
);
}
);
width = 799;
},
{
associatedMasterId = "0BD328E4-CA8F-4CB2-8877-C1BF962BF784";
layerId = "68971402-7C59-40B5-B9EB-1041012EDF4A";
name = "Mar 20 18, 14:39";
paths = (
{
closed = 1;
nodes = (
"714 310 OFFCURVE",
"768 388 OFFCURVE",
"768 475 CURVE",
"768 616 OFFCURVE",
"654 700 OFFCURVE",
"482 700 CURVE",
"38 700 LINE",
"38 671 LINE",
"38 671 OFFCURVE",
"227 671 OFFCURVE",
"227 350 CURVE",
"227 29 OFFCURVE",
"38 29 OFFCURVE",
"38 29 CURVE",
"38 0 LINE",
"490 0 LINE",
"490 29 LINE",
"490 29 OFFCURVE",
"394 29 OFFCURVE",
"394 332 CURVE",
"394 525 OFFCURVE",
"458 613 OFFCURVE",
"482 613 CURVE",
"522 613 OFFCURVE",
"555 520 OFFCURVE",
"555 437 CURVE",
"555 286 OFFCURVE",
"428 248 OFFCURVE",
"428 248 CURVE",
"428 248 OFFCURVE",
"428 248 OFFCURVE",
"428 219 CURVE",
"496 219 OFFCURVE",
"571 124 OFFCURVE",
"571 88 CURVE",
"571 30 OFFCURVE",
"515 30 OFFCURVE",
"515 30 CURVE",
"515 1 LINE",
"901 1 LINE",
"901 30 LINE",
"748 30 OFFCURVE",
"626 200 OFFCURVE",
"626 264 CURVE"
);
}
);
width = 939;
},
{
associatedMasterId = "0BD328E4-CA8F-4CB2-8877-C1BF962BF784";
layerId = "B5F16090-F2B3-450F-A8AD-2240A6444743";
name = "Mar 28 18, 15:50";
paths = (
{
closed = 1;
nodes = (
"714 310 OFFCURVE",
"767 387 OFFCURVE",
"767 475 CURVE",
"767 616 OFFCURVE",
"654 700 OFFCURVE",
"482 700 CURVE",
"38 700 LINE",
"38 671 LINE",
"38 671 OFFCURVE",
"228 671 OFFCURVE",
"228 350 CURVE",
"228 29 OFFCURVE",
"38 29 OFFCURVE",
"38 29 CURVE",
"38 0 LINE",
"512 0 LINE",
"512 29 LINE",
"512 29 OFFCURVE",
"392 29 OFFCURVE",
"392 332 CURVE",
"392 525 OFFCURVE",
"457 612 OFFCURVE",
"482 612 CURVE",
"522 612 OFFCURVE",
"555 519 OFFCURVE",
"555 437 CURVE",
"555 286 OFFCURVE",
"428 248 OFFCURVE",
"428 248 CURVE",
"428 248 OFFCURVE",
"428 248 OFFCURVE",
"428 219 CURVE",
"496 219 OFFCURVE",
"571 123 OFFCURVE",
"571 87 CURVE",
"571 29 OFFCURVE",
"537 29 OFFCURVE",
"537 29 CURVE",
"537 0 LINE",
"857 0 LINE",
"857 29 LINE",
"748 29 OFFCURVE",
"701 161 OFFCURVE",
"626 264 CURVE"
);
}
);
width = 895;
}
);
leftKerningGroup = H;
rightKerningGroup = RLARGE;
},
{
glyphname = U.ss02;
lastChange = "2019-07-19 16:17:18 +0000";
layers = (
{
anchors = (
{
name = bottom;
position = "{473, 0}";
},
{
name = ogonek;
position = "{630, 10}";
},
{
name = top;
position = "{473, 700}";
},
{
name = topright;
position = "{907, 700}";
}
);
layerId = "0BD328E4-CA8F-4CB2-8877-C1BF962BF784";
paths = (
{
closed = 1;
nodes = (
"485 670 OFFCURVE",
"639 680 OFFCURVE",
"639 400 CURVE",
"639 209 OFFCURVE",
"579 138 OFFCURVE",
"472 138 CURVE",
"366 138 OFFCURVE",
"306 209 OFFCURVE",
"306 400 CURVE",
"306 680 OFFCURVE",
"460 670 OFFCURVE",
"460 670 CURVE",
"460 700 LINE",
"38 700 LINE",
"38 670 LINE",
"38 670 OFFCURVE",
"106 680 OFFCURVE",
"106 379 CURVE",
"106 97 OFFCURVE",
"271 -40 OFFCURVE",
"472 -40 CURVE",
"674 -40 OFFCURVE",
"839 97 OFFCURVE",
"839 379 CURVE",
"839 680 OFFCURVE",
"907 670 OFFCURVE",
"907 670 CURVE",
"907 700 LINE",
"485 700 LINE",
"485 670 LINE"
);
}
);
width = 945;
},
{
associatedMasterId = "0BD328E4-CA8F-4CB2-8877-C1BF962BF784";
layerId = "6528B460-89C8-4777-9A7F-730CEAC4FF6B";
name = "Mar 19 18, 18:21";
paths = (
{
closed = 1;
nodes = (
"485 670 OFFCURVE",
"654 670 OFFCURVE",
"654 390 CURVE",
"654 199 OFFCURVE",
"579 118 OFFCURVE",
"472 118 CURVE",
"366 118 OFFCURVE",
"291 199 OFFCURVE",
"291 390 CURVE",
"291 670 OFFCURVE",
"460 670 OFFCURVE",
"460 670 CURVE",
"460 700 LINE",
"38 700 LINE",
"38 670 LINE",
"38 670 OFFCURVE",
"106 670 OFFCURVE",
"106 369 CURVE",
"106 87 OFFCURVE",
"271 -60 OFFCURVE",
"472 -60 CURVE",
"674 -60 OFFCURVE",
"839 87 OFFCURVE",
"839 369 CURVE",
"839 670 OFFCURVE",
"907 670 OFFCURVE",
"907 670 CURVE",
"907 700 LINE",
"485 700 LINE",
"485 670 LINE"
);
}
);
width = 945;
},
{
associatedMasterId = "0BD328E4-CA8F-4CB2-8877-C1BF962BF784";
layerId = "D36724E6-AF7E-4A88-80F1-7CED659DD090";
name = "Mar 13 18, 16:33";
paths = (
{
closed = 1;
nodes = (
"486 670 LINE",
"486 670 OFFCURVE",
"585 670 OFFCURVE",
"585 538 CURVE",
"585 537 OFFCURVE",
"585 390 OFFCURVE",
"585 390 CURVE",
"585 199 OFFCURVE",
"579 118 OFFCURVE",
"473 118 CURVE",
"367 118 OFFCURVE",
"361 199 OFFCURVE",
"361 390 CURVE",
"361 390 OFFCURVE",
"361 537 OFFCURVE",
"361 538 CURVE",
"361 670 OFFCURVE",
"460 670 OFFCURVE",
"460 670 CURVE",
"460 700 LINE",
"38 700 LINE",
"38 670 LINE",
"38 670 OFFCURVE",
"188 618 OFFCURVE",
"188 320 CURVE",
"188 38 OFFCURVE",
"271 -60 OFFCURVE",
"473 -60 CURVE",
"675 -60 OFFCURVE",
"758 38 OFFCURVE",
"758 320 CURVE",
"758 618 OFFCURVE",
"907 670 OFFCURVE",
"907 670 CURVE",
"907 700 LINE",
"486 700 LINE"
);
}
);
width = 945;
},
{
associatedMasterId = "0BD328E4-CA8F-4CB2-8877-C1BF962BF784";
layerId = "70170FCB-8D24-4E48-B3D2-A23CB57C6142";
name = "Mar 22 18, 01:13";
paths = (
{
closed = 1;
nodes = (
"486 670 LINE",
"486 670 OFFCURVE",
"619 670 OFFCURVE",
"619 394 CURVE",
"619 203 OFFCURVE",
"579 118 OFFCURVE",
"473 118 CURVE",
"367 118 OFFCURVE",
"327 203 OFFCURVE",
"327 394 CURVE",
"327 670 OFFCURVE",
"460 670 OFFCURVE",
"460 670 CURVE",
"460 700 LINE",
"38 700 LINE",
"38 670 LINE",
"38 670 OFFCURVE",
"154 670 OFFCURVE",
"154 337 CURVE",
"154 76 OFFCURVE",
"275 -60 OFFCURVE",
"473 -60 CURVE",
"670 -60 OFFCURVE",
"792 76 OFFCURVE",
"792 337 CURVE",
"792 670 OFFCURVE",
"907 670 OFFCURVE",
"907 670 CURVE",
"907 700 LINE",
"485 700 LINE"
);
}
);
width = 945;
}
);
leftKerningGroup = ULARGE;
rightKerningGroup = ULARGE;
},
{
glyphname = Q.ss03;
lastChange = "2019-06-27 22:37:45 +0000";
layers = (
{
associatedMasterId = "0BD328E4-CA8F-4CB2-8877-C1BF962BF784";
layerId = "D719B23E-3F6C-4F49-810F-765CCC1ACCC9";
name = "Oct 14 18, 23:29";
paths = (
{
closed = 1;
nodes = (
"1752 -99 OFFCURVE",
"1475 -268 OFFCURVE",
"1102 -268 CURVE",
"743 -268 OFFCURVE",
"466 -96 OFFCURVE",
"315 -21 CURVE",
"291 -9 OFFCURVE",
"241 12 OFFCURVE",
"202 12 CURVE",
"171 12 OFFCURVE",
"147 -10 OFFCURVE",
"147 -43 CURVE",
"147 -94 OFFCURVE",
"198 -99 OFFCURVE",
"198 -99 CURVE",
"198 -128 LINE",
"198 -128 OFFCURVE",
"41 -128 OFFCURVE",
"41 10 CURVE",
"41 96 OFFCURVE",
"103 138 OFFCURVE",
"207 138 CURVE",
"425 138 OFFCURVE",
"716 -179 OFFCURVE",
"1142 -179 CURVE",
"1495 -179 OFFCURVE",
"1739 -74 OFFCURVE",
"1739 -74 CURVE",
"1752 -99 LINE"
);
},
{
closed = 1;
nodes = (
"552 138 OFFCURVE",
"638 233 OFFCURVE",
"638 331 CURVE",
"638 423 OFFCURVE",
"578 499 OFFCURVE",
"480 499 CURVE",
"408 499 OFFCURVE",
"349 448 OFFCURVE",
"349 370 CURVE",
"349 320 OFFCURVE",
"387 311 OFFCURVE",
"387 311 CURVE",
"374 286 LINE",
"374 286 OFFCURVE",
"232 320 OFFCURVE",
"232 479 CURVE",
"232 574 OFFCURVE",
"322 700 OFFCURVE",
"506 700 CURVE",
"710 700 OFFCURVE",
"861 535 OFFCURVE",
"861 353 CURVE",
"861 129 OFFCURVE",
"674 -29 OFFCURVE",
"435 -29 CURVE",
"213 -29 OFFCURVE",
"30 133 OFFCURVE",
"30 336 CURVE",
"30 535 OFFCURVE",
"185 729 OFFCURVE",
"416 729 CURVE",
"416 719 OFFCURVE",
"416 711 OFFCURVE",
"416 700 CURVE",
"277 700 OFFCURVE",
"146 584 OFFCURVE",
"146 408 CURVE",
"146 246 OFFCURVE",
"268 138 OFFCURVE",
"424 138 CURVE"
);
}
);
width = 891;
},
{
associatedMasterId = "0BD328E4-CA8F-4CB2-8877-C1BF962BF784";
layerId = "49E51A30-EAE4-4EE6-ADDE-DAFE0247B97D";
name = "Oct 14 18, 23:32";
paths = (
{
closed = 1;
nodes = (
"1752 -99 OFFCURVE",
"1475 -268 OFFCURVE",
"1102 -268 CURVE",
"743 -268 OFFCURVE",
"466 -96 OFFCURVE",
"315 -21 CURVE",
"291 -9 OFFCURVE",
"241 12 OFFCURVE",
"202 12 CURVE",
"171 12 OFFCURVE",
"147 -10 OFFCURVE",
"147 -43 CURVE",
"147 -94 OFFCURVE",
"198 -99 OFFCURVE",
"198 -99 CURVE",
"198 -128 LINE",
"198 -128 OFFCURVE",
"41 -128 OFFCURVE",
"41 10 CURVE",
"41 96 OFFCURVE",
"103 138 OFFCURVE",
"167 138 CURVE",
"385 138 OFFCURVE",
"743 -179 OFFCURVE",
"1202 -179 CURVE",
"1555 -179 OFFCURVE",
"1739 -74 OFFCURVE",
"1739 -74 CURVE",
"1752 -99 LINE"
);
},
{
closed = 1;
nodes = (
"552 138 OFFCURVE",
"638 233 OFFCURVE",
"638 331 CURVE",
"638 423 OFFCURVE",
"578 499 OFFCURVE",
"480 499 CURVE",
"408 499 OFFCURVE",
"349 448 OFFCURVE",
"349 370 CURVE",
"349 320 OFFCURVE",
"387 311 OFFCURVE",
"387 311 CURVE",
"374 286 LINE",
"374 286 OFFCURVE",
"232 320 OFFCURVE",
"232 479 CURVE",
"232 574 OFFCURVE",
"322 700 OFFCURVE",
"506 700 CURVE",
"710 700 OFFCURVE",
"861 535 OFFCURVE",
"861 353 CURVE",
"861 129 OFFCURVE",
"674 -29 OFFCURVE",
"435 -29 CURVE",
"213 -29 OFFCURVE",
"30 133 OFFCURVE",
"30 336 CURVE",
"30 535 OFFCURVE",
"185 729 OFFCURVE",
"416 729 CURVE",
"416 719 OFFCURVE",
"416 711 OFFCURVE",
"416 700 CURVE",
"277 700 OFFCURVE",
"146 584 OFFCURVE",
"146 408 CURVE",
"146 246 OFFCURVE",
"268 138 OFFCURVE",
"424 138 CURVE"
);
}
);
width = 891;
},
{
associatedMasterId = "0BD328E4-CA8F-4CB2-8877-C1BF962BF784";
layerId = "BF2B5540-7607-4819-815B-BC13D739F688";
name = "Oct 14 18, 23:43";
paths = (
{
closed = 1;
nodes = (
"1752 -99 OFFCURVE",
"1475 -268 OFFCURVE",
"1102 -268 CURVE",
"743 -268 OFFCURVE",
"466 -96 OFFCURVE",
"315 -21 CURVE",
"291 -9 OFFCURVE",
"241 12 OFFCURVE",
"202 12 CURVE",
"171 12 OFFCURVE",
"147 -10 OFFCURVE",
"147 -43 CURVE",
"147 -94 OFFCURVE",
"198 -99 OFFCURVE",
"198 -99 CURVE",
"198 -128 LINE",
"198 -128 OFFCURVE",
"41 -128 OFFCURVE",
"41 10 CURVE",
"41 86 OFFCURVE",
"103 138 OFFCURVE",
"167 138 CURVE",
"385 138 OFFCURVE",
"743 -179 OFFCURVE",
"1202 -179 CURVE",
"1555 -179 OFFCURVE",
"1739 -74 OFFCURVE",
"1739 -74 CURVE",
"1752 -99 LINE"
);
},
{
closed = 1;
nodes = (
"552 138 OFFCURVE",
"638 233 OFFCURVE",
"638 331 CURVE",
"638 423 OFFCURVE",
"578 499 OFFCURVE",
"480 499 CURVE",
"408 499 OFFCURVE",
"349 448 OFFCURVE",
"349 370 CURVE",
"349 320 OFFCURVE",
"387 311 OFFCURVE",
"387 311 CURVE",
"374 286 LINE",
"374 286 OFFCURVE",
"232 320 OFFCURVE",
"232 479 CURVE",
"232 574 OFFCURVE",
"322 700 OFFCURVE",
"506 700 CURVE",
"710 700 OFFCURVE",
"861 535 OFFCURVE",
"861 353 CURVE",
"861 129 OFFCURVE",
"674 -29 OFFCURVE",
"435 -29 CURVE",
"213 -29 OFFCURVE",
"30 133 OFFCURVE",
"30 336 CURVE",
"30 535 OFFCURVE",
"185 729 OFFCURVE",
"416 729 CURVE",
"416 719 OFFCURVE",
"416 711 OFFCURVE",
"416 700 CURVE",
"277 700 OFFCURVE",
"146 584 OFFCURVE",
"146 408 CURVE",
"146 246 OFFCURVE",
"268 138 OFFCURVE",
"424 138 CURVE"
);
}
);
width = 891;
},
{
associatedMasterId = "0BD328E4-CA8F-4CB2-8877-C1BF962BF784";
layerId = "390D7123-A536-4E25-A05F-61AC912CF42D";
name = "Oct 14 18, 23:53";
paths = (
{
closed = 1;
nodes = (
"1739 -74 LINE",
"1739 -74 OFFCURVE",
"1555 -179 OFFCURVE",
"1202 -179 CURVE",
"963 -179 OFFCURVE",
"751 -93 OFFCURVE",
"572 -10 CURVE",
"742 37 OFFCURVE",
"861 174 OFFCURVE",
"861 353 CURVE",
"861 535 OFFCURVE",
"710 700 OFFCURVE",
"506 700 CURVE",
"322 700 OFFCURVE",
"232 574 OFFCURVE",
"232 479 CURVE",
"232 320 OFFCURVE",
"374 286 OFFCURVE",
"374 286 CURVE",
"387 311 LINE",
"387 311 OFFCURVE",
"349 320 OFFCURVE",
"349 370 CURVE",
"349 448 OFFCURVE",
"408 499 OFFCURVE",
"480 499 CURVE",
"578 499 OFFCURVE",
"638 423 OFFCURVE",
"638 331 CURVE",
"638 233 OFFCURVE",
"552 138 OFFCURVE",
"424 138 CURVE",
"268 138 OFFCURVE",
"146 246 OFFCURVE",
"146 408 CURVE",
"146 584 OFFCURVE",
"277 700 OFFCURVE",
"416 700 CURVE",
"416 711 OFFCURVE",
"416 719 OFFCURVE",
"416 729 CURVE",
"185 729 OFFCURVE",
"30 535 OFFCURVE",
"30 336 CURVE",
"30 202 OFFCURVE",
"110 86 OFFCURVE",
"228 23 CURVE",
"184 -18 OFFCURVE",
"170 -69 OFFCURVE",
"170 -69 CURVE",
"196 -80 LINE",
"196 -80 OFFCURVE",
"218 -39 OFFCURVE",
"302 -39 CURVE",
"475 -39 OFFCURVE",
"588 -268 OFFCURVE",
"1102 -268 CURVE",
"1475 -268 OFFCURVE",
"1752 -99 OFFCURVE",
"1752 -99 CURVE"
);
}
);
width = 891;
},
{
associatedMasterId = "0BD328E4-CA8F-4CB2-8877-C1BF962BF784";
layerId = "884C9D56-0AF2-46C8-AB9E-42B0325BC8DB";
name = "Oct 15 18, 12:51";
paths = (
{
closed = 1;
nodes = (
"1739 -74 LINE",
"1739 -74 OFFCURVE",
"1555 -179 OFFCURVE",
"1202 -179 CURVE",
"963 -179 OFFCURVE",
"751 -93 OFFCURVE",
"572 -10 CURVE",
"742 37 OFFCURVE",
"861 174 OFFCURVE",
"861 353 CURVE",
"861 535 OFFCURVE",
"710 700 OFFCURVE",
"506 700 CURVE",
"322 700 OFFCURVE",
"232 574 OFFCURVE",
"232 479 CURVE",
"232 320 OFFCURVE",
"374 286 OFFCURVE",
"374 286 CURVE",
"387 311 LINE",
"387 311 OFFCURVE",
"349 320 OFFCURVE",
"349 370 CURVE",
"349 448 OFFCURVE",
"408 499 OFFCURVE",
"480 499 CURVE",
"578 499 OFFCURVE",
"638 423 OFFCURVE",
"638 331 CURVE",
"638 233 OFFCURVE",
"552 138 OFFCURVE",
"424 138 CURVE",
"268 138 OFFCURVE",
"146 246 OFFCURVE",
"146 408 CURVE",
"146 584 OFFCURVE",
"277 700 OFFCURVE",
"416 700 CURVE",
"416 711 OFFCURVE",
"416 719 OFFCURVE",
"416 729 CURVE",
"185 729 OFFCURVE",
"30 535 OFFCURVE",
"30 336 CURVE",
"30 202 OFFCURVE",
"110 86 OFFCURVE",
"228 23 CURVE",
"184 -18 OFFCURVE",
"170 -69 OFFCURVE",
"170 -69 CURVE",
"196 -80 LINE",
"196 -80 OFFCURVE",
"218 -39 OFFCURVE",
"302 -39 CURVE",
"475 -39 OFFCURVE",
"638 -268 OFFCURVE",
"1152 -268 CURVE",
"1525 -268 OFFCURVE",
"1752 -99 OFFCURVE",
"1752 -99 CURVE"
);
}
);
width = 891;
},
{
associatedMasterId = "0BD328E4-CA8F-4CB2-8877-C1BF962BF784";
layerId = "78000F87-388F-4925-9D57-62BD71479C1E";
name = "Oct 15 18, 12:51";
paths = (
{
closed = 1;
nodes = (
"1739 -74 LINE",
"1739 -74 OFFCURVE",
"1555 -179 OFFCURVE",
"1202 -179 CURVE",
"963 -179 OFFCURVE",
"751 -93 OFFCURVE",
"572 -10 CURVE",
"742 37 OFFCURVE",
"861 174 OFFCURVE",
"861 353 CURVE",
"861 535 OFFCURVE",
"710 700 OFFCURVE",
"506 700 CURVE",
"322 700 OFFCURVE",
"232 574 OFFCURVE",
"232 479 CURVE",
"232 320 OFFCURVE",
"374 286 OFFCURVE",
"374 286 CURVE",
"387 311 LINE",
"387 311 OFFCURVE",
"349 320 OFFCURVE",
"349 370 CURVE",
"349 448 OFFCURVE",
"408 499 OFFCURVE",
"480 499 CURVE",
"578 499 OFFCURVE",
"638 423 OFFCURVE",
"638 331 CURVE",
"638 233 OFFCURVE",
"552 138 OFFCURVE",
"424 138 CURVE",
"268 138 OFFCURVE",
"146 246 OFFCURVE",
"146 408 CURVE",
"146 584 OFFCURVE",
"277 700 OFFCURVE",
"416 700 CURVE",
"416 711 OFFCURVE",
"416 719 OFFCURVE",
"416 729 CURVE",
"185 729 OFFCURVE",
"30 535 OFFCURVE",
"30 336 CURVE",
"30 202 OFFCURVE",
"110 86 OFFCURVE",
"228 23 CURVE",
"184 -18 OFFCURVE",
"170 -69 OFFCURVE",
"170 -69 CURVE",
"196 -80 LINE",
"196 -80 OFFCURVE",
"218 -39 OFFCURVE",
"302 -39 CURVE",
"475 -39 OFFCURVE",
"638 -268 OFFCURVE",
"1152 -268 CURVE",
"1525 -268 OFFCURVE",
"1752 -99 OFFCURVE",
"1752 -99 CURVE"
);
}
);
width = 891;
},
{
layerId = "0BD328E4-CA8F-4CB2-8877-C1BF962BF784";
paths = (
{
closed = 1;
nodes = (
"30 535 OFFCURVE",
"185 729 OFFCURVE",
"416 729 CURVE",
"416 700 LINE",
"277 700 OFFCURVE",
"146 584 OFFCURVE",
"146 408 CURVE SMOOTH",
"146 246 OFFCURVE",
"268 138 OFFCURVE",
"424 138 CURVE SMOOTH",
"552 138 OFFCURVE",
"638 233 OFFCURVE",
"638 331 CURVE SMOOTH",
"638 423 OFFCURVE",
"578 499 OFFCURVE",
"480 499 CURVE SMOOTH",
"408 499 OFFCURVE",
"349 448 OFFCURVE",
"349 370 CURVE SMOOTH",
"349 320 OFFCURVE",
"387 311 OFFCURVE",
"387 311 CURVE",
"374 286 LINE",
"374 286 OFFCURVE",
"232 320 OFFCURVE",
"232 479 CURVE SMOOTH",
"232 574 OFFCURVE",
"322 700 OFFCURVE",
"506 700 CURVE SMOOTH",
"710 700 OFFCURVE",
"861 535 OFFCURVE",
"861 353 CURVE SMOOTH",
"861 174 OFFCURVE",
"742 37 OFFCURVE",
"572 -10 CURVE",
"751 -93 OFFCURVE",
"963 -179 OFFCURVE",
"1202 -179 CURVE SMOOTH",
"1555 -179 OFFCURVE",
"1739 -74 OFFCURVE",
"1739 -74 CURVE",
"1752 -99 LINE",
"1752 -99 OFFCURVE",
"1475 -268 OFFCURVE",
"1102 -268 CURVE SMOOTH",
"743 -268 OFFCURVE",
"466 -96 OFFCURVE",
"315 -21 CURVE SMOOTH",
"291 -9 OFFCURVE",
"241 12 OFFCURVE",
"202 12 CURVE SMOOTH",
"171 12 OFFCURVE",
"147 -10 OFFCURVE",
"147 -43 CURVE SMOOTH",
"147 -94 OFFCURVE",
"198 -99 OFFCURVE",
"198 -99 CURVE",
"198 -128 LINE",
"198 -128 OFFCURVE",
"41 -128 OFFCURVE",
"41 10 CURVE SMOOTH",
"41 61 OFFCURVE",
"69 101 OFFCURVE",
"107 122 CURVE",
"59 182 OFFCURVE",
"30 256 OFFCURVE",
"30 336 CURVE SMOOTH"
);
}
);
width = 892;
},
{
associatedMasterId = "0BD328E4-CA8F-4CB2-8877-C1BF962BF784";
layerId = "C8EAD8E6-7D16-4236-AC9A-9D5FBD5FBDE0";
name = "Oct 30 18, 13:36";
paths = (
{
closed = 1;
nodes = (
"1752 -99 OFFCURVE",
"1475 -268 OFFCURVE",
"1102 -268 CURVE",
"743 -268 OFFCURVE",
"466 -96 OFFCURVE",
"315 -21 CURVE",
"291 -9 OFFCURVE",
"241 12 OFFCURVE",
"202 12 CURVE",
"171 12 OFFCURVE",
"147 -10 OFFCURVE",
"147 -43 CURVE",
"147 -94 OFFCURVE",
"198 -99 OFFCURVE",
"198 -99 CURVE",
"198 -128 LINE",
"198 -128 OFFCURVE",
"41 -128 OFFCURVE",
"41 10 CURVE",
"41 86 OFFCURVE",
"103 138 OFFCURVE",
"167 138 CURVE",
"385 138 OFFCURVE",
"743 -179 OFFCURVE",
"1202 -179 CURVE",
"1555 -179 OFFCURVE",
"1739 -74 OFFCURVE",
"1739 -74 CURVE",
"1752 -99 LINE"
);
},
{
closed = 1;
nodes = (
"552 138 OFFCURVE",
"638 233 OFFCURVE",
"638 331 CURVE",
"638 423 OFFCURVE",
"578 499 OFFCURVE",
"480 499 CURVE",
"408 499 OFFCURVE",
"349 448 OFFCURVE",
"349 370 CURVE",
"349 320 OFFCURVE",
"387 311 OFFCURVE",
"387 311 CURVE",
"374 286 LINE",
"374 286 OFFCURVE",
"232 320 OFFCURVE",
"232 479 CURVE",
"232 574 OFFCURVE",
"322 700 OFFCURVE",
"506 700 CURVE",
"710 700 OFFCURVE",
"861 535 OFFCURVE",
"861 353 CURVE",
"861 129 OFFCURVE",
"674 -29 OFFCURVE",
"435 -29 CURVE",
"213 -29 OFFCURVE",
"30 133 OFFCURVE",
"30 336 CURVE",
"30 535 OFFCURVE",
"185 729 OFFCURVE",
"416 729 CURVE",
"416 719 OFFCURVE",
"416 711 OFFCURVE",
"416 700 CURVE",
"277 700 OFFCURVE",
"146 584 OFFCURVE",
"146 408 CURVE",
"146 246 OFFCURVE",
"268 138 OFFCURVE",
"424 138 CURVE"
);
}
);
width = 891;
}
);
leftKerningGroup = O;
rightKerningGroup = O;
},
{
glyphname = R.ss03;
lastChange = "2020-09-04 10:15:02 +0000";
layers = (
{
anchors = (
{
name = bottom;
position = "{455, 0}";
},
{
name = top;
position = "{455, 700}";
}
);
layerId = "0BD328E4-CA8F-4CB2-8877-C1BF962BF784";
paths = (
{
closed = 1;
nodes = (
"487 0 LINE",
"487 29 LINE",
"487 29 OFFCURVE",
"389 29 OFFCURVE",
"389 332 CURVE SMOOTH",
"389 525 OFFCURVE",
"454 612 OFFCURVE",
"479 612 CURVE SMOOTH",
"519 612 OFFCURVE",
"552 519 OFFCURVE",
"552 437 CURVE SMOOTH",
"552 286 OFFCURVE",
"425 208 OFFCURVE",
"425 208 CURVE",
"425 179 LINE",
"425 179 OFFCURVE",
"450 177 OFFCURVE",
"499 152 CURVE SMOOTH",
"675 61 OFFCURVE",
"1005 -138 OFFCURVE",
"1348 -138 CURVE SMOOTH",
"1721 -138 OFFCURVE",
"1998 31 OFFCURVE",
"1998 31 CURVE",
"1985 56 LINE",
"1985 56 OFFCURVE",
"1801 -49 OFFCURVE",
"1448 -49 CURVE SMOOTH",
"1119 -49 OFFCURVE",
"851 137 OFFCURVE",
"642 247 CURVE",
"708 291 OFFCURVE",
"774 379 OFFCURVE",
"774 465 CURVE SMOOTH",
"774 606 OFFCURVE",
"661 700 OFFCURVE",
"479 700 CURVE SMOOTH",
"25 700 LINE",
"25 671 LINE",
"151 671 OFFCURVE",
"214 511 OFFCURVE",
"214 350 CURVE SMOOTH",
"214 190 OFFCURVE",
"151 29 OFFCURVE",
"25 29 CURVE",
"25 0 LINE"
);
}
);
width = 1198;
},
{
associatedMasterId = "0BD328E4-CA8F-4CB2-8877-C1BF962BF784";
layerId = "68971402-7C59-40B5-B9EB-1041012EDF4A";
name = "Mar 20 18, 14:39";
paths = (
{
closed = 1;
nodes = (
"714 310 OFFCURVE",
"768 388 OFFCURVE",
"768 475 CURVE",
"768 616 OFFCURVE",
"654 700 OFFCURVE",
"482 700 CURVE",
"38 700 LINE",
"38 671 LINE",
"38 671 OFFCURVE",
"227 671 OFFCURVE",
"227 350 CURVE",
"227 29 OFFCURVE",
"38 29 OFFCURVE",
"38 29 CURVE",
"38 0 LINE",
"490 0 LINE",
"490 29 LINE",
"490 29 OFFCURVE",
"394 29 OFFCURVE",
"394 332 CURVE",
"394 525 OFFCURVE",
"458 613 OFFCURVE",
"482 613 CURVE",
"522 613 OFFCURVE",
"555 520 OFFCURVE",
"555 437 CURVE",
"555 286 OFFCURVE",
"428 248 OFFCURVE",
"428 248 CURVE",
"428 248 OFFCURVE",
"428 248 OFFCURVE",
"428 219 CURVE",
"496 219 OFFCURVE",
"571 124 OFFCURVE",
"571 88 CURVE",
"571 30 OFFCURVE",
"515 30 OFFCURVE",
"515 30 CURVE",
"515 1 LINE",
"901 1 LINE",
"901 30 LINE",
"748 30 OFFCURVE",
"626 200 OFFCURVE",
"626 264 CURVE"
);
}
);
width = 939;
},
{
associatedMasterId = "0BD328E4-CA8F-4CB2-8877-C1BF962BF784";
layerId = "B5F16090-F2B3-450F-A8AD-2240A6444743";
name = "Mar 28 18, 15:50";
paths = (
{
closed = 1;
nodes = (
"714 310 OFFCURVE",
"767 387 OFFCURVE",
"767 475 CURVE",
"767 616 OFFCURVE",
"654 700 OFFCURVE",
"482 700 CURVE",
"38 700 LINE",
"38 671 LINE",
"38 671 OFFCURVE",
"228 671 OFFCURVE",
"228 350 CURVE",
"228 29 OFFCURVE",
"38 29 OFFCURVE",
"38 29 CURVE",
"38 0 LINE",
"512 0 LINE",
"512 29 LINE",
"512 29 OFFCURVE",
"392 29 OFFCURVE",
"392 332 CURVE",
"392 525 OFFCURVE",
"457 612 OFFCURVE",
"482 612 CURVE",
"522 612 OFFCURVE",
"555 519 OFFCURVE",
"555 437 CURVE",
"555 286 OFFCURVE",
"428 248 OFFCURVE",
"428 248 CURVE",
"428 248 OFFCURVE",
"428 248 OFFCURVE",
"428 219 CURVE",
"496 219 OFFCURVE",
"571 123 OFFCURVE",
"571 87 CURVE",
"571 29 OFFCURVE",
"537 29 OFFCURVE",
"537 29 CURVE",
"537 0 LINE",
"857 0 LINE",
"857 29 LINE",
"748 29 OFFCURVE",
"701 161 OFFCURVE",
"626 264 CURVE"
);
}
);
width = 895;
},
{
anchors = (
{
name = bottom;
position = "{440, 0}";
},
{
name = top;
position = "{440, 700}";
}
);
associatedMasterId = "0BD328E4-CA8F-4CB2-8877-C1BF962BF784";
layerId = "2036C58A-3C5B-4DF4-B026-382D2DFE75FA";
name = "Oct 16 18, 22:53";
paths = (
{
closed = 1;
nodes = (
"410 179 LINE",
"410 179 OFFCURVE",
"435 177 OFFCURVE",
"484 152 CURVE",
"660 61 OFFCURVE",
"990 -138 OFFCURVE",
"1333 -138 CURVE",
"1706 -138 OFFCURVE",
"1983 31 OFFCURVE",
"1983 31 CURVE",
"1970 56 LINE",
"1970 56 OFFCURVE",
"1786 -49 OFFCURVE",
"1433 -49 CURVE",
"1104 -49 OFFCURVE",
"836 127 OFFCURVE",
"627 237 CURVE",
"693 281 OFFCURVE",
"759 379 OFFCURVE",
"759 465 CURVE",
"759 606 OFFCURVE",
"646 700 OFFCURVE",
"464 700 CURVE",
"20 700 LINE",
"20 671 LINE",
"20 671 OFFCURVE",
"210 671 OFFCURVE",
"210 350 CURVE",
"210 29 OFFCURVE",
"20 29 OFFCURVE",
"20 29 CURVE",
"20 0 LINE",
"472 0 LINE",
"472 29 LINE",
"472 29 OFFCURVE",
"374 29 OFFCURVE",
"374 332 CURVE",
"374 525 OFFCURVE",
"439 612 OFFCURVE",
"464 612 CURVE",
"504 612 OFFCURVE",
"537 519 OFFCURVE",
"537 437 CURVE",
"537 286 OFFCURVE",
"410 208 OFFCURVE",
"410 208 CURVE"
);
}
);
width = 869;
}
);
leftKerningGroup = H;
rightKerningGroup = R;
},
{
glyphname = a;
lastChange = "2019-06-27 22:01:59 +0000";
layers = (
{
anchors = (
{
name = bottom;
position = "{294, 0}";
},
{
name = ogonek;
position = "{524, 10}";
},
{
name = top;
position = "{294, 500}";
}
);
layerId = "0BD328E4-CA8F-4CB2-8877-C1BF962BF784";
paths = (
{
closed = 1;
nodes = (
"490 230 OFFCURVE",
"490 247 OFFCURVE",
"490 277 CURVE",
"490 472 OFFCURVE",
"361 509 OFFCURVE",
"280 509 CURVE",
"189 509 OFFCURVE",
"113 472 OFFCURVE",
"113 398 CURVE",
"113 319 OFFCURVE",
"191 309 OFFCURVE",
"220 309 CURVE",
"220 316 OFFCURVE",
"220 329 OFFCURVE",
"220 339 CURVE",
"204 339 OFFCURVE",
"181 347 OFFCURVE",
"181 372 CURVE",
"181 393 OFFCURVE",
"201 415 OFFCURVE",
"239 415 CURVE",
"300 415 OFFCURVE",
"334 347 OFFCURVE",
"334 261 CURVE",
"334 222 LINE",
"334 135 OFFCURVE",
"280 102 OFFCURVE",
"228 102 CURVE",
"198 102 OFFCURVE",
"159 123 OFFCURVE",
"159 165 CURVE",
"159 213 OFFCURVE",
"204 228 OFFCURVE",
"238 228 CURVE",
"278 228 OFFCURVE",
"298 214 OFFCURVE",
"298 214 CURVE",
"320 242 LINE",
"320 242 OFFCURVE",
"255 286 OFFCURVE",
"181 286 CURVE",
"82 286 OFFCURVE",
"15 243 OFFCURVE",
"15 141 CURVE",
"15 58 OFFCURVE",
"88 -14 OFFCURVE",
"180 -14 CURVE",
"287 -14 OFFCURVE",
"334 46 OFFCURVE",
"334 46 CURVE",
"334 0 LINE",
"572 0 LINE",
"572 29 LINE",
"572 29 OFFCURVE",
"490 29 OFFCURVE",
"490 197 CURVE"
);
}
);
width = 587;
},
{
associatedMasterId = "0BD328E4-CA8F-4CB2-8877-C1BF962BF784";
layerId = "61B1D4EA-1254-48EF-9F3B-732771ECE35B";
name = "Jun 7 18, 22:51";
paths = (
{
closed = 1;
nodes = (
"495 230 OFFCURVE",
"495 307 OFFCURVE",
"495 337 CURVE",
"495 500 OFFCURVE",
"386 529 OFFCURVE",
"305 529 CURVE",
"194 529 OFFCURVE",
"118 482 OFFCURVE",
"118 408 CURVE",
"118 329 OFFCURVE",
"196 309 OFFCURVE",
"225 309 CURVE",
"225 316 OFFCURVE",
"225 319 OFFCURVE",
"225 329 CURVE",
"209 329 OFFCURVE",
"186 347 OFFCURVE",
"186 372 CURVE",
"186 393 OFFCURVE",
"206 415 OFFCURVE",
"244 415 CURVE",
"305 415 OFFCURVE",
"339 377 OFFCURVE",
"339 261 CURVE",
"339 222 LINE",
"339 135 OFFCURVE",
"285 102 OFFCURVE",
"233 102 CURVE",
"203 102 OFFCURVE",
"164 123 OFFCURVE",
"164 165 CURVE",
"164 213 OFFCURVE",
"209 228 OFFCURVE",
"243 228 CURVE",
"283 228 OFFCURVE",
"303 214 OFFCURVE",
"303 214 CURVE",
"325 242 LINE",
"325 242 OFFCURVE",
"260 286 OFFCURVE",
"186 286 CURVE",
"87 286 OFFCURVE",
"20 243 OFFCURVE",
"20 141 CURVE",
"20 58 OFFCURVE",
"93 -14 OFFCURVE",
"185 -14 CURVE",
"292 -14 OFFCURVE",
"339 46 OFFCURVE",
"339 46 CURVE",
"339 0 LINE",
"577 0 LINE",
"577 29 LINE",
"577 29 OFFCURVE",
"495 29 OFFCURVE",
"495 197 CURVE"
);
}
);
width = 597;
},
{
associatedMasterId = "0BD328E4-CA8F-4CB2-8877-C1BF962BF784";
layerId = "E187CC73-2ECB-4A5A-8385-4A28B4786C67";
name = "Sep 18 18, 18:46";
paths = (
{
closed = 1;
nodes = (
"485 230 OFFCURVE",
"485 257 OFFCURVE",
"485 287 CURVE SMOOTH",
"485 482 OFFCURVE",
"356 519 OFFCURVE",
"275 519 CURVE",
"184 519 OFFCURVE",
"108 482 OFFCURVE",
"108 408 CURVE",
"108 329 OFFCURVE",
"186 309 OFFCURVE",
"215 309 CURVE",
"215 316 OFFCURVE",
"215 319 OFFCURVE",
"215 329 CURVE",
"199 329 OFFCURVE",
"176 347 OFFCURVE",
"176 372 CURVE",
"176 393 OFFCURVE",
"196 415 OFFCURVE",
"234 415 CURVE",
"295 415 OFFCURVE",
"329 377 OFFCURVE",
"329 261 CURVE",
"329 222 LINE",
"329 135 OFFCURVE",
"275 102 OFFCURVE",
"223 102 CURVE",
"193 102 OFFCURVE",
"154 123 OFFCURVE",
"154 165 CURVE",
"154 213 OFFCURVE",
"199 228 OFFCURVE",
"233 228 CURVE",
"273 228 OFFCURVE",
"293 214 OFFCURVE",
"293 214 CURVE",
"315 242 LINE",
"315 242 OFFCURVE",
"250 286 OFFCURVE",
"176 286 CURVE",
"77 286 OFFCURVE",
"10 243 OFFCURVE",
"10 141 CURVE",
"10 58 OFFCURVE",
"83 -14 OFFCURVE",
"175 -14 CURVE",
"282 -14 OFFCURVE",
"329 46 OFFCURVE",
"329 46 CURVE",
"329 0 LINE",
"567 0 LINE",
"567 29 LINE",
"567 29 OFFCURVE",
"485 29 OFFCURVE",
"485 197 CURVE"
);
}
);
width = 577;
},
{
associatedMasterId = "0BD328E4-CA8F-4CB2-8877-C1BF962BF784";
layerId = "4961CE27-3B15-4A1F-B5DB-69FF6FD666D3";
name = "Sep 28 18, 18:17";
paths = (
{
closed = 1;
nodes = (
"485 230 OFFCURVE",
"485 257 OFFCURVE",
"485 287 CURVE",
"485 482 OFFCURVE",
"356 519 OFFCURVE",
"275 519 CURVE",
"184 519 OFFCURVE",
"108 482 OFFCURVE",
"108 408 CURVE",
"108 329 OFFCURVE",
"186 309 OFFCURVE",
"215 309 CURVE",
"215 316 OFFCURVE",
"215 329 OFFCURVE",
"215 339 CURVE",
"199 339 OFFCURVE",
"176 347 OFFCURVE",
"176 372 CURVE",
"176 393 OFFCURVE",
"196 415 OFFCURVE",
"234 415 CURVE",
"295 415 OFFCURVE",
"329 377 OFFCURVE",
"329 261 CURVE",
"329 222 LINE",
"329 135 OFFCURVE",
"275 102 OFFCURVE",
"223 102 CURVE",
"193 102 OFFCURVE",
"154 123 OFFCURVE",
"154 165 CURVE",
"154 213 OFFCURVE",
"199 228 OFFCURVE",
"233 228 CURVE",
"273 228 OFFCURVE",
"293 214 OFFCURVE",
"293 214 CURVE",
"315 242 LINE",
"315 242 OFFCURVE",
"250 286 OFFCURVE",
"176 286 CURVE",
"77 286 OFFCURVE",
"10 243 OFFCURVE",
"10 141 CURVE",
"10 58 OFFCURVE",
"83 -14 OFFCURVE",
"175 -14 CURVE",
"282 -14 OFFCURVE",
"329 46 OFFCURVE",
"329 46 CURVE",
"329 0 LINE",
"567 0 LINE",
"567 29 LINE",
"567 29 OFFCURVE",
"485 29 OFFCURVE",
"485 197 CURVE"
);
}
);
width = 577;
},
{
anchors = (
{
name = bottom;
position = "{289, 0}";
},
{
name = ogonek;
position = "{519, 10}";
},
{
name = top;
position = "{289, 500}";
}
);
associatedMasterId = "0BD328E4-CA8F-4CB2-8877-C1BF962BF784";
layerId = "F2241F37-706D-44B6-8751-30D6B7C29ABD";
name = "Oct 5 18, 16:17";
paths = (
{
closed = 1;
nodes = (
"485 230 OFFCURVE",
"485 247 OFFCURVE",
"485 277 CURVE",
"485 472 OFFCURVE",
"356 509 OFFCURVE",
"275 509 CURVE",
"184 509 OFFCURVE",
"108 472 OFFCURVE",
"108 398 CURVE",
"108 319 OFFCURVE",
"186 309 OFFCURVE",
"215 309 CURVE",
"215 316 OFFCURVE",
"215 329 OFFCURVE",
"215 339 CURVE",
"199 339 OFFCURVE",
"176 347 OFFCURVE",
"176 372 CURVE",
"176 393 OFFCURVE",
"196 415 OFFCURVE",
"234 415 CURVE",
"295 415 OFFCURVE",
"329 377 OFFCURVE",
"329 261 CURVE",
"329 222 LINE",
"329 135 OFFCURVE",
"275 102 OFFCURVE",
"223 102 CURVE",
"193 102 OFFCURVE",
"154 123 OFFCURVE",
"154 165 CURVE",
"154 213 OFFCURVE",
"199 228 OFFCURVE",
"233 228 CURVE",
"273 228 OFFCURVE",
"293 214 OFFCURVE",
"293 214 CURVE",
"315 242 LINE",
"315 242 OFFCURVE",
"250 286 OFFCURVE",
"176 286 CURVE",
"77 286 OFFCURVE",
"10 243 OFFCURVE",
"10 141 CURVE",
"10 58 OFFCURVE",
"83 -14 OFFCURVE",
"175 -14 CURVE",
"282 -14 OFFCURVE",
"329 46 OFFCURVE",
"329 46 CURVE",
"329 0 LINE",
"567 0 LINE",
"567 29 LINE",
"567 29 OFFCURVE",
"485 29 OFFCURVE",
"485 197 CURVE"
);
}
);
width = 577;
}
);
leftKerningGroup = a;
rightKerningGroup = n;
unicode = 0061;
},
{
glyphname = atilde;
lastChange = "2019-04-26 08:36:06 +0000";
layers = (
{
anchors = (
{
name = bottom;
position = "{289, 0}";
},
{
name = ogonek;
position = "{519, 10}";
},
{
name = top;
position = "{289, 751}";
}
);
layerId = "0BD328E4-CA8F-4CB2-8877-C1BF962BF784";
paths = (
{
closed = 1;
nodes = (
"485 230 OFFCURVE",
"485 247 OFFCURVE",
"485 277 CURVE",
"485 472 OFFCURVE",
"356 509 OFFCURVE",
"275 509 CURVE",
"184 509 OFFCURVE",
"108 472 OFFCURVE",
"108 398 CURVE",
"108 319 OFFCURVE",
"186 309 OFFCURVE",
"215 309 CURVE",
"215 316 OFFCURVE",
"215 329 OFFCURVE",
"215 339 CURVE",
"199 339 OFFCURVE",
"176 347 OFFCURVE",
"176 372 CURVE",
"176 393 OFFCURVE",
"196 415 OFFCURVE",
"234 415 CURVE",
"295 415 OFFCURVE",
"329 347 OFFCURVE",
"329 261 CURVE",
"329 222 LINE",
"329 135 OFFCURVE",
"275 102 OFFCURVE",
"223 102 CURVE",
"193 102 OFFCURVE",
"154 123 OFFCURVE",
"154 165 CURVE",
"154 213 OFFCURVE",
"199 228 OFFCURVE",
"233 228 CURVE",
"273 228 OFFCURVE",
"293 214 OFFCURVE",
"293 214 CURVE",
"315 242 LINE",
"315 242 OFFCURVE",
"250 286 OFFCURVE",
"176 286 CURVE",
"77 286 OFFCURVE",
"10 243 OFFCURVE",
"10 141 CURVE",
"10 58 OFFCURVE",
"83 -14 OFFCURVE",
"175 -14 CURVE",
"282 -14 OFFCURVE",
"329 46 OFFCURVE",
"329 46 CURVE",
"329 0 LINE",
"567 0 LINE",
"567 29 LINE",
"567 29 OFFCURVE",
"485 29 OFFCURVE",
"485 197 CURVE"
);
},
{
closed = 1;
nodes = (
"472 688 OFFCURVE",
"459 640 OFFCURVE",
"384 640 CURVE SMOOTH",
"323 640 OFFCURVE",
"284 710 OFFCURVE",
"209 710 CURVE SMOOTH",
"128 710 OFFCURVE",
"85 619 OFFCURVE",
"85 537 CURVE",
"111 537 LINE",
"111 573 OFFCURVE",
"144 621 OFFCURVE",
"199 621 CURVE SMOOTH",
"273 621 OFFCURVE",
"313 552 OFFCURVE",
"374 552 CURVE SMOOTH",
"465 552 OFFCURVE",
"498 642 OFFCURVE",
"498 724 CURVE",
"472 724 LINE"
);
}
);
width = 577;
}
);
leftKerningGroup = a;
rightKerningGroup = n;
unicode = 00E3;
},
{
glyphname = ae;
lastChange = "2019-06-27 22:36:33 +0000";
layers = (
{
layerId = "0BD328E4-CA8F-4CB2-8877-C1BF962BF784";
paths = (
{
closed = 1;
nodes = (
"15 58 OFFCURVE",
"78 -26 OFFCURVE",
"220 -26 CURVE SMOOTH",
"354 -26 OFFCURVE",
"415 27 OFFCURVE",
"430 42 CURVE",
"476 3 OFFCURVE",
"533 -19 OFFCURVE",
"589 -19 CURVE SMOOTH",
"728 -19 OFFCURVE",
"816 91 OFFCURVE",
"816 91 CURVE",
"791 117 LINE",
"791 117 OFFCURVE",
"740 62 OFFCURVE",
"652 62 CURVE SMOOTH",
"564 62 OFFCURVE",
"512 134 OFFCURVE",
"512 247 CURVE SMOOTH",
"512 334 OFFCURVE",
"558 410 OFFCURVE",
"610 410 CURVE SMOOTH",
"640 410 OFFCURVE",
"686 388 OFFCURVE",
"686 325 CURVE SMOOTH",
"686 277 OFFCURVE",
"650 242 OFFCURVE",
"607 242 CURVE SMOOTH",
"576 242 OFFCURVE",
"558 257 OFFCURVE",
"558 257 CURVE",
"536 229 LINE",
"536 229 OFFCURVE",
"570 188 OFFCURVE",
"634 188 CURVE SMOOTH",
"733 188 OFFCURVE",
"810 256 OFFCURVE",
"810 338 CURVE SMOOTH",
"810 466 OFFCURVE",
"699 526 OFFCURVE",
"607 526 CURVE SMOOTH",
"553 526 OFFCURVE",
"487 506 OFFCURVE",
"433 463 CURVE",
"389 514 OFFCURVE",
"327 529 OFFCURVE",
"280 529 CURVE SMOOTH",
"189 529 OFFCURVE",
"113 482 OFFCURVE",
"113 408 CURVE SMOOTH",
"113 329 OFFCURVE",
"191 309 OFFCURVE",
"220 309 CURVE",
"220 339 LINE",
"204 339 OFFCURVE",
"181 347 OFFCURVE",
"181 372 CURVE SMOOTH",
"181 393 OFFCURVE",
"201 415 OFFCURVE",
"239 415 CURVE SMOOTH",
"300 415 OFFCURVE",
"334 347 OFFCURVE",
"334 261 CURVE SMOOTH",
"334 222 LINE SMOOTH",
"334 135 OFFCURVE",
"280 105 OFFCURVE",
"228 105 CURVE SMOOTH",
"198 105 OFFCURVE",
"159 123 OFFCURVE",
"159 165 CURVE SMOOTH",
"159 213 OFFCURVE",
"204 228 OFFCURVE",
"238 228 CURVE SMOOTH",
"278 228 OFFCURVE",
"298 214 OFFCURVE",
"298 214 CURVE",
"320 242 LINE",
"320 242 OFFCURVE",
"255 286 OFFCURVE",
"181 286 CURVE SMOOTH",
"82 286 OFFCURVE",
"15 243 OFFCURVE",
"15 141 CURVE SMOOTH"
);
}
);
width = 831;
}
);
leftKerningGroup = a;
rightKerningGroup = e;
unicode = 00E6;
},
{
glyphname = b;
lastChange = "2019-07-10 13:12:00 +0000";
layers = (
{
anchors = (
{
name = bottom;
position = "{334, 0}";
},
{
name = top;
position = "{334, 500}";
}
);
layerId = "0BD328E4-CA8F-4CB2-8877-C1BF962BF784";
paths = (
{
closed = 1;
nodes = (
"242 0 LINE",
"242 30 LINE",
"278 -15 OFFCURVE",
"338 -29 OFFCURVE",
"390 -29 CURVE SMOOTH",
"511 -29 OFFCURVE",
"633 77 OFFCURVE",
"633 256 CURVE SMOOTH",
"633 383 OFFCURVE",
"551 510 OFFCURVE",
"442 510 CURVE SMOOTH",
"308 510 OFFCURVE",
"296 357 OFFCURVE",
"296 294 CURVE",
"327 294 LINE",
"327 345 OFFCURVE",
"334 403 OFFCURVE",
"384 403 CURVE SMOOTH",
"436 403 OFFCURVE",
"467 323 OFFCURVE",
"467 256 CURVE SMOOTH",
"467 188 OFFCURVE",
"450 88 OFFCURVE",
"372 88 CURVE SMOOTH",
"304 88 OFFCURVE",
"270 185 OFFCURVE",
"269 342 CURVE",
"269 377 LINE SMOOTH",
"275 671 OFFCURVE",
"365 671 OFFCURVE",
"365 671 CURVE",
"365 700 LINE",
"15 700 LINE",
"15 671 LINE",
"15 671 OFFCURVE",
"134 671 OFFCURVE",
"134 350 CURVE SMOOTH",
"134 29 OFFCURVE",
"15 29 OFFCURVE",
"15 29 CURVE",
"15 0 LINE"
);
}
);
width = 658;
},
{
associatedMasterId = "0BD328E4-CA8F-4CB2-8877-C1BF962BF784";
layerId = "AC6CA88E-D7AD-400F-A84D-DF99540D7757";
name = "Jun 8 18, 17:03";
paths = (
{
closed = 1;
nodes = (
"678 432 OFFCURVE",
"578 527 OFFCURVE",
"427 529 CURVE",
"379 530 OFFCURVE",
"349 519 OFFCURVE",
"329 505 CURVE",
"354 671 OFFCURVE",
"415 671 OFFCURVE",
"415 671 CURVE",
"415 700 LINE",
"65 700 LINE",
"65 671 LINE",
"65 671 OFFCURVE",
"184 671 OFFCURVE",
"184 350 CURVE",
"184 29 OFFCURVE",
"65 29 OFFCURVE",
"65 29 CURVE",
"65 0 LINE",
"375 0 LINE",
"375 29 LINE",
"375 29 OFFCURVE",
"323 29 OFFCURVE",
"323 206 CURVE",
"323 398 OFFCURVE",
"415 398 OFFCURVE",
"427 398 CURVE",
"440 398 OFFCURVE",
"532 398 OFFCURVE",
"532 226 CURVE",
"532 145 OFFCURVE",
"505 88 OFFCURVE",
"453 88 CURVE",
"398 88 OFFCURVE",
"374 123 OFFCURVE",
"374 123 CURVE",
"347 96 LINE",
"347 96 OFFCURVE",
"380 0 OFFCURVE",
"500 0 CURVE",
"625 0 OFFCURVE",
"678 131 OFFCURVE",
"678 237 CURVE"
);
}
);
width = 734;
},
{
associatedMasterId = "0BD328E4-CA8F-4CB2-8877-C1BF962BF784";
layerId = "D6CF7017-72DF-4660-A932-D06AF714B620";
name = "Jun 8 18, 17:21";
paths = (
{
closed = 1;
nodes = (
"335 529 OFFCURVE",
"292 393 OFFCURVE",
"292 393 CURVE",
"329 366 LINE",
"329 366 OFFCURVE",
"353 441 OFFCURVE",
"408 441 CURVE",
"460 441 OFFCURVE",
"487 384 OFFCURVE",
"487 303 CURVE",
"487 131 OFFCURVE",
"395 131 OFFCURVE",
"382 131 CURVE",
"370 131 OFFCURVE",
"275 131 OFFCURVE",
"274 377 CURVE",
"279 671 OFFCURVE",
"370 671 OFFCURVE",
"370 671 CURVE",
"370 700 LINE",
"20 700 LINE",
"20 671 LINE",
"20 671 OFFCURVE",
"139 671 OFFCURVE",
"139 350 CURVE",
"139 29 OFFCURVE",
"20 29 OFFCURVE",
"20 29 CURVE",
"20 0 LINE",
"247 0 LINE",
"247 64 LINE",
"250 46 OFFCURVE",
"275 -29 OFFCURVE",
"402 -29 CURVE",
"512 -29 OFFCURVE",
"643 97 OFFCURVE",
"643 292 CURVE",
"643 398 OFFCURVE",
"580 529 OFFCURVE",
"455 529 CURVE"
);
}
);
width = 663;
},
{
associatedMasterId = "0BD328E4-CA8F-4CB2-8877-C1BF962BF784";
layerId = "26CADCD6-A8CC-4676-B7E3-54C38B5A260C";
name = "Sep 18 18, 19:02";
paths = (
{
closed = 1;
nodes = (
"277 529 OFFCURVE",
"293 332 OFFCURVE",
"293 332 CURVE",
"322 332 LINE",
"322 332 OFFCURVE",
"317 441 OFFCURVE",
"388 441 CURVE",
"440 441 OFFCURVE",
"467 384 OFFCURVE",
"467 303 CURVE",
"467 131 OFFCURVE",
"385 131 OFFCURVE",
"372 131 CURVE",
"360 131 OFFCURVE",
"265 131 OFFCURVE",
"264 377 CURVE",
"270 671 OFFCURVE",
"360 671 OFFCURVE",
"360 671 CURVE",
"360 700 LINE",
"10 700 LINE",
"10 671 LINE",
"10 671 OFFCURVE",
"129 671 OFFCURVE",
"129 350 CURVE",
"129 29 OFFCURVE",
"10 29 OFFCURVE",
"10 29 CURVE",
"10 0 LINE",
"237 0 LINE",
"237 64 LINE",
"241 46 OFFCURVE",
"265 -29 OFFCURVE",
"392 -29 CURVE",
"502 -29 OFFCURVE",
"623 97 OFFCURVE",
"623 292 CURVE",
"623 398 OFFCURVE",
"560 529 OFFCURVE",
"435 529 CURVE"
);
}
);
width = 633;
},
{
associatedMasterId = "0BD328E4-CA8F-4CB2-8877-C1BF962BF784";
layerId = "08F18BD7-88CD-4D6B-8E2D-E79736A29FC1";
name = "Sep 18 18, 19:03";
paths = (
{
closed = 1;
nodes = (
"300 487 OFFCURVE",
"291 338 OFFCURVE",
"291 284 CURVE",
"321 284 LINE",
"321 335 OFFCURVE",
"364 403 OFFCURVE",
"414 403 CURVE",
"466 403 OFFCURVE",
"522 333 OFFCURVE",
"522 246 CURVE",
"522 144 OFFCURVE",
"479 57 OFFCURVE",
"404 57 CURVE",
"306 57 OFFCURVE",
"265 185 OFFCURVE",
"264 342 CURVE",
"264 353 OFFCURVE",
"264 365 OFFCURVE",
"264 377 CURVE",
"270 671 OFFCURVE",
"360 671 OFFCURVE",
"360 671 CURVE",
"360 700 LINE",
"10 700 LINE",
"10 671 LINE",
"10 671 OFFCURVE",
"129 671 OFFCURVE",
"129 350 CURVE",
"129 29 OFFCURVE",
"10 29 OFFCURVE",
"10 29 CURVE",
"10 0 LINE",
"237 0 LINE",
"237 30 LINE",
"282 -5 OFFCURVE",
"342 -29 OFFCURVE",
"414 -29 CURVE",
"589 -29 OFFCURVE",
"688 96 OFFCURVE",
"688 241 CURVE",
"688 403 OFFCURVE",
"581 487 OFFCURVE",
"472 487 CURVE"
);
}
);
width = 708;
},
{
associatedMasterId = "0BD328E4-CA8F-4CB2-8877-C1BF962BF784";
layerId = "C5AE7554-64DC-4D0D-BCB1-1E59945C317A";
name = "Sep 18 18, 19:10";
paths = (
{
closed = 1;
nodes = (
"280 497 OFFCURVE",
"291 348 OFFCURVE",
"291 294 CURVE",
"321 294 LINE",
"321 345 OFFCURVE",
"344 393 OFFCURVE",
"394 393 CURVE",
"446 393 OFFCURVE",
"492 333 OFFCURVE",
"492 246 CURVE",
"492 144 OFFCURVE",
"459 87 OFFCURVE",
"384 87 CURVE",
"286 87 OFFCURVE",
"265 185 OFFCURVE",
"264 342 CURVE",
"264 353 OFFCURVE",
"264 365 OFFCURVE",
"264 377 CURVE",
"270 671 OFFCURVE",
"360 671 OFFCURVE",
"360 671 CURVE",
"360 700 LINE",
"10 700 LINE",
"10 671 LINE",
"10 671 OFFCURVE",
"129 671 OFFCURVE",
"129 350 CURVE",
"129 29 OFFCURVE",
"10 29 OFFCURVE",
"10 29 CURVE",
"10 0 LINE",
"237 0 LINE",
"237 30 LINE",
"282 -5 OFFCURVE",
"322 -29 OFFCURVE",
"394 -29 CURVE",
"569 -29 OFFCURVE",
"658 96 OFFCURVE",
"658 241 CURVE",
"658 403 OFFCURVE",
"561 497 OFFCURVE",
"452 497 CURVE"
);
}
);
width = 678;
},
{
associatedMasterId = "0BD328E4-CA8F-4CB2-8877-C1BF962BF784";
layerId = "5A4FC50E-6F74-497B-827E-35D0A290CA43";
name = "Sep 29 18, 10:29";
paths = (
{
closed = 1;
nodes = (
"280 497 OFFCURVE",
"291 348 OFFCURVE",
"291 294 CURVE",
"321 294 LINE",
"321 345 OFFCURVE",
"344 393 OFFCURVE",
"394 393 CURVE",
"446 393 OFFCURVE",
"492 333 OFFCURVE",
"492 246 CURVE",
"492 144 OFFCURVE",
"459 87 OFFCURVE",
"384 87 CURVE",
"286 87 OFFCURVE",
"265 185 OFFCURVE",
"264 342 CURVE",
"264 353 OFFCURVE",
"264 365 OFFCURVE",
"264 377 CURVE",
"270 671 OFFCURVE",
"360 671 OFFCURVE",
"360 671 CURVE",
"360 700 LINE",
"10 700 LINE",
"10 671 LINE",
"10 671 OFFCURVE",
"129 671 OFFCURVE",
"129 350 CURVE",
"129 29 OFFCURVE",
"10 29 OFFCURVE",
"10 29 CURVE",
"10 0 LINE",
"237 0 LINE",
"237 30 LINE",
"282 -5 OFFCURVE",
"322 -29 OFFCURVE",
"394 -29 CURVE",
"569 -29 OFFCURVE",
"658 96 OFFCURVE",
"658 241 CURVE",
"658 403 OFFCURVE",
"561 497 OFFCURVE",
"452 497 CURVE"
);
}
);
width = 678;
},
{
anchors = (
{
name = bottom;
position = "{329, 0}";
},
{
name = top;
position = "{329, 500}";
}
);
associatedMasterId = "0BD328E4-CA8F-4CB2-8877-C1BF962BF784";
layerId = "82A01DFC-A214-4FFD-ABE7-A2C6A6E989B7";
name = "May 29 19, 17:32";
paths = (
{
closed = 1;
nodes = (
"320 510 OFFCURVE",
"291 393 OFFCURVE",
"291 294 CURVE",
"321 294 LINE",
"321 345 OFFCURVE",
"296 443 OFFCURVE",
"394 443 CURVE",
"446 443 OFFCURVE",
"472 343 OFFCURVE",
"472 256 CURVE",
"472 154 OFFCURVE",
"449 87 OFFCURVE",
"374 87 CURVE",
"296 87 OFFCURVE",
"265 185 OFFCURVE",
"264 342 CURVE",
"264 353 OFFCURVE",
"264 365 OFFCURVE",
"264 377 CURVE",
"270 671 OFFCURVE",
"360 671 OFFCURVE",
"360 671 CURVE",
"360 700 LINE",
"10 700 LINE",
"10 671 LINE",
"10 671 OFFCURVE",
"129 671 OFFCURVE",
"129 350 CURVE",
"129 29 OFFCURVE",
"10 29 OFFCURVE",
"10 29 CURVE",
"10 0 LINE",
"237 0 LINE",
"237 30 LINE",
"272 -5 OFFCURVE",
"322 -19 OFFCURVE",
"374 -19 CURVE",
"549 -19 OFFCURVE",
"628 111 OFFCURVE",
"628 256 CURVE",
"628 388 OFFCURVE",
"551 510 OFFCURVE",
"432 510 CURVE"
);
},
{
closed = 1;
nodes = (
"186 183 LINE",
"197 74 OFFCURVE",
"246 -30 OFFCURVE",
"357 -30 CURVE SMOOTH",
"529 -30 OFFCURVE",
"628 89 OFFCURVE",
"628 256 CURVE SMOOTH",
"628 383 OFFCURVE",
"546 510 OFFCURVE",
"437 510 CURVE SMOOTH",
"299 510 OFFCURVE",
"292 348 OFFCURVE",
"292 294 CURVE",
"322 294 LINE",
"322 345 OFFCURVE",
"329 403 OFFCURVE",
"379 403 CURVE",
"431 403 OFFCURVE",
"462 313 OFFCURVE",
"462 256 CURVE SMOOTH",
"462 198 OFFCURVE",
"445 88 OFFCURVE",
"367 88 CURVE SMOOTH",
"324 88 OFFCURVE",
"289 127 OFFCURVE",
"268 183 CURVE"
);
}
);
width = 648;
},
{
anchors = (
{
name = bottom;
position = "{329, 0}";
},
{
name = top;
position = "{329, 500}";
}
);
associatedMasterId = "0BD328E4-CA8F-4CB2-8877-C1BF962BF784";
layerId = "76F80D51-8A60-4865-A137-4933C7CB9DF9";
name = "May 29 19, 17:34";
paths = (
{
closed = 1;
nodes = (
"340 470 OFFCURVE",
"291 393 OFFCURVE",
"291 294 CURVE",
"321 294 LINE",
"321 345 OFFCURVE",
"296 443 OFFCURVE",
"394 443 CURVE",
"446 443 OFFCURVE",
"472 343 OFFCURVE",
"472 256 CURVE",
"472 176 OFFCURVE",
"457 106 OFFCURVE",
"415 79 CURVE SMOOTH",
"403 71 OFFCURVE",
"383 88 OFFCURVE",
"367 88 CURVE",
"299 88 OFFCURVE",
"265 185 OFFCURVE",
"264 342 CURVE",
"264 353 OFFCURVE",
"264 365 OFFCURVE",
"264 377 CURVE",
"270 671 OFFCURVE",
"360 671 OFFCURVE",
"360 671 CURVE",
"360 700 LINE",
"10 700 LINE",
"10 671 LINE",
"10 671 OFFCURVE",
"129 671 OFFCURVE",
"129 350 CURVE",
"129 29 OFFCURVE",
"10 29 OFFCURVE",
"10 29 CURVE",
"10 0 LINE",
"237 0 LINE",
"237 30 LINE",
"272 -5 OFFCURVE",
"322 -19 OFFCURVE",
"374 -19 CURVE",
"408 -19 OFFCURVE",
"618 111 OFFCURVE",
"618 256 CURVE",
"618 388 OFFCURVE",
"445 470 OFFCURVE",
"422 470 CURVE"
);
},
{
closed = 1;
nodes = (
"186 183 LINE",
"197 74 OFFCURVE",
"246 -30 OFFCURVE",
"357 -30 CURVE SMOOTH",
"529 -30 OFFCURVE",
"628 89 OFFCURVE",
"628 256 CURVE SMOOTH",
"628 383 OFFCURVE",
"546 510 OFFCURVE",
"437 510 CURVE SMOOTH",
"299 510 OFFCURVE",
"292 348 OFFCURVE",
"292 294 CURVE",
"322 294 LINE",
"322 345 OFFCURVE",
"329 403 OFFCURVE",
"379 403 CURVE",
"431 403 OFFCURVE",
"462 313 OFFCURVE",
"462 256 CURVE SMOOTH",
"462 198 OFFCURVE",
"445 88 OFFCURVE",
"367 88 CURVE SMOOTH",
"324 88 OFFCURVE",
"289 127 OFFCURVE",
"268 183 CURVE"
);
}
);
width = 648;
}
);
leftKerningGroup = h;
rightKerningGroup = o;
unicode = 0062;
},
